/* XPM */
static char * torch3_wall2_xpm[] = {
"63 63 262 2",
"  	c #2C2C2C",
". 	c #545454",
"+ 	c #484848",
"@ 	c #DCDCDC",
"# 	c #CCC400",
"$ 	c #B4AC00",
"% 	c #202020",
"& 	c #383838",
"* 	c #8C8C8C",
"= 	c #A8A8A8",
"- 	c #707070",
"; 	c #D0D0D0",
"> 	c #989898",
", 	c #C0C0C0",
"' 	c #B4B4B4",
") 	c #7C7C7C",
"! 	c #9C9C00",
"~ 	c #706C00",
"{ 	c #646464",
"] 	c #848400",
"^ 	c #E4D800",
"/ 	c #585400",
"( 	c #ECECEC",
"_ 	c #BB8059",
": 	c #D3813B",
"< 	c #5C4435",
"[ 	c #5B4437",
"} 	c #715546",
"| 	c #9E9185",
"1 	c #E99C3F",
"2 	c #935D35",
"3 	c #8C5A36",
"4 	c #AB6D3F",
"5 	c #FCF420",
"6 	c #816D5F",
"7 	c #E59235",
"8 	c #935D36",
"9 	c #89552D",
"0 	c #C67833",
"a 	c #ACA7A5",
"b 	c #735C51",
"c 	c #BA7642",
"d 	c #554237",
"e 	c #E78A33",
"f 	c #B8A49A",
"g 	c #D2BC0F",
"h 	c #B08618",
"i 	c #BF8561",
"j 	c #A9A8A7",
"k 	c #A57A61",
"l 	c #916242",
"m 	c #4A3121",
"n 	c #C4752F",
"o 	c #EF8E30",
"p 	c #D19A7A",
"q 	c #E6C318",
"r 	c #8D8505",
"s 	c #C5865E",
"t 	c #8F8C8B",
"u 	c #585554",
"v 	c #7D5F4F",
"w 	c #AB6629",
"x 	c #F3963D",
"y 	c #E28D3E",
"z 	c #E5D10A",
"A 	c #E6C219",
"B 	c #8A7E78",
"C 	c #AAA8A7",
"D 	c #717070",
"E 	c #6A5246",
"F 	c #AC672A",
"G 	c #F29840",
"H 	c #B7743E",
"I 	c #E4D702",
"J 	c #8D7E77",
"K 	c #C88E6A",
"L 	c #D38953",
"M 	c #655146",
"N 	c #CD7C2E",
"O 	c #F2983E",
"P 	c #A76C3E",
"Q 	c #807C7B",
"R 	c #DF9054",
"S 	c #EF9137",
"T 	c #C28D6D",
"U 	c #E4D801",
"V 	c #784D2C",
"W 	c #F19639",
"X 	c #F49C42",
"Y 	c #B6702B",
"Z 	c #CA997C",
"` 	c #EE923A",
" .	c #EB913C",
"..	c #A28C81",
"+.	c #2B2420",
"@.	c #B26B28",
"#.	c #F3993B",
"$.	c #F59E41",
"%.	c #EF922E",
"&.	c #EF9535",
"*.	c #EC9032",
"=.	c #C67832",
"-.	c #574237",
";.	c #322720",
">.	c #D18230",
",.	c #F7A144",
"'.	c #F6A041",
").	c #F49834",
"!.	c #F6A042",
"~.	c #EA9237",
"{.	c #955F35",
"].	c #4F4A48",
"^.	c #D3853C",
"/.	c #F7A244",
"(.	c #F7A344",
"_.	c #F7A141",
":.	c #F59E3F",
"<.	c #D48C50",
"[.	c #9B9795",
"}.	c #D3BC11",
"|.	c #EB9D30",
"1.	c #F29F43",
"2.	c #F6A244",
"3.	c #C09B7C",
"4.	c #E8E8E7",
"5.	c #CCA21B",
"6.	c #C67F2D",
"7.	c #B77E2F",
"8.	c #DB933B",
"9.	c #DF953C",
"0.	c #B97F31",
"a.	c #A7825A",
"b.	c #989695",
"c.	c #A8968E",
"d.	c #A27B57",
"e.	c #976B28",
"f.	c #A07228",
"g.	c #A47528",
"h.	c #986D28",
"i.	c #8D6F4E",
"j.	c #969493",
"k.	c #9F9A97",
"l.	c #745529",
"m.	c #8E6525",
"n.	c #966B28",
"o.	c #866023",
"p.	c #73611D",
"q.	c #B8B00B",
"r.	c #9E9C9A",
"s.	c #654D16",
"t.	c #70501C",
"u.	c #76551E",
"v.	c #71501B",
"w.	c #694F1D",
"x.	c #736F11",
"y.	c #404000",
"z.	c #91908F",
"A.	c #786714",
"B.	c #644719",
"C.	c #654818",
"D.	c #6A4C1A",
"E.	c #664E2E",
"F.	c #918F8C",
"G.	c #A4A4A4",
"H.	c #796F12",
"I.	c #6A4C19",
"J.	c #674A19",
"K.	c #6C4D1D",
"L.	c #6F6459",
"M.	c #959494",
"N.	c #BEB505",
"O.	c #5C4416",
"P.	c #684B19",
"Q.	c #634719",
"R.	c #6D512D",
"S.	c #9D9996",
"T.	c #929005",
"U.	c #584017",
"V.	c #5C4118",
"W.	c #67491B",
"X.	c #85786D",
"Y.	c #979796",
"Z.	c #6B6505",
"`.	c #543E1E",
" +	c #583F18",
".+	c #5F4319",
"++	c #6C553C",
"@+	c #9E9B99",
"#+	c #A3A3A2",
"$+	c #887D10",
"%+	c #553D17",
"&+	c #5B4118",
"*+	c #5D4320",
"=+	c #74706D",
"-+	c #A59B0D",
";+	c #553C19",
">+	c #5B4119",
",+	c #6A5C4F",
"'+	c #969696",
")+	c #736C0D",
"!+	c #664A1A",
"~+	c #5A4019",
"{+	c #64503A",
"]+	c #868482",
"^+	c #62590B",
"/+	c #5A401A",
"(+	c #5E431B",
"_+	c #999693",
":+	c #7D7975",
"<+	c #523917",
"[+	c #5B411A",
"}+	c #6A6662",
"|+	c #75706B",
"1+	c #533B18",
"2+	c #59462E",
"3+	c #54514F",
"4+	c #3A2F24",
"5+	c #4B3517",
"6+	c #533B19",
"7+	c #593F1B",
"8+	c #342A1F",
"9+	c #3F352C",
"0+	c #483416",
"a+	c #563D1A",
"b+	c #4E3C26",
"c+	c #3A3837",
"d+	c #8B8907",
"e+	c #524316",
"f+	c #583E1B",
"g+	c #7C7312",
"h+	c #C8C001",
"i+	c #746914",
"j+	c #583D1B",
"k+	c #988C13",
"l+	c #B1A901",
"m+	c #6A5E14",
"n+	c #8B7D14",
"o+	c #615714",
"p+	c #563D1B",
"q+	c #7C7314",
"r+	c #8A8989",
"s+	c #5C5249",
"t+	c #533B1C",
"u+	c #6A6212",
"v+	c #D8D8D8",
"w+	c #736B65",
"x+	c #5D4C1A",
"y+	c #6C6706",
"z+	c #7A736E",
"A+	c #5A481A",
"B+	c #6E6C6B",
"C+	c #57432F",
"D+	c #797776",
"E+	c #CCCCCC",
"F+	c #6D655F",
"G+	c #584733",
"H+	c #A7A5A4",
"I+	c #848281",
"J+	c #493929",
"K+	c #4C361A",
"L+	c #51412F",
"M+	c #6A6867",
"                                                                                                                              ",
". . . . . . . . . . + @ # # # # # @ @ @ @ @ @ $ $ $ @ % & * = @ @ @ @ @ # # # - * * . % + + + + + + + + + + . . . . . . . . . ",
". . . . . . . . . . + @ ; $ $ $ $ > = # # ; , , # # * % & * , ' * # ) # ! ! ! ~ . . & % & - ! ! ! ! ) ) ) - { + + + + + + + + ",
"* * * * * * * * % . + @ ; $ $ $ ~ > # # ! , , , ] $ { % & = @ = * ) # ) ~ ] ~ . ) . & % & ! # ^ ! ~ * ' , # # # { { # # * * * ",
"; ' $ ' ' = * * % . + @ ; ! ! ] ~ > # ! = = > * * ! . % & * , * * * = = { ] ~ . - . & % & ! ^ $ ~ { ) ' @ # ^ ^ + { # # ] ) ; ",
"= = $ $ . - ) - % . + @ , ! ] ~ - ) > = > ! * - * ] . % & + = # ! = * * ) / . - . . & % & ! ^ ~ { * ' ^ # ) ! ! + { ! ] ~ + * ",
"' > ~ . * * * - % + + @ ; ! ~ ~ ) = > > > ! * > - * . % & + ) ! ] $ * = = - { - & & & % & ] ! ~ { ) # # # ) ~ ! + - { + + { $ ",
"' ' ) * = * - . % & + @ ; * ) ) > = > ; ) ] > = * * . % & + - * = * = * * * = - & & &   & ] ~ { * * ) # ) ) ~ ~ + - ) * - ) ] ",
"> = = - - * + + %   + @ , = > ) > # > > * > * * = * . % % + . - - . . & & & & & & & % & & ) { * ) = = ) * = ) + - * > * * = ) ",
"* * * * - . + + %   + @ ( = ) > ) # $ - * * * = * * .   % + + & & & & & & & & & % % & & & ) ' ' * ! ) > ) ) > { - > * > * * = ",
"- - - - . + & & %   + @ @ * ) > > # ! - = * = * = * .   % & + &     % % % % %     & & & & ) ' ) ! + * = ^ ) * - * - > { - * { ",
". . + + + % % % %   + = @ = > ) # $ ! - > * * ) * _ : < % [ } + + + - = = = = @ @ ~ & & & - ' * ) { { ) ! & . . { + + + + + + ",
"% % % % %         & . * @ ; * ) * ! - * * = ) * ! | 1 2 % 3 4 - = 5 5 @ @ @ ; ; @ # ~ & & . * - { { . + / & & & & & &         ",
"                  & . - = ; * = * * * = * * > * { 6 7 8 % 9 0 a 5 # ! * * = * = ! - / % & & & & & & & & & & &     % % % % % % ",
"& & & & & & & & & & . + * ; = * = > - > * ) * = ] b c d % 9 e f g h i j * ^ ^ * ! . ~ & &                     & & & & & & & & ",
". + & & & & & & & & . + - , * = > # ! - = * = * ~ . k l m n o p q r s t # ^ ) * ] . / & + + . . . . % + + + + + + + + + + + + ",
"> > > > > > > > >   % . + , , ] * ! ] = - * * * - { u v w x y z A B s C ^ ^ - * ~ . & & + ^ $ $ { . + . ) > > > > > > > > > > ",
"; # $ @ @ # ! - - & % . + * , ~ { > { * - - = * - * D E F G H I J K L t ! ~ { = * . & & & $ $ ] {   + ) , # # # @ $ = = # # # ",
"# $ ] $ $ ! ~ . - & % . + - > { { * * - * . * - . - . M N O P Q R S T U { { { . . . & % & ! ] . { % + > # # # ) ^ ! ) = # ! ] ",
"$ ] = $ ! ] ~ . - & % + . + > > - * { - - - - . - . + V W X Y Z `  ...- . & & & & & & % { ! ] - . % + > # # ) > ! ! ) > # ! ] ",
"] = * $ ! ~ ~ . . & % + . + { . . & & & & & &   % % +.@.#.$.%.&.*.=.-.& % % % % % % % % { * ] * . % + > = ) * > ! ) ) = # ! ] ",
"= * = $ ~ . . * . & % + . +         % % % % % % % % ;.>.,.'.).!.~.{.% % % %             * = * = . % + * = > = > = ) = ) = ! ~ ",
"* = ) ) . - * - . & % & . . + & % % % % % % % % + + ].^./.(._.:.<.[.! ! ! ! ! ) .   & { , @ = , { % + * * = ^ > * = > = = ) ) ",
"* # ! ) * * * { + & % & * # # $ ! * ' ' ' { & + { ! }.|.1.2.(.1.3.4.# # # # $ ! ] % & ) @ , @ = - % + ) > = > * = > ^ > ) = > ",
"* ! ] = * * * { + & % & # $ $ ! ) ) ) ) ) & . + ! # 5.6.7.8.9.0.a.b.! ) ! ] ! ] ~ % & * @ = = , ^ % + ^ = > = > ^ ^ ) = > > = ",
"> ] * * * * - . & & % & $ ! ] { { { { { { % . + > ( c.d.e.f.g.h.i.j.) = ] ) ! ~ / % & * ^ * * = ! % + ! / - { ^ $ ] ~ / - - . ",
"{ { { { { . + & & & % & $ ] { { > ] ! ~ { % + + > ( ^ k.l.m.n.o.p.q.= > ] = ] { / % & * $ - * = ~ % + / & & + / / / / + + . . ",
". + + & & & % % % %   & $ ] { > > ) ] ~ { % + + > ( # r.s.t.u.v.w.x.> = > > ) { y.% & * - * = @ / % +     % % % % % % % % & & ",
"% % % % % %       + + + ( { > = ] * ] ~ { % & + > ( $ z.A.B.C.D.E.F.> ) $ ] ) { y.% & ^ ( = @ = . % + & & & &       % % % % % ",
"+ { { - * > * * * * + % ( > > = ] * { ) { y.% + > ( $ G.H.I.J.K.L.M.= > $ ] ) . y.% & $ ( , , = . % + & & & & & & & & & & & & ",
"{ * ' $ $ * = = = = { % ( = ; * ~ = * ) { y.% + > ( = N.O.P.Q.R.S.= > = $ ] * . y.% ~ ! @ = = $ . % + ~ ! ! ! $ $ ] ] + + + + ",
"{ ' $ $ ] { = = = = + % ( = > = ) * ) * { y.% + ) > # T.U.V.W.X.Y.> ) > $ ] { . y.% & ! @ @ $ ! . % + - ! ~ ! ! ! $ $ $ ] > & ",
"{ $ ! ] { * = $ $ - { % ( ; = > = ] * = { y.% & . > ! Z.`. +.+++@+) > ) $ ] - + & % & ! @ = $ ~ . % + > - - ! ! ] ] ~ ~ ~ ) & ",
"{ $ ! - - = - $ ] - { % ( > * > = * * ) { y.%   . = ( #+$+%+&+*+=+) ) ) $ ] { +   % ~ * ; , $ / . % + @ = = ! ~ - - / { - { & ",
"{ - * = * - * $ ~ - . % @ = = = > = = ) { y.%   . * ( , -+;+>+,+'+> * = ! ] { + % % ! * ; = ] ~ y.% + ; = * ! ~ * ) > { > { & ",
"{ = = * = = $ ! ~ - . % @ , ) > # $ ) * { y.% % + - ; , )+!+~+{+]+= > $ ! { { & % % + * ; * ~ / y.% + , = = ! ~ ) * > > = . & ",
"{ @ > = * * ] ~ ~ - . % , @ * > $ ] * = { y.y.% + . ' @ ^+%+/+(+_+* ] { { { - & % & + ) = ) ~ y./ & + = = * ! ] - > ) - > . & ",
"{ @ = = * > ~ ~ - - . % ' @ ) = * * * * { y.y.% & . * , :+<+[+[+}+- { { - - . & % & + . & & / / & & + - . + . . . . . . . . & ",
"{ @ ' * $ ] * - * > . % > @ = ) = = ) * { . y.% & . + * |+1+[+2+3++ % y.+ . + % % & + . + + & & & + + % % % % % % % % % % % % ",
"{ @ ' = * > * $ ! - . % ) @ > > = * { * ) . y.%   + + & 4+5+6+7+8+      & & & & & & + + + + + + + + + + + + & & & & & & & & & ",
"{ @ $ $ > * $ ! ] - . % . ( = = * * * = ) . / %   + + + 9+0+a+b+c++ + + . . { { { - - ) ) ) ) ) ] ] ] ] ) ) ) ) ) ) ) ) ) ) & ",
"{ $ $ ] = > ! ~ ~ { . % + ( > * ! ) * ) ) . / %   & { ! d+e+f+g+! ! ] ) ) * > > = = = = = ' ' # # # $ ] , , ^ $ , # $ ] , ) & ",
"{ $ ] ) > > * ~ ~ { %   + ( = * ] { = * { . / % % & ~ # h+i+j+k+# # # ! = , = , > , = , , , # $ ] ] ] ' ' ^ $ , , $ $ $ ] {   ",
"{ $ ] ) = * * * * . %   + ( * = { { * * { . / % % & ~ # l+m+j+n+$ $ $ ] = , = = , # ! > = > $ ] = > # # $ ) * , $ ! $ ] ) .   ",
"{ $ ] * * = * = * . % & + @ = = = = * = { . y.% % &   $ l+o+p+q+! ! ! ] ~ * , = = ! ! = = > , > = # $ $ ) * > = - - $ - - .   ",
"+ ] ) * = * = * { . % & + ; * * = * * * { . & % % &   * r+s+t+u+! ] ] ~ ~ - = , = * ) > , > > = # ) ) ) > = = > * * $ - - .   ",
"+ * * * * ) { . . %   & + ' = * * = * ) { . & % % &   , v+w+x+y+~ ~ ~ - - * = , * ' * > > # # > * ) - * * ^ $ ' = * $ - - .   ",
"+ ) ) - { . . . . %   & + > > = * * * - { . & % % &   ' v+z+A+B+- - - ) > * ! = ' = * ' # = * * = * * > ' $ ] = > > - - - . % ",
"+ & % . . . . . . % & + + ) { { { { { { . . & % % &   = v+z+C+D+* * $ $ ] ' * * ' > = ' = * $ = $ = > ' $ ] > = = > $ $ - . % ",
". . .     % %   %   & + & & & & & & & & & & & % %     * E+F+G+H+> ' $ $ ~ * ' * ' > * * ^ $ ~ > = , > = > > = > * * ' ) - . % ",
"+ + + + & &         & + & & % % % % % % % % % % % %   * I+J+K+L+M+- ] ~ ~ * = - ) * ' ^ $ ~ = * = > * * ' ) * * # > * > - . % ",
"+ ) = # # # ! * { + + . & &                         & . + &             . - - ) * $ ' ~ ~ ) ) - { ) * * * ) ) ' ) { ) ) { . % ",
"+ = # ^ # # # # $ ! = * - { . + & & & & & & & & & & + . + + & & & & & &   + . . . . . . . . . . . . . . . . . . . . . . . %   ",
"+ = # ^ $ * * * > = , $ ^ ^ # # # $ $ $ $ $ ] - ) - { { . . + + + + + & &           % %             % % % % % % % % % % %   & ",
"+ = , > $ > , , ' , ' , = * * ! ! ! ! ! ! ! ! ] * * , = = = = = * + . + & & & & & & & & &                               & & + ",
"+ = , , > , ' = = > , = ' , ' = * * * * * ] ] ] * > , @ ^ ^ * , ) & + . + + + & & & & & & & & & & & & & & & & & & & & & + + + ",
"+ = ' ; , ' , ^ $ ] ' ' ; = ; , , # ! > * * * * * ' = * ^ ] * ) { % & . + ] $ $ $ { + + + . . . ~ $ ! ] ~ ~ / + + + + + . . . ",
"+ = , , = * ) $ ] / , = , ; = = = ; , , = , = ; = ) = ; = * * { . % & + + $ ] ] ] { @ @ ' . . ! # # # ! ) # = = ; # ' > ) + + ",
"+ = * - { { { ] / - ) - { - ) - { { { - ) * = * ) { { { { { { . . & % & + { ] ] ~ { ' ' ' { . * ) ) ) ) ) = = * # ! - = @ > % ",
"+ * { + & & & & & & & & & & & & & & & & & & & & & & & & & & & & & & %   + ' ] ~ { > { > * { + * * = * = # # = = ! ] - * = . % ",
"+ & % % % % % % % % % % % % % % % % % % % % % % % % % % % % % % % % %   + & y./ . { { { { { + { { > = # # ! ) = ] - - * * . % ",
". + & & &                                                               & + y.y.& % % % % % & + . . ~ / . . . ~ / . . . . . % ",
". . . . + + + + + + + + & & & & & & & & & & & & & & & & & & & & & & & & & + + + + & & & & & & + + % % % % % % % % % % % % % % "};
