/* XPM */
static char * torch2_wall_3_xpm[] = {
"63 63 268 2",
"  	c #1F1F1F",
". 	c #3B3B3B",
"+ 	c #575757",
"@ 	c #535353",
"# 	c #4F4F4F",
"$ 	c #4B4B4B",
"% 	c #D3D3D3",
"& 	c #DFDFDF",
"* 	c #838383",
"= 	c #ABABAB",
"- 	c #B7B7B7",
"; 	c #C7C7C7",
"> 	c #474747",
", 	c #8F8F8F",
"' 	c #6B6B6B",
") 	c #7B7B7B",
"! 	c #676767",
"~ 	c #5F5F5F",
"{ 	c #9B9B9B",
"] 	c #737373",
"^ 	c #EFEFEF",
"/ 	c #3F3F3F",
"( 	c #9E8F89",
"_ 	c #D9833A",
": 	c #8C5B38",
"< 	c #817570",
"[ 	c #CF7F3C",
"} 	c #E48830",
"| 	c #844F23",
"1 	c #51423B",
"2 	c #CBA18B",
"3 	c #BFB3AE",
"4 	c #9F6D4D",
"5 	c #ED9036",
"6 	c #F0963F",
"7 	c #D27F35",
"8 	c #C57836",
"9 	c #D99B75",
"0 	c #DFDEDE",
"a 	c #9B8F8A",
"b 	c #928F8E",
"c 	c #767372",
"d 	c #CA7D3A",
"e 	c #F19841",
"f 	c #F49B43",
"g 	c #F29337",
"h 	c #D49D7D",
"i 	c #918F8E",
"j 	c #CD8A5E",
"k 	c #B7A8A1",
"l 	c #83614D",
"m 	c #EB9038",
"n 	c #F19942",
"o 	c #E38934",
"p 	c #B5A8A2",
"q 	c #EFEEED",
"r 	c #B38F7C",
"s 	c #EB924A",
"t 	c #B6A8A1",
"u 	c #7D5B47",
"v 	c #E78A2F",
"w 	c #EF953D",
"x 	c #DC8435",
"y 	c #B3A9A4",
"z 	c #DAB29F",
"A 	c #AFAAA8",
"B 	c #C9A18D",
"C 	c #EA8F41",
"D 	c #97857C",
"E 	c #757373",
"F 	c #5D5552",
"G 	c #695449",
"H 	c #CC792A",
"I 	c #E7892E",
"J 	c #A36A41",
"K 	c #BBA69D",
"L 	c #E4A580",
"M 	c #C6A390",
"N 	c #EC9345",
"O 	c #D1844A",
"P 	c #6E5A50",
"Q 	c #9F673F",
"R 	c #905625",
"S 	c #935925",
"T 	c #735037",
"U 	c #CD9472",
"V 	c #F08F34",
"W 	c #ED8F36",
"X 	c #F2963C",
"Y 	c #AD7A5B",
"Z 	c #28231F",
"` 	c #5B3D21",
" .	c #C37829",
"..	c #C27729",
"+.	c #E88D2F",
"@.	c #F19334",
"#.	c #F09236",
"$.	c #EB8C2E",
"%.	c #986037",
"&.	c #201F1F",
"*.	c #724822",
"=.	c #E8902F",
"-.	c #F1962E",
";.	c #ED932C",
">.	c #F29A38",
",.	c #F6A146",
"'.	c #EE963A",
").	c #B76D28",
"!.	c #382820",
"~.	c #504C4A",
"{.	c #BC773A",
"].	c #F29A37",
"^.	c #F59F3B",
"/.	c #F59D37",
"(.	c #F7A23F",
"_.	c #F6A041",
":.	c #E48F3F",
"<.	c #B5A69F",
"[.	c #A09E9C",
"}.	c #D28D51",
"|.	c #F09D39",
"1.	c #F6A540",
"2.	c #F7A540",
"3.	c #F3A33F",
"4.	c #DA9039",
"5.	c #B89B8A",
"6.	c #CCCCCC",
"7.	c #DCDAD9",
"8.	c #B28B63",
"9.	c #BB812D",
"0.	c #DD9538",
"a.	c #E19839",
"b.	c #C1862E",
"c.	c #AE8553",
"d.	c #A6A4A1",
"e.	c #C6C6C6",
"f.	c #B9B8B7",
"g.	c #927046",
"h.	c #9D7027",
"i.	c #A67627",
"j.	c #A97827",
"k.	c #A27427",
"l.	c #8E6E45",
"m.	c #A8A7A6",
"n.	c #A9A9A9",
"o.	c #74695C",
"p.	c #77551D",
"q.	c #8C6422",
"r.	c #916825",
"s.	c #805C20",
"t.	c #665339",
"u.	c #7E7D7A",
"v.	c #95928F",
"w.	c #604520",
"x.	c #664818",
"y.	c #72511C",
"z.	c #70501B",
"A.	c #60461D",
"B.	c #686560",
"C.	c #868583",
"D.	c #5B4628",
"E.	c #674919",
"F.	c #694B18",
"G.	c #6C4D1A",
"H.	c #5E451B",
"I.	c #69645F",
"J.	c #82807E",
"K.	c #5A4423",
"L.	c #6C4D19",
"M.	c #684A19",
"N.	c #6D4E1B",
"O.	c #59431E",
"P.	c #76736F",
"Q.	c #B6B6B6",
"R.	c #807C78",
"S.	c #5E441E",
"T.	c #6C4E19",
"U.	c #6D4D1B",
"V.	c #533F1F",
"W.	c #676460",
"X.	c #8C8985",
"Y.	c #5D441D",
"Z.	c #624518",
"`.	c #6C4C1B",
" +	c #60451D",
".+	c #473A20",
"++	c #686460",
"@+	c #DEDEDE",
"#+	c #908D8A",
"$+	c #594220",
"%+	c #5F4318",
"&+	c #64471A",
"*+	c #66481B",
"=+	c #62574B",
"-+	c #A2A1A0",
";+	c #A5A5A4",
">+	c #786F67",
",+	c #593F17",
"'+	c #5F4418",
")+	c #614621",
"!+	c #736F6B",
"~+	c #8D8884",
"{+	c #563D18",
"]+	c #5C4119",
"^+	c #6D6053",
"/+	c #8D8D8D",
"(+	c #664A1A",
"_+	c #5A4019",
":+	c #6B5946",
"<+	c #7E7C7A",
"[+	c #8B8783",
"}+	c #553D17",
"|+	c #5A401A",
"1+	c #5E431B",
"2+	c #9C9996",
"3+	c #8A8683",
"4+	c #503918",
"5+	c #5B401A",
"6+	c #5D5853",
"7+	c #76716E",
"8+	c #503919",
"9+	c #583F1B",
"0+	c #554129",
"a+	c #3E3B38",
"b+	c #34291B",
"c+	c #4A3517",
"d+	c #533B19",
"e+	c #583F1C",
"f+	c #33291E",
"g+	c #3E3731",
"h+	c #45331F",
"i+	c #553B1A",
"j+	c #4D3C28",
"k+	c #3D3B39",
"l+	c #737170",
"m+	c #584E45",
"n+	c #573D1B",
"o+	c #695E55",
"p+	c #B4B4B4",
"q+	c #88827E",
"r+	c #583D1B",
"s+	c #958E89",
"t+	c #C4C4C4",
"u+	c #9F9B98",
"v+	c #583E1B",
"w+	c #AFA9A4",
"x+	c #7E7874",
"y+	c #543C1C",
"z+	c #8B847E",
"A+	c #DCDCDC",
"B+	c #523B1C",
"C+	c #706963",
"D+	c #5B4937",
"E+	c #888785",
"F+	c #8F8A86",
"G+	c #625243",
"H+	c #A4A3A3",
"I+	c #D0D0D0",
"J+	c #5C4B39",
"K+	c #7F7E7D",
"L+	c #7E7975",
"M+	c #5E4E3E",
"N+	c #868483",
"O+	c #8C8A89",
"P+	c #50453A",
"Q+	c #4C361A",
"R+	c #514130",
"S+	c #666462",
"  .   .   .   .   .   .   .   .   .   .   .   .   .   .   .   .   .   .   .   .   .   .   .   .   .   .   .   .   .   .   .   ",
"+ @ + # + # + # + # $ % & & & % & % & & & % & % & & &   . * = - % ; % % ; % - ; = * +   > > > > > > > > > > @ # + # + # + # + ",
"@ + @ @ + @ @ @ + @ > & % ; % - % % % ; % % - % % ; ,   . * ; - , = * , , , , * = # .   . ' , , * , , , ) ' ! > > > $ > > > $ ",
", , * , , , * ,   @ $ & ; ; - % - ; ; - ; ; - - % , ~   . = % = , = , = * = , = * + .   . , % & & & % & - - = , * , , , * , , ",
"% % % % - = , *   + > & % = = { = , = = = = { = = ) @   . , - , , * = = = = * , ] # .   . * & & - ; - % & & & % & % ; % % % ; ",
"= = = = { = ) ]   @ > ^ - { = = = = { = , = * = = ' @   . > = , = = * , { , = ' + @ .   . , % - = , = , = = { , , = , = * = , ",
"- { { { = , ) '   $ > ^ % = * = , = , { { { , , = , #   . > ) , * = , = = * = ] . . .   . * & - , = * { * , , = * , { , = { , ",
"- = * - * { ~ +   . > ^ ; , { , = = { , ) , , = , ~ +   . > > , = = { , , , = ' . . .   . , & = = * { ) = { ) , = * = = , ) = ",
"{ = = , { ] > $     $ ; - = { = * = , { * { , , = ' @     $ @ > ) . . . . . . . .     . . ] & & , = * * { ] { , = , , ) = = ] ",
", , * , ] @ > >   . > = ^ = { = , , , , , , * = * + )     . > . . . . . . .   .       > > > ; ; , , , , { { { * , = , = = * = ",
"] ' ] ] # $ . .     $ , % , = , , ) , , = * = , = ' + .   . > .               .   .   $ @ > ; = , = * = , * , ] ' ! ~ ~ ! ~ ! ",
"@ + > > >         . / ] & = * { ) ) ) = { , * ) , ' ! .   . > > $ $ ] ) , = { = = { ] . # $ - , ' ] ! ~ ! + @ @ @ > $ > $ > > ",
"          .   .   . @ > & ; , , , { { * , = ) , = ( _ :   . / ] = = % & ^ % % % { ' @   @ > , ' ! ~ @ $ > > . . . . .   .   . ",
"  .   .     .   . . # > = % , = * ) , = , * { , * < [ } |   1 2 3 & % - * = , = * ] .   . . . . . . . . . . .                 ",
". . . . . . . . . . $ $ , ; = * = { * ) , ) , = , # 4 5 6 7 8 9 0 - = a b , * , , # .   .     .     .     .   / / . . . . . . ",
"@ $ . . . . . .   . @ > ] ; * = { , = { = * = * = # c d e f g h ^ = i j k , = * = @ .   . > + @ + +   > $ > > $ > > > > > > > ",
"{ { , { , { , { {     + > ; - { , * { { ] , , , , ' + l m n o p q * r s t * = , , # .   . ' = & % + > @ ) { { , { { { , { { { ",
"% ; % % ; % - = ] /   + > , - , = , ) , , * = , ' , ' u v w x y z A B C D = , = * + .   . = % ; =   > ) ; % & & & % & & & % & ",
"= { , = , = = ' ] .   @ > ] { = * = = * = ] , ' @ E F G H I J K L M N O < ] ' @ + @ .   . % ; = *   $ { % % - - = - - - = - - ",
"= , { , = * , ' ] .   > @ > { , ] ] ' ] @ @ ] # ] P Q   R S T U V W X Y . . . . . . .   ~ & = , ,   > { & = = { = , = , { * { ",
"= , , = * = = ' + .   > @ > ! @ + @ + > > > .         Z `  ...+.@.#.$.%.                ~ & = = *   $ { % = , { * { , { ] * , ",
"= , = , = * , ] # .   > @ >   .   .                 &.*.=.-.;.>.,.'.).!.      .     .   , & = = ,   > , ; * = { = , = , { * { ",
", = ] ) , , = ' + .   . # + $ .                 # $ ~.{.].^./.(._.:.<.= , , , ) +   / ! - & = * )   $ * ; = * { , { * { ) ) , ",
", * * ) , = * ! > .   . * & & & % ; = = , ~ . $ ! ) [.}.|.1.2.3.4.5.6.& & & ; { !   . ) & ; { = ]   > * - = { , = * = , ) ) , ",
", , = = * , , ~ $ .   . % ; = , { { = , { . # $ ) % 7.8.9.0.a.b.c.d.e.- ; - ; ' +   . , & = { , '   $ ' ; * = , , { , * = , = ",
"{ = * , = * ] @ . .   . & { , { = = , { =   @ $ { & f.g.h.i.j.k.l.m.{ = { , * ! >   . , ^ = * = +   $ > , ] ~ + @ @ ! ! ' ) , ",
"! ~ ! ~ ! @ > . . .   . % = = = * = , = ~   $ > { ^ n.o.p.q.r.s.t.u.* , = * = + >   . * ^ = = , +   @   . . > > > > $ > > @ + ",
"@ $ > . . .           . & * = , = = , ) ~   $ > { ^ * v.w.x.y.z.A.B., = , , , # $   . , ^ * = , #   + .                   . . ",
"              .   $ $ > & = { * = , = ) ~   . > { ^ , C.D.E.F.G.H.I., * , = , # $   . * ^ = = * +   + . . . . . . .   .       ",
"> ! ! ' , { , * , , >   & = ] { , = * * ! .   > , ^ = J.K.L.M.N.O.P.= ) , * = @ >   . , ^ , = = #   + > / > # @ # + @ @ + . . ",
"! , - & % & % % ; = ]   & = = * ) , = * ! .   > , & Q.R.S.T.M.U.V.W., ) , = * + .   . , % , , = #   $ = & % - , ~ + > > $ > > ",
"! = % ; ; - = = { = /   ^ , { = ) , = { ' >   $ ) % e.X.Y.Z.`. +.+++= , = * * # .   . , & = , , @   $ & * , - & & % & & & , . ",
"! & - = = * = , = * ]   ^ { = , = = * = ' $   . # ; @+#+$+%+&+*+=+-+) ) , = ' + .   / , % , = , #   $ & , * = = * , = , * * . ",
"! % - { * = , = * = ]   ^ { * { = , = * ! @     + = ^ ;+>+,+'+)+!+, ) ) = * ] > .   $ , % = = * +   > & = = * , = = * = , ~ . ",
"! & = , = , = = ) = #   & = = = , , , = ! #   . # , ^ - ~+{+]+^+/+{ * = , = ~ >   . / , % { , = #   $ ; = , = = * , = , = ~ . ",
"! & = = , , { { = * +   & - ) { ) = = { ~ +     $ ' % - ~+(+_+:+<+, { , , , ~ .     $ , % , = # +   $ ; = { = , = * , = { + . ",
"! % - , = = , = * = @   ; & * { = , , , ~ +     $ @ - & [+}+|+1+2+, = * , ! @ .   . > ) = ) # . . . / = = , = { , = , * = + . ",
"! & - = { , = , = , #   - & ) = * , , = ' +     . # , - 3+4+|+5+6+@ > $ . . . .   . / + . . . . / >   ] # > @ + @ + @ @ + @ . ",
"! & = , = = * = ) = @   { % { ) = = * , ' +     . @ > , 7+8+9+0+a+                . > # > > # @ + @ +                         ",
"! % - , * { = , = * +   ) & = { = * , = ! #       # > . b+c+d+e+f+  .   .     .   . > @ + > > $ > > > $ > > . . . . . . . . . ",
"! & - = = * { = , = @   + ^ , { , , = * ! @     . > > > g+h+i+j+k+$ > $ / # $ > $ > > + @ ) ) ) ) ) ) ) ) ) ) ) ) ) ) ) ) ] . ",
"! & = , , = * = , ' +   > ^ = , * ) , = ' +       / ! ) l+m+n+o+) ) ) ) ) ) ) ) , , , { = - = ; - ; - ; - - ; - ; - ; - ; ) . ",
"! ; - = = , = , = #     # ^ { , = , , * ! + .     . ) ; p+q+r+s+- ; ; - ; - ; - ; - % & & ^ ^ ^ ^ ^ ^ ^ ^ ^ ^ ^ % & % % , !   ",
"! % - , = , = = * +   . / ^ , = ) { * = ! # .       ) ; t+u+v+w+^ ^ & & ^ ^ & ^ ^ ^ ^ ^ & & % % - - - ; - = - ; - - ; - ) +   ",
"! - - = , = * , , #   . > & = = * = , , ~ + .       ) ; t+x+y+z+; - ; = - ; = - ; - - = = { { , , = , = * , , = * = , = ' + . ",
"$ ; * , = * ] ' ] @   . > % * , = * = , ' + .       ! - A+x+B+C+* , , , = * = = , , { = = = , ) { * = = { * = , = = { , ' @   ",
"> - = = { , + @ @     / > - = * , = , * ] @ .       > ; A+x+D+E+, = , { , { = * , { = = * { , { , , ) * { { , = * = , = ' + . ",
"> ) ) ) + @ + @ @   . . / { { = * , , ' ! @ .         - A+F+G+H+* , , , ) , * = , { * = { ) * , = * , = , ) ] , ) { , , ] @   ",
"> .       + @ @ +   . / $ ) ! ~ ! ! ~ ! @ @ .       . = I+F+J+K+= , = * , = , ) ) { { * = , = , , = * , ) , , * = , ] * ' +   ",
"@ + @ > .         . . / . . . . . . . . . . .         , I+L+M+N+, = * = ) , * { ) { , { ) = * , ) , , , * = , ) , , * ) ' +   ",
"> $ > > > $ > .     . $ . .                         . * O+P+Q+R+S+] ] ' = , = = * , ) * , , ) , , = * = , , = * , , , { ' +   ",
"> ) = = = = , , ! $ $ @ . .     .     .     .   .   . @ > . .   .   .   + ] ' ) , ) ) ) ) ) ) ) ) ) ) ) ) ) ) ) ) ) ) ) ! #   ",
"> = ; % & % & & - = = , ' ~ + $ . . . . . . . . . . / + > > . . . . . .   $ @ @ + @ + @ + @ + @ @ @ + @ + @ @ + @ + @ @ @   . ",
"> = % = = , - % & & & - = = = = = = = { , , * ) ) ' ! ! # + > > > / > . .   .   .   .   .   .   .                           . ",
"> = & = = = - = , = - & & & % & % & % & & & & ; % ; - = = = = = * $ @ > . . . . . . . . .     .   .   .   .   .   .   . . . > ",
"> = & = * = ) ) = { , ) = * = , = , = = * = , = = = ; % & % % - * . > # $ > > . . .   . . . . . . . . . . . . . . . . . / > $ ",
"> = ; = = = , = , , , { = * , = ) ] , = ) , * , = * = , = = = ) !   . # $ = % & { ) $ $ > @ @ @ > > / > > > / > > / > > # + @ ",
"> = ; = * = ) ) { = * = = { * ) = ) , ) { * = , = , = * = = { ! @   . > > & = = & & & % - @ @ $ - & & % & & & % % ; = { ) $ > ",
"> = * ! ~ ! ~ ! ~ ! ! ~ ! ~ ! ! ~ ! ~ ! ~ ! ! ~ ! ~ ! ~ ! ~ ! + @ .   . > % - = - = - - - ~ + ) & { = = , = * = { = , = % {   ",
"> , ! . . . . . . . . . . . . . . . . . . . . . . . . . . . . . . .     $ - = - - { ~ { * ! > - = , = * = = = * = , = * = @   ",
"> .                                                                     # . > . # ! ~ ! ! ~ $ & { { { = = , { = { { = , , #   ",
"@ $ . . .   .     .     .     .   .     .     .     .     .     .   .   / # + . .           . @ + @ @ @ @ @ + # @ + @ + # +   ",
"@ + # @ > > > $ $ > $ $ . . . . . . . . . . . . . . . . . . . . . . . . . # + # @ . . . . . . # @                             "};
