/* XPM */
static char * torch2_wall_1_xpm[] = {
"63 63 261 2",
"  	c #7C7C7C",
". 	c #483818",
"+ 	c #543C1C",
"@ 	c #5C4020",
"# 	c #744C28",
"$ 	c #403018",
"% 	c #545454",
"& 	c #646464",
"* 	c #707070",
"= 	c #2C2C2C",
"- 	c #484848",
"; 	c #4C4C4C",
"> 	c #5C5C5C",
", 	c #6C4824",
"' 	c #382C14",
") 	c #8C8C8C",
"! 	c #A8A8A8",
"~ 	c #989898",
"{ 	c #404040",
"] 	c #383838",
"^ 	c #6D481C",
"/ 	c #D8812C",
"( 	c #8F5A20",
"_ 	c #61421A",
": 	c #CE7B2A",
"< 	c #E4872E",
"[ 	c #8D581F",
"} 	c #5A401A",
"| 	c #A76624",
"1 	c #6F491C",
"2 	c #9A5F22",
"3 	c #ED9035",
"4 	c #F0963F",
"5 	c #D37F2C",
"6 	c #C67729",
"7 	c #C57628",
"8 	c #4D3A18",
"9 	c #67451B",
"0 	c #503B19",
"a 	c #CA7A2B",
"b 	c #F19841",
"c 	c #F49B43",
"d 	c #F29337",
"e 	c #BC7127",
"f 	c #C27528",
"g 	c #754C1C",
"h 	c #7E501D",
"i 	c #EB9038",
"j 	c #F19942",
"k 	c #E3882E",
"l 	c #70491C",
"m 	c #493419",
"n 	c #965D21",
"o 	c #E7892E",
"p 	c #6F461C",
"q 	c #7C4F1D",
"r 	c #E78A2E",
"s 	c #EF953D",
"t 	c #DC832C",
"u 	c #6A471B",
"v 	c #A76522",
"w 	c #4E3516",
"x 	c #A46423",
"y 	c #4B3918",
"z 	c #543D19",
"A 	c #CE7B29",
"B 	c #E7892D",
"C 	c #A26322",
"D 	c #81521E",
"E 	c #CA7929",
"F 	c #9C5F23",
"G 	c #E98E36",
"H 	c #CC7A2A",
"I 	c #573A17",
"J 	c #A06222",
"K 	c #985D21",
"L 	c #784E1D",
"M 	c #B96F26",
"N 	c #EF8E30",
"O 	c #EC8D30",
"P 	c #F2963C",
"Q 	c #A06022",
"R 	c #343434",
"S 	c #4C3A18",
"T 	c #69481D",
"U 	c #C47829",
"V 	c #C27729",
"W 	c #E88D2F",
"X 	c #F19334",
"Y 	c #F09236",
"Z 	c #EB8C2E",
"` 	c #9C6743",
" .	c #7D521D",
"..	c #E9912F",
"+.	c #F1962E",
"@.	c #ED932C",
"#.	c #F29A38",
"$.	c #F6A146",
"%.	c #EE963A",
"&.	c #BB753D",
"*.	c #6C6663",
"=.	c #4D3A19",
"-.	c #BB7326",
";.	c #F29A37",
">.	c #F59F3B",
",.	c #F59D37",
"'.	c #F7A23F",
").	c #F6A041",
"!.	c #E28C36",
"~.	c #836A5E",
"{.	c #4E3B1A",
"].	c #CB7F2B",
"^.	c #F09D39",
"/.	c #F6A540",
"(.	c #F7A540",
"_.	c #F3A33F",
":.	c #DA9037",
"<.	c #916542",
"[.	c #525251",
"}.	c #45341A",
"|.	c #9F6D26",
"1.	c #BB812D",
"2.	c #DD9538",
"3.	c #E19839",
"4.	c #C1862E",
"5.	c #A47634",
"6.	c #57514B",
"7.	c #3D3017",
"8.	c #896124",
"9.	c #9D7027",
"0.	c #A67627",
"a.	c #A97827",
"b.	c #A27427",
"c.	c #886432",
"d.	c #4D4946",
"e.	c #40403F",
"f.	c #594932",
"g.	c #77551D",
"h.	c #8C6422",
"i.	c #916825",
"j.	c #805C20",
"k.	c #5E4724",
"l.	c #423E38",
"m.	c #706C68",
"n.	c #5F441D",
"o.	c #664818",
"p.	c #72511C",
"q.	c #70501B",
"r.	c #60461D",
"s.	c #443E34",
"t.	c #6B6967",
"u.	c #57401C",
"v.	c #674919",
"w.	c #694B18",
"x.	c #6C4D1A",
"y.	c #5E451B",
"z.	c #453D34",
"A.	c #303030",
"B.	c #524F4B",
"C.	c #59421E",
"D.	c #6C4D19",
"E.	c #684A19",
"F.	c #6D4E1B",
"G.	c #59431E",
"H.	c #48433A",
"I.	c #514A42",
"J.	c #5D4219",
"K.	c #6C4E19",
"L.	c #6D4D1B",
"M.	c #533F1F",
"N.	c #433D34",
"O.	c #4B4339",
"P.	c #5C421A",
"Q.	c #624518",
"R.	c #6C4C1B",
"S.	c #60451D",
"T.	c #473A20",
"U.	c #4A433B",
"V.	c #573E18",
"W.	c #5F4318",
"X.	c #64471A",
"Y.	c #66481B",
"Z.	c #4D3F2B",
"`.	c #413F3D",
" +	c #494745",
".+	c #534333",
"++	c #593F17",
"@+	c #5F4418",
"#+	c #5F431A",
"$+	c #484038",
"%+	c #544A41",
"&+	c #563D18",
"*+	c #5C4119",
"=+	c #56422C",
"-+	c #41403F",
";+	c #80502C",
">+	c #554B41",
",+	c #664A1A",
"'+	c #5A4019",
")+	c #5A4324",
"!+	c #46403C",
"~+	c #514841",
"{+	c #553D17",
"]+	c #5E431B",
"^+	c #494139",
"/+	c #4F4741",
"(+	c #503918",
"_+	c #5B401A",
":+	c #463F39",
"<+	c #503919",
"[+	c #583F1B",
"}+	c #543F27",
"|+	c #423F3D",
"1+	c #4E4741",
"2+	c #4A3517",
"3+	c #533B19",
"4+	c #594120",
"5+	c #47403A",
"6+	c #4F4A45",
"7+	c #463420",
"8+	c #553B1A",
"9+	c #4F3D2A",
"0+	c #41403E",
"a+	c #34302C",
"b+	c #443627",
"c+	c #573D1B",
"d+	c #4F3F2F",
"e+	c #31302F",
"f+	c #423427",
"g+	c #583D1B",
"h+	c #544434",
"i+	c #535353",
"j+	c #413325",
"k+	c #583E1B",
"l+	c #564534",
"m+	c #202020",
"n+	c #403123",
"o+	c #4D3B28",
"p+	c #8A8A8A",
"q+	c #4C4136",
"r+	c #523B1C",
"s+	c #443628",
"t+	c #5E564F",
"u+	c #533E26",
"v+	c #37322E",
"w+	c #473B30",
"x+	c #594633",
"y+	c #545250",
"z+	c #453118",
"A+	c #523D24",
"B+	c #797776",
"C+	c #433118",
"D+	c #503A1B",
"E+	c #443219",
"F+	c #463618",
"G+	c #433117",
"H+	c #4C361A",
"I+	c #4A351A",
"J+	c #493818",
"K+	c #282828",
"L+	c #1C1C1C",
"      . + @ @ # @ @ @ @ @ @ @ @ @ @ @ @ @ @ + $ . @ @ @ @ + + . % &     * * * * = = = = = = = - & * % & % % ; ; ; ; % > > & * ",
"  * * % . + @ # @ @ @ @ @ @ @ + @ @ @ @ @ @ + $ . @ @ @ + . . % &     *   *     - = = = = = - & * % & % ; ; % % > & & & & & & ",
"* * * & % . + , @ @ @ @ @ @ @ @ + + @ @ @ @ + $ . @ + + . - % & & - @ @ @ @ - & & - = = = - & * % & % ; % > & & & & & & & & & ",
"% *   * & % . , @ @ @ @ @ @ @ @ + + @ @ @ @ . $ . + . . % &   - @ @ . . $ . $ . & & - - - & * % & & & & & & > % % ; ; ; ; ; ; ",
"; % * *   & . , @ @ @ @ @ @ @ @ @ @ @ @ @ + . $ . . % &     - @ . . . . $ . $ . -   & & & * % & > > > > > > > > > > > > > > > ",
"; ; % * * * . + @ @ @ @ @ + @ @ @ @ @ @ + $ $ . % &     & @ @ . . . . . $ . $ $ ' & ) ! * % & % ; ; ; ; ; ; ; ; ; ; ; ; ; ; ; ",
"; ; ; % *   % . + @ @ @ @ @ @ @ @ @ @ + $ $ - % &     - @ . . . . . . . $ $ . ' ' & !   % & % ; ; ; ; ; - ; ; ; ; ; ; ; ; ; ; ",
"; ; ; ; % *   % . + @ @ @ @ @ @ @ + + $ . % & &   & @ @ . . . . . . . . $ $ . ' ' & ~   & % ; ; ; ; ; ; ; ; ; ; ; ; ; ; ; ; ; ",
"; ; ; ; - %   & % . + @ @ @ @ + + $ $ % & &     - @ + . . . . . . $ . . $ ' . ' ' & ~ & % ; ; ; ; - ; ; ; ; ; ; ; ; ; - ; ; ; ",
"; ; ; ; - -     & % . + + + + $ $ % &       & @ @ + . . . . . . . $ . . $ ' $ ' ' & ) & % ; ; ; - ; ; ; ; ; ; ; ; ; ; ; ; ; ; ",
"; ; ; ; - -   *   & % $ $ $ $ - % &     & - @ + + . . . . . . . . . . . . ' $ ' { & ) & > ; - ; ; ; - ; ; ; ; ; ; ; ; ; ; ; ; ",
"; ; ; ; - - * *     & % % % % % &     & @ @ + . . . + . . . . . . ' . . . ' ' ' ; *   & > ; ; ; - ; ; ; ; ; ; - - ; ; ; ; ; ; ",
"; ; ; ; - ] * * & % % % & * ~ ~ ) * & @ + + . + + ^ / ( . . . . . ' . . . ' ' ' % * ) & % ; ; ; ; ; ; ; ; ; ; - - ; - - - - ; ",
"; ; ; - ] &   & % % % % - & ~ ) ) & @ . + + . + + _ : < [ . } | 1 ' . . . ' ' ' & *   & % ; ; ; ; ; ; ; ; ; ; ; ; ; - - - - ; ",
"; ; - ] &   * % % % % % - - * )   @ + . @ . . . . . 2 3 4 5 6 7 8 ' . 9 0 ' ' { &     & % ; ; ; ; ; ; ; ; ; ; ; ; ; - - - - ; ",
"; - ] &     & % % % % % - - - & % @ . @ + . . . . . 8 a b c d e $ ' 8 f g ' ' ; *     & % ; ; ; ; ; ; ; ; ; ; ; ; ; - - - - ; ",
"- ] &     * & % % % % % { ; % - & @ . @ . . + . . . . h i j k l m ' n o p ' ' %       % ; ; ; ; ; ; ; ; ; ; ; ; ; ; ; ; ; ; - ",
"] & & - - & * % % % % ; { % % & & @ . + . . . . . . . q r s t u v w x r p ' ' & , @ & % ; ; ; ; ; ; ; ; - ; ; ; ; ; ; ; ; - ] ",
"& & - + + - & & % % % { { % % % * @ + + . . . . . y z 9 A B C D E F G H I $ > , @ @ % & { ; ; ; ; ; ; ; ; ; ; ; ; ; ; - { ] { ",
"& - + @ . + -   - % { { { % % % & & + + . . . . . 9 J . K 2 L M N O P Q $ & , @ @ @ . & & { - ; ; ; ; ; ; ; ; ; - { ] R R ] { ",
"- + @ . . . $ & * - { % { % % % -   - + . . . . . . . S T U V W X Y Z ` &   . . . . . * * & { { { - - - - - { { ] R ] { ] % & ",
"+ @ . . . . $ -   & - % { % % % - * & $ . . . . . . .  ...+.@.#.$.%.&.*.      & & & & ) ) & & { ] R R R R R R R ] { { ] % &   ",
"@ . . . . . $ $ & * - % { % % % ] &   - . . . . . . =.-.;.>.,.'.).!.~.% % % % % % %   ) ~ ~ * & % ] { { { { { { { { ] % &   - ",
". . . + . . $ . &   & - { % % ; ] &   & $ . . . . . {.].^./.(._.:.<.[.- { ] { { { { %   ~ ~ )   & % ] { { { { { ] ] % &   - + ",
". . . . . . $ . -     & { % ; - ] &     - ' $ . . . }.|.1.2.3.4.5.6.- { { ] ] { { { { %   ) ) *   & % ] ] ] ] ] ] % &   & + @ ",
". . . . . . $ . $ &   * ] - - - ] * *   & ' ' ' ' ' 7.8.9.0.a.b.c.d.{ { { ] { ] { { ] { *   * % %   & % ] ] ] ] % &   & - @ . ",
". + + . . . ' . $ % *   & ] ] ] *         - ' ' ' ' e.f.g.h.i.j.k.l.- - { ] { ] { { ] - & * & - - %   & % % % % &   & - + . . ",
". + + . . . ' . $ -   ) * & & *   % , , % & - - ; > > m.n.o.p.q.r.s.- - { ] { { ] { R % & * % - - - %       ) )   * - + . . . ",
". . . + . . ' . $ -   * ) * * & , , @ @ @ @ & & & *   t.u.v.w.x.y.z.{ { { R { { ] ] A.% & & - - - - - &   ) )   * & + . . . . ",
". . . . . $ ' . $ -   * * * * , @ @ @ @ @ @ +     * * B.C.D.E.F.G.H.{ { { R { { ] ] - & * % % - - - - % & * * & > % + . . + + ",
". . . . . $ $ . $ % * ) * * * & @ @ @ @ @ @ .   *   % I.J.K.E.L.M.N.{ { { R { { ] R % *     & & & & & & &   * > % > + . . + + ",
". . . . . ' $ $ $ %     & % &     @ @ @ + . .     % % O.P.Q.R.S.T.N.{ { { R { { ] A.& % # # # # # # # # # . @ # > & + . . + + ",
". . . . $ ' . $ - &   & % > % &     + + . . &   % % - U.V.W.X.Y.Z.`.{ { { A.{ { R % * , , , @ @ @ @ @ @ @ . @ @ @   + . . . . ",
". . . . $ ' $ - & & & % > % % % &     & % %   & % - {  +.+++@+#+$+{ { { ] A.{ ] A.% & , @ , @ @ @ @ @ @ @ . @ @ + & + . . + . ",
". . . . ' $ - & &   % > % % % % % &   )   )   % - { { - %+&+*+=+-+{ { { ] A.{ ] A.& % ;+@ , @ @ + @ @ @ @ . @ @ + & + . . . . ",
". . . $ ' - & & * & % > % % % % % % &   ) ) ) % { { { - >+,+'+)+!+{ { { R A.{ A.& * - ;+@ , @ @ @ @ @ @ @ . @ @ + & $ . . . . ",
". . . ' - & &     % > % % % % % % % % & ) ~ ~ % { { { - ~+{+} ]+^+{ { { R A.] - * * , ;+@ , @ @ @ @ @ @ @ . @ @ + & - $ . . . ",
". . $ - & & *   & % > % % % % % % % % % & ~ ~ & { { { - /+(+} _+:+{ { { A.A.R %   & , ;+@ , @ @ @ @ @ @ @ + @ @ + & & - $ . . ",
". $ - & & *   & % > % % > % % % % % - % % & ) * ] { { - /+<+[+}+|+{ { { A.A.A.&   % , ;+@ @ @ @ @ @ @ @ + + @ @ + &   & - $ . ",
"$ - & &     * & % % % % % % % % % % % - % % ) ) % ] ] - 1+2+3+4+5+{ { { A.A.- * * , @ ;+@ , @ @ @ @ @ @ + @ @ @ . &     & - $ ",
"- & & ) )   & % % % % % > % % % % % % { % % & * * A.] ] 6+7+8+9+0+{ { { A.A.%   & , @ ;+, @ @ @ @ @ @ @ + @ @ @ . &       & - ",
"& & ~ ~ ) & % % % % % % > % % % % % % { - % % & & - A.R a+b+c+d+{ { { { A.A.%   % , @ ;+# @ @ @ @ @ @ + @ @ @ @ . & = = ] % & ",
"&   ~ ~ * % % % % > > % % % % > % % % - { % % % & % - A.e+f+g+h+{ { { ] A.- & * , @ @ # ;+@ @ @ @ @ @ + @ @ @ @ . & = = = = ] ",
"= - ) ) & % % % > > > % % % % % % % % - { % % % % - % & i+j+k+l+{ { { ] A.% *   , @ @ , ;+@ @ @ @ @ + @ @ @ @ @ . & = = = = m+",
"= m+-   % % % % > > > % % % % % % - % - { - % % % - & & i+n++ o+] { { ] A.&     + @ @ @ # @ @ @ @ @ @ @ @ + @ @ . & = = = = m+",
"= m+- * % % % % > > % % % % % % % % % - { - % % - ] & ) p+q+r+s+R { { R - * * * & + @ @ , , @ @ @ @ @ @ @ @ @ @ . & = = = = m+",
"m+- & & % % % % % % % > % % % % % - % - { - % - ] -   ) p+t+u+v+R ] ] A.%   * *   & + @ @ , @ @ @ @ @ + + @ @ + . & = = = m+= ",
"- & & & - % % > > % % % % % % % % - % - R - - ] - %   - . w+x+y+A.A.A.A.*   & ] ] & & + + @ , @ @ @ @ + + @ + . - & = = = m+= ",
"& * * * & - % > > % % % % % % % % - % - R { ] - % & - + . z+A+B+& % % &   & ] = = ] & * & + @ @ @ @ @ @ @ + . - & & m+m+m+m+m+",
"    * *   & - - % % % % % % % % % - % { R ] - % & - + . . C+D+E+-       & ] = = = = ] & * & + + @ @ @ @ + . - & *     - - - - ",
"  *   ) ) ) & - - % % % % % % % - - % { R - % & - + . . F+G+H+I+J+-     - ] = = = = = ] & * * % + + + . . - & % % % % % % &   ",
"  % , , % ) ) & - ] % % % % % % - - - R - % & - + . . . . $ . $ . $   & ] K+= = = K+K+= ] &   * % + . - - & & % % % % % % - & ",
", , @ @ , , %   & - ] - % % % - - - ] - % & - + . . . . . $ . $ . $   ] = = K+= = K+K+= = ] &   * % - - &   % % % ; % % % - & ",
"@ @ @ @ @ @ , , % & - ] - % - - ] ] - & - - + . . . . $ . $ . $ $ - & ] = = = m+K+= = = = = ] &   * & & ) & ; ; % % % % ; - & ",
"@ + @ @ @ @ @ @ , . & - ] - - ] - % & - + @ + . . . . . . $ $ $ - & ] = = = = = m+m+= K+= = = ] &   * ) ) % ; ; % % % % ; - & ",
"@ @ @ @ @ @ @ + @ . @ @ - ] ] - % & - + @ + . . . . . $ . $ $ $ % ] ] = = = = = K+m+m+K+= = = = ] &   ) & % % % % % % ; - - & ",
"@ @ + + @ @ @ + @ . @ @ + - - % & - + + @ + . . . . . $ . $ $ - & ] = = K+K+= = = K+m+m+K+= = = = ] &   % % % % % % % - - % , ",
"@ @ + + @ @ @ + @ . + . . % % & - + . + @ . . . . . . $ . $ - & - ] = = K+K+K+= = K+m+m+m+K+= = = = ] &   % % % % % - ; - & , ",
"@ @ @ @ @ @ + . + $ . . % & & - + . . + @ . + . . . . $ $ $ % & ] ] = = K+K+= K+= = m+m+m+m+K+= = = = ] & & % % % ; - - % , @ ",
"@ @ @ @ @ @ + . . $ . %       - . . . + @ . . . . . . $ $ - & ] = ] = = = = = = = = K+m+m+K+m+K+= = = = ] & ; ; ; - ; - % , @ ",
"@ @ @ @ @ @ + . $ $ %         % . . . + @ . . . . . . $ - & - ] = ] = = = = = = = = K+m+m+m+K+m+K+= = = = m+& ; - % % - , @ @ ",
"@ @ @ @ @ @ . $ $ %   % { %   & - . . + @ . . . . . . $ % & ] = = ] = = = = K+K+= = = K+m+L+K+K+m+K+= = = m+% & % % ; & , @ @ ",
"@ @ @ @ @ + . $ %   % { { { %   % . . + @ . . . . . $ - & ] = = = ] = = = = K+K+= = = K+m+L+m+= m+m+K+= = m+%   ; ; & , @ @ @ "};
