/* XPM */
static char * torch3_wall4_xpm[] = {
"63 63 263 2",
"  	c #383838",
". 	c #545454",
"+ 	c #484848",
"@ 	c #EC0000",
"# 	c #D40000",
"$ 	c #A40000",
"% 	c #E00000",
"& 	c #C80000",
"* 	c #BC0000",
"= 	c #B00000",
"- 	c #880000",
"; 	c #640000",
"> 	c #2C2C2C",
", 	c #7C0000",
"' 	c #980000",
") 	c #700000",
"! 	c #580000",
"~ 	c #400000",
"{ 	c #4C0000",
"] 	c #202020",
"^ 	c #B06C34",
"/ 	c #D27F36",
"( 	c #644F43",
"_ 	c #645146",
": 	c #694A37",
"< 	c #5C5C5C",
"[ 	c #646464",
"} 	c #404040",
"| 	c #D84214",
"1 	c #F09B39",
"2 	c #D55017",
"3 	c #D44D16",
"4 	c #DA5F1D",
"5 	c #813B0C",
"6 	c #E7902D",
"7 	c #CE5017",
"8 	c #AC4C16",
"9 	c #E37325",
"0 	c #9E1E05",
"a 	c #AE300A",
"b 	c #C56921",
"c 	c #AA2306",
"d 	c #BC4C16",
"e 	c #E8882D",
"f 	c #8D4011",
"g 	c #9F3C0F",
"h 	c #C05318",
"i 	c #BF651F",
"j 	c #A60E02",
"k 	c #A05117",
"l 	c #AC4D16",
"m 	c #922406",
"n 	c #CC7225",
"o 	c #EF8E30",
"p 	c #C76A21",
"q 	c #A25318",
"r 	c #A92005",
"s 	c #C86A21",
"t 	c #801002",
"u 	c #8A0A01",
"v 	c #B1390E",
"w 	c #B6631F",
"x 	c #F3963D",
"y 	c #E78B39",
"z 	c #7E300A",
"A 	c #B25519",
"B 	c #AC2908",
"C 	c #C56A21",
"D 	c #8B1002",
"E 	c #650300",
"F 	c #962E0A",
"G 	c #B46521",
"H 	c #F29840",
"I 	c #BE6A24",
"J 	c #691002",
"K 	c #AE2E0A",
"L 	c #C76921",
"M 	c #D37726",
"N 	c #5E1002",
"O 	c #942908",
"P 	c #D27A29",
"Q 	c #F2983E",
"R 	c #BA5F1C",
"S 	c #5E1102",
"T 	c #DC802D",
"U 	c #EF9035",
"V 	c #B9631E",
"W 	c #990701",
"X 	c #8D4211",
"Y 	c #F19639",
"Z 	c #F49C42",
"` 	c #BB6D23",
" .	c #B6651F",
"..	c #EE9034",
"+.	c #EB9038",
"@.	c #823C0F",
"#.	c #343434",
"$.	c #352F2C",
"%.	c #B26D2D",
"&.	c #F39A3B",
"*.	c #F59E41",
"=.	c #EF922E",
"-.	c #EF9535",
";.	c #EC9032",
">.	c #C5762D",
",.	c #513A2C",
"'.	c #4A4340",
").	c #D28436",
"!.	c #F7A144",
"~.	c #F6A041",
"{.	c #F49834",
"].	c #F6A042",
"^.	c #EA9237",
"/.	c #955F35",
"(.	c #BD0F01",
"_.	c #E0802D",
":.	c #F7A244",
"<.	c #F7A344",
"[.	c #F7A141",
"}.	c #F59E3F",
"|.	c #E57D2A",
"1.	c #D41803",
"2.	c #944011",
"3.	c #E08930",
"4.	c #F29F43",
"5.	c #F6A244",
"6.	c #B36B2B",
"7.	c #711003",
"8.	c #CA5A1B",
"9.	c #C67F2D",
"0.	c #B77E2F",
"a.	c #DB933B",
"b.	c #DF953C",
"c.	c #B97F31",
"d.	c #AC6926",
"e.	c #981603",
"f.	c #8C380E",
"g.	c #946125",
"h.	c #976B28",
"i.	c #A07228",
"j.	c #A47528",
"k.	c #986D28",
"l.	c #965821",
"m.	c #7C1304",
"n.	c #51270B",
"o.	c #72511F",
"p.	c #8E6525",
"q.	c #966B28",
"r.	c #866023",
"s.	c #63441D",
"t.	c #951A0B",
"u.	c #461904",
"v.	c #5E4317",
"w.	c #70501C",
"x.	c #76551E",
"y.	c #71501B",
"z.	c #69481D",
"A.	c #652611",
"B.	c #431304",
"C.	c #553E1C",
"D.	c #644719",
"E.	c #654818",
"F.	c #6A4C1A",
"G.	c #674519",
"H.	c #66230F",
"I.	c #410902",
"J.	c #4F3C21",
"K.	c #6A4C19",
"L.	c #674A19",
"M.	c #6C4D1B",
"N.	c #633312",
"O.	c #630A03",
"P.	c #373029",
"Q.	c #573D18",
"R.	c #684B19",
"S.	c #634719",
"T.	c #694B1F",
"U.	c #423529",
"V.	c #3F3934",
"W.	c #563E19",
"X.	c #5C4118",
"Y.	c #67491B",
"Z.	c #5E4931",
"`.	c #494847",
" +	c #AE1505",
".+	c #583A16",
"++	c #583F18",
"@+	c #5F4319",
"#+	c #734218",
"$+	c #B01C06",
"%+	c #9F0902",
"&+	c #652D10",
"*+	c #553D17",
"=+	c #5B4118",
"-+	c #5E4019",
";+	c #611D07",
">+	c #75270D",
",+	c #553C19",
"'+	c #5B4119",
")+	c #703613",
"!+	c #630501",
"~+	c #88280D",
"{+	c #664A1A",
"]+	c #5A4019",
"^+	c #663D18",
"/+	c #9C1706",
"(+	c #86230B",
"_+	c #5A401A",
":+	c #5E431B",
"<+	c #622009",
"[+	c #72220A",
"}+	c #523917",
"|+	c #5B411A",
"1+	c #611D08",
"2+	c #72220B",
"3+	c #533B18",
"4+	c #673916",
"5+	c #621004",
"6+	c #51200B",
"7+	c #4B3517",
"8+	c #533B19",
"9+	c #5C3F1A",
"0+	c #591C08",
"a+	c #35291C",
"b+	c #483416",
"c+	c #563D1A",
"d+	c #4C3821",
"e+	c #302D2B",
"f+	c #3C3631",
"g+	c #45321B",
"h+	c #583E1B",
"i+	c #534334",
"j+	c #4C4C4C",
"k+	c #B80501",
"l+	c #6E2B14",
"m+	c #583D1B",
"n+	c #803013",
"o+	c #7A0401",
"p+	c #512B14",
"q+	c #533214",
"r+	c #A10401",
"s+	c #522C14",
"t+	c #563D1B",
"u+	c #523014",
"v+	c #860401",
"w+	c #5A2B14",
"x+	c #533B1C",
"y+	c #492912",
"z+	c #522B14",
"A+	c #57381A",
"B+	c #431306",
"C+	c #60381A",
"D+	c #431004",
"E+	c #4C0401",
"F+	c #462913",
"G+	c #513719",
"H+	c #441607",
"I+	c #342D26",
"J+	c #422F18",
"K+	c #4C361A",
"L+	c #48351D",
"M+	c #332E29",
"N+	c #303030",
"                                                                                                                              ",
".   . + + + + + . + + + + + + . +   + + + + + + + . . . . . . + + + + + + + + + . . . . . . . + + + +       + + . . + + + + + ",
"  @ @ # # # # # # # # # $ + + . @ @ # # # # # # # # # # # # # # # # # # $ +   . @ @ @ @ % % % % % % # # # # # & & & & * * * $ ",
"+ @ & = = # - $ # - & $ ; > + . @ * - * - * - * , * ' * ' * , * , * & $ ) > +   # $ & = & = = & ) & , & = & - = $ , & ' & $ , ",
"+ # $ , $ - $ ' ) $ - ) ; > + . # * - - $ - ) $ $ ) ' $ $ ) ' $ ) $ ' ) ! > + . # $ $ , ; $ - ) - $ , - $ $ - $ , - $ ! $ ) ; ",
"+ # , $ $ ) ' $ $ ) $ ! ~ > + . # - * $ - $ ) $ - $ ) $ ) - , $ ) ' , ) ! > + + # ) $ ; - $ ; $ ) $ , $ - $ ; $ ' , $ , $ ) { ",
"+ & $ , - ' , $ ) - $ ) ~ > + . * * - $ - - ' $ ) - ) $ - ) ' , - ) $ ) ~ >   + * ) $ , $ - ; $ ) ) $ $ ) $ - $ $ , $ ! $ - { ",
"+ * , $ $ ) $ ' ) ' ) ! ~ > + + * & - $ ) $ ) $ ) $ ) ' - ) , $ ) ' , ) ! >   + * ' $ ; - $ , - ) - , $ - $ ; $ , - $ , $ ) ~ ",
"+ * $ ) - ! ) , ! ) - ) ~ >   . ' ' ) ) { - ) ) - ) { ) - ) - ) { - ) ) ~ >   + * ) ) ! ) ) { - { ) ! - { ) { - ; { ) - ) - ~ ",
"+ , ; ; ; ~ ~ ~ ~ ~ ~ ~ ~ >   + , ; ; ! ! ! ! ! ! ! ! ! ~ ~ ~ ~ ~ ~ ~ ~ ~ >   + - ; ; ; ; ; ; ; ; ; ; ! ! ! ! ! ! ! ! ! ~ ~ ~ ",
"+ + > > > > > > > > ] ] ] >   . + > > > > > ] ] ] ] ] > > ] ] ] ] > > > > > + .   > > > > > > > > > > > ] ] ] ] ] > > > > > > ",
".         + + + +           +   + + + + + + +     ^ / ( + _ :   + + + + + + .   + . . . . < [ [ < . . + + }   } .   . + + + . ",
"@ # # # * * * * * * * * * * * $ + . + @ @ # # # # | 1 2 & 3 4 & & & * * * * * * * * * * * * * * * * * * $ + } . @ @ # # # # # ",
"= - - = ' , = , ' - = ; = - $ ~   + . @ ) = & , * 5 6 7 - 8 9 0 $ - , - $ - $ - $ , & ; & - ' * & ' & $ ~   +   @ & , = - = - ",
"- $ - $ , - - ; $ - ; - $ $ ) ~ > + + # = ) $ , $ a b c ; d e f g h i j , $ ; $ $ - ; $ - $ ) - $ ) $ ) ~   + . & = , $ - , $ ",
") $ $ - ' ; $ , - - ' ; $ - ) ~ >   + # ) $ - ' - - k l m n o p q r s t ; , - - $ ! - , $ ) $ ) $ $ ) ) ~ > } + & , $ $ $ , $ ",
"$ - - $ - , , - , $ ' ; $ ; ) ~ >   + # ) $ $ , $ ; u v w x y z A B C D , $ ; $ - ! $ ; $ ) - ) $ ) $ ) ~ >   + & = , $ , $ ' ",
") $ ; $ ) - , ' ; $ ; - $ $ ) ~ > + . # = ! $ , $ - E F G H I J K L M N , $ ; - ! - $ ; - $ ) - $ ) $ ) ~ ]   + = , $ $ ! $ , ",
") = ; ) { , ) ' ) ' ) ! ' ) ) ~ > + . = $ ) - ! ) ' ) O P Q R S T U V W ; - ) - - ! ' ) ) - { ) ' ) - ) ~ ] } . = $ , ) ! ) ' ",
"~ { { { { { { { { { { { { ~ ~ ~   + . $ ; ; ; ; ; ; ; X Y Z `  ...+.@.! ! ! ! ! ! ! ! ! ! ! ! ! ! ! ! ~ ~ ] +   $ ; ~ ; ~ ~ ; ",
"> > > ] > > > ] ] ] > > > ] ] >   +   +   #.> > > > $.%.&.*.=.-.;.>.,.> ] ] ] ] ] > > > ] ] ] ] > > > > >   + . + > > > > > > ",
". . +     + .   .   + +         + + . + + + }   }   '.).!.~.{.].^./.. + }       } } + + . }     } + + + . + .   . }   } . + + ",
". @ @ # # # # # # # * * * * * * * * * * * * * * * * (._.:.<.[.}.|.1.# # # # # # # # # * * * * * * * * * * * * * * * * * * * $ ",
". @ - = * , * , * , = - = - = & - = - = - * = ; = & 2.3.4.5.<.4.6.7.# $ = - $ = - = ' = , ; $ - ) - $ , - $ ' - $ , - $ ! $ ~ ",
"  @ = - $ ' $ , ) - $ $ - ' - $ - ; $ ) $ - ; - $ ) 8.9.0.a.b.c.d.e.$ ; $ ; - ) ' - ; $ ; - $ ; $ ) $ , $ - $ ; $ ' , $ , ) ~ ",
"+ * ; $ $ ) - ! $ ; $ ) $ - ' $ ; - $ ) - $ - ; , $ f.g.h.i.j.k.l.m.$ , $ ; $ ) ' $ , $ , $ - ; $ ) ) $ ' ) ' - $ $ , $ ! ) ~ ",
"+ * = - $ { $ ! ) - $ - ) , $ , - ; , $ ; $ - ; $ ) ! n.o.p.q.r.s.t.) ' - ; - ' ) $ ; - ; - $ , - ) - , $ - $ ; $ , - $ , ) ~ ",
". * ) ; $ { - , $ ; $ ! $ ; $ - ; - $ - ; $ ; - , , = u.v.w.x.y.z.A.$ ) $ - $ - ) $ ; $ ! ) ) { $ { $ ! $ { $ $ - ; { ) - ) ~ ",
"+ & $ ; ) ) ) ! ) { ) ) - ; - ) ) - ) ) ; ) ' ) ' ) ) B.C.D.E.F.G.H.' ) - ! ) ) ) ) ; - ) - { $ ! ) $ { ) - { $ ! $ { $ ) ) ~ ",
"+ $ ' ; ; ; ; ; ; ; ; ; ; ; ; ; ; { { { { { { { { { ~ I.J.K.L.M.N.O.; ; ; ; ; ; ; ; ; ; ; ; ! ! ! ! ! ! ! ! ! ! ! ! ~ ! , ! ~ ",
"+ +   > > > > > > > > > > > > > > > > >       > > > > P.Q.R.S.T.U.> > > > > > > ] ] ] ] ] >       > ] ] ] > > > > > > > > > > ",
". . . . . + +   +       + . [ [ . . . + + + } }     } V.W.X.Y.Z.`.+ .   . + . + }   }   } + . . + + }   } + + + .   . + + + . ",
"* * * * * * * * * * $ +   . # # # # # # # # * * * * *  +.+++@+#+$+* * * * * * $ + . . & @ # # # # # # # # # * * * * * * * * * ",
"$ = $ = ' & = = & $ ~   +   # $ ; $ ) $ $ ; $ - $ $ ) %+&+*+=+-+;+$ $ ) $ , $ ~   + . # $ , $ ) $ $ ; $ , - , $ ) $ - $ , $ ) ",
"$ , - $ ' $ , $ - ) ~ > + . # ; $ , - $ , $ ' ) $ - - ) >+,+'+)+!+$ ) - $ ; $ ~   . . # $ ! $ ) $ - ; $ - $ , - - ' ) ' , ' - ",
"- , $ ' , $ , ' $ ) ~ > +   # ; $ $ , ' $ ) $ ) $ - $ ! ~+{+]+^+/+- ) ' $ , $ ~   . [ # $ , $ ) $ - $ - $ $ , $ ) ' - $ ' , $ ",
"$ - , $ ' $ ' , - ) ~   + . # ' ; $ , $ , ! ' - - - ) - (+*+_+:+<+- ' ) - $ , ~   . [ # , $ $ ) $ ; $ $ , , $ , $ - ' ' - , ) ",
"$ - , $ , $ , ' $ ) ~   + + # ; $ , ! ' $ ) - - $ - $ ) [+}+|+|+1+$ ' ) $ , $ ~   + . & $ , $ $ ) $ - - , $ , $ ) ' - $ , - $ ",
") ) - ' ) ) ' ) ) ) ~   + + ' ; $ $ ! $ , ) $ ) $ ; $ ! 2+3+|+4+5+' ) ' $ ; , ~ > + . & $ ! $ ) $ $ - $ - $ , $ ) ' ) ' , $ $ ",
"~ ~ { { { { { { { ~ ~ > + + $ ; ; ; ; ; ; ; ; ; ! ! ! ! 6+7+8+9+0+! ! ! ! ! ~ ~ > + + $ ; ; ; ; ; ; ; ; ; ; ; ; ; ; ; ! ! ! ! ",
"> > > > > > > > > > > > + . + > ] ] ] ] > >       > ] ] a+b+c+d+e+> > > > > > >   + + + > > > >     +   > > ] ] ] > > > > > > ",
". + .   +     + +         + +       + + + + + . . + +   f+g+h+i++ + .   +   +   + + . + .   . + . < [ . j++ +   . + . + .   . ",
"  @ # # # # # # # * * * * * * * * * * * * * * * * * * * k+l+m+n+  .   @ @ # # # # # # # # * * * * * * * * * * * * * * * * * $ ",
". # $ - - $ ; $ $ , ' $ , $ ) - $ ; $ , $ - $ ; $ ; $ $ o+p+m+q+  + . @ $ $ ; $ ; $ ! $ ) $ ! $ - ! ' - ) $ - , $ , ' ) - $ ~ ",
"+ # $ ; $ - ; $ - ' , $ ; - ! $ ' ; $ ! - ' - ; $ , $ , r+s+t+u+> + + # - $ ; - ; , ! - ! ' , $ ! $ ; $ ) - ) $ - , ' $ ; - ~ ",
"+ # - ; $ ; - ) ; $ ; $ - , - $ ; ' - - ! , $ { ' ! - ; v+w+x+y+>   + # - $ ; ; - $ , ! $ , ! ' $ ! $ ) ) $ ) $ , $ ) - ; $ ~ ",
"  # $ - $ - ; $ - , ' $ , $ ! - $ ; $ ! - $ ! ' $ , $ $ r+z+A+B+>   + # $ ; $ - ; $ ! $ ) ' , , ! - ; $ , - ' - ' , ) $ - $ ~ ",
". # $ ; - $ ; $ ; $ ; $ ; $ ) $ ; ; $ ! - , $ , - ; ' ; v+z+C+D+]   . # $ ; ; $ ; , ! $ ! $ ! ' ! $ ; - ) $ ) , $ , ' - ; ) ~ ",
"  & $ ; $ ; - ) - ' , $ - - - $ ' ; - , ! ; $ { $ ) ' , r+z+C+D+]   . & ) $ ; - ; $ ! , $ , ! ' ) - ; $ ) $ ) $ , ' ) $ ; $ ~ ",
". $ ; ; ; ; ; ; ; ; ; { { { { { { { { { { { { { { { { { E+F+G+H+> + . $ ; ; ; ; ; ; ; ; ; ! ! ! ! ! { { { { { { { { { { { ~ ~ ",
"  + > > > > > > > > > >       > ] ] ] ] > > > ] ] ] ] > I+J+K+L+M++   + > > > > > > ] ] ] > #.  #.> ] > > > > ] ] ] > > > > > ",
".   .   . + . + + + + . [ [ . + .   . + . + }       } + . + +   + + .   . + + + + + + + + j+. . . j++ + + +   N+] ] N+  + + . ",
"# # # # # * * * * * * * * * * * * $ + . + @ @ # # # # # # # # * * * * * * * * * * * * * * * $ +   . @ # # # # # * * * * * * * ",
", $ ! $ $ ; ' ; $ , & , $ ; $ , $ ~ > + + # $ $ $ $ ; $ { $ , $ ; $ ; $ ' $ ; $ ; $ ! $ ) ; ~   + . # $ ; - $ ! $ ) $ ) $ ; $ ",
"$ , , $ , $ ; ' , ; $ ! , ; - ; - ~ > + + # , $ ) $ ; ) { , ' , $ - ; - ' ; , - ) - ! $ ; $ ~ #.+ . # ; $ ! $ ) $ ) - $ ) $ - ",
"$ , ! , $ ; ' ; , $ , ! $ - ; ' , ~ > + } # , , ) $ ; , , $ ! $ { $ $ ; $ ; $ ; - ! - - ; ) ~ > + . # ; $ ) ) $ $ - ) - ) ; ) ",
", ' ! ' ; ; $ ; $ , $ ! , ) ; $ ; ~ > + } # $ { ) $ ; $ { $ , ' ; $ ; - , ; $ ; $ - ! ) ' ; ~ > + . # $ ; ! $ - ) ) $ ) $ ; ) ",
"; $ , $ ; $ ; - $ ; $ , ! - $ , - ~ > + } # { $ $ ; $ , ) - ! , { $ ; $ ; , , ; - ) ! - ) ; ~ > + + # ; $ - $ ) $ - ) ) ! $ ) ",
"; $ , , ; ' ' ; ' ; , ! $ ; $ ; ' ~ > + + # { $ ) $ ; , , - { ' ; - { $ , ; $ - ; $ ! $ ! - ~ >   + # ; $ ! ) ! $ ) $ ) ! ; $ ",
", ' ! $ ; ; - ; , , $ ! $ ; ) - , ~ > + . & $ { ) $ ; $ { - ; $ ; $ ) ; $ ; , $ ; - ) - ; - ~ >   + & ; ; ! $ ! $ ) $ ) $ ; $ ",
"{ { { { { { { { { { { { { { { { ~ ~ > + + $ ~ ~ ~ ~ ~ { { { { { { { { { { { { { { { { { { ~ ~ ] + . $ ~ ~ { { { { { { { { { { ",
"> > > > > > > > > > > > > > > > > > > + . +   #.#.> > > > > > > > > > > > > > ] ] ] ] ] > ] ] ]   + + > > > > > > ] ] ] ] ] > ",
"  .   .       + + + + + . .   + + + + . . . . . + + + . + + + . + +   + + + }     }     } + }   } . + +   . + + + + }   } + + "};
