/* XPM */
static char * torch3_wall_xpm[] = {
"63 63 447 2",
"  	c #39332D",
". 	c #44362B",
"+ 	c #544C43",
"@ 	c #55453D",
"# 	c #4D433C",
"$ 	c #51423A",
"% 	c #5C4D45",
"& 	c #5B5751",
"* 	c #4C3C35",
"= 	c #4E4437",
"- 	c #53443B",
"; 	c #544533",
"> 	c #3B2E28",
", 	c #463832",
"' 	c #221B16",
") 	c #2D221C",
"! 	c #2C1F1B",
"~ 	c #332A25",
"{ 	c #392C25",
"] 	c #322E29",
"^ 	c #1F1C18",
"/ 	c #25211D",
"( 	c #221D19",
"_ 	c #2E2A25",
": 	c #2B2622",
"< 	c #2F2E29",
"[ 	c #34322D",
"} 	c #42413D",
"| 	c #444440",
"1 	c #474742",
"2 	c #44443F",
"3 	c #464440",
"4 	c #423F3A",
"5 	c #3E3D39",
"6 	c #41403B",
"7 	c #373732",
"8 	c #393732",
"9 	c #4B4944",
"0 	c #4C4A45",
"a 	c #54524D",
"b 	c #514F4A",
"c 	c #55524D",
"d 	c #575650",
"e 	c #5C544C",
"f 	c #5E5A54",
"g 	c #5F5C58",
"h 	c #625F59",
"i 	c #635B52",
"j 	c #5E594E",
"k 	c #605750",
"l 	c #64605A",
"m 	c #6C6355",
"n 	c #695F54",
"o 	c #6E6459",
"p 	c #645B4C",
"q 	c #71665B",
"r 	c #726655",
"s 	c #776B61",
"t 	c #BA7946",
"u 	c #D38138",
"v 	c #7C6552",
"w 	c #7F6857",
"x 	c #846651",
"y 	c #746956",
"z 	c #6A604C",
"A 	c #8B7358",
"B 	c #EA9D40",
"C 	c #A57451",
"D 	c #A17352",
"E 	c #B6794C",
"F 	c #6B5F4C",
"G 	c #7A6E5C",
"H 	c #746A5B",
"I 	c #8E735C",
"J 	c #E69337",
"K 	c #A87756",
"L 	c #A27552",
"M 	c #CD8144",
"N 	c #7B685A",
"O 	c #846955",
"P 	c #BF7B45",
"Q 	c #7B6757",
"R 	c #A07352",
"S 	c #E88C36",
"T 	c #946F55",
"U 	c #8F6C53",
"V 	c #A6734E",
"W 	c #BB7B49",
"X 	c #726559",
"Y 	c #4B3A2A",
"Z 	c #55412B",
"` 	c #523E2B",
" .	c #9A6231",
"..	c #956038",
"+.	c #624535",
"@.	c #C97B3B",
"#.	c #EF8E30",
"$.	c #C27E47",
"%.	c #A8764B",
"&.	c #7A6757",
"*.	c #BF773F",
"=.	c #554637",
"-.	c #4C3A26",
";.	c #604F47",
">.	c #574735",
",.	c #614F35",
"'.	c #67553A",
").	c #655233",
"!.	c #5E4B34",
"~.	c #7D5532",
"{.	c #B47033",
"].	c #F3963D",
"^.	c #E48F41",
"/.	c #896E57",
"(.	c #AC7950",
"_.	c #846D58",
":.	c #BE7940",
"<.	c #61502E",
"[.	c #604F2F",
"}.	c #5B4A34",
"|.	c #5B5346",
"1.	c #756345",
"2.	c #86785D",
"3.	c #938462",
"4.	c #95866B",
"5.	c #9C8B5B",
"6.	c #A08E5A",
"7.	c #A39E48",
"8.	c #978E4D",
"9.	c #9C8B54",
"0.	c #94845B",
"a.	c #8A7B5B",
"b.	c #84765C",
"c.	c #876949",
"d.	c #B67334",
"e.	c #F29840",
"f.	c #BF7F47",
"g.	c #786B5A",
"h.	c #8C7259",
"i.	c #C17E46",
"j.	c #D08038",
"k.	c #5B533E",
"l.	c #7F704A",
"m.	c #7C715D",
"n.	c #8E805B",
"o.	c #948352",
"p.	c #877954",
"q.	c #83765C",
"r.	c #76694D",
"s.	c #695748",
"t.	c #7D7265",
"u.	c #7B6A4B",
"v.	c #A4956C",
"w.	c #AB9B73",
"x.	c #B2A36A",
"y.	c #B8A86C",
"z.	c #BCAC64",
"A.	c #B9A763",
"B.	c #AB9C64",
"C.	c #9B8B63",
"D.	c #907753",
"E.	c #D38235",
"F.	c #F2983E",
"G.	c #B37A48",
"H.	c #DD8A40",
"I.	c #EF9136",
"J.	c #B6763D",
"K.	c #5D543E",
"L.	c #6E6145",
"M.	c #9F9468",
"N.	c #BCAC6B",
"O.	c #C0AF68",
"P.	c #B7A75F",
"Q.	c #B3A363",
"R.	c #7B6D54",
"S.	c #645A46",
"T.	c #695E45",
"U.	c #BBAC74",
"V.	c #C3B472",
"W.	c #C6B96E",
"X.	c #CEC174",
"Y.	c #D0C475",
"Z.	c #CBBD73",
"`.	c #AB9C6B",
" +	c #9E784D",
".+	c #F2973A",
"++	c #F49C42",
"@+	c #BF7C3B",
"#+	c #BD804E",
"$+	c #EE9137",
"%+	c #EB913B",
"&+	c #8C6948",
"*+	c #8E8064",
"=+	c #BFB06C",
"-+	c #C5B776",
";+	c #CBBC6E",
">+	c #C3B36B",
",+	c #8C7C53",
"'+	c #6D5B3D",
")+	c #735E46",
"!+	c #C9BA79",
"~+	c #D1C57A",
"{+	c #D4C87D",
"]+	c #D5CB84",
"^+	c #D6CD8B",
"/+	c #D7CF93",
"(+	c #CEC17D",
"_+	c #A49463",
":+	c #C38240",
"<+	c #F39A3B",
"[+	c #F59E41",
"}+	c #EF922E",
"|+	c #EF9535",
"1+	c #EC9032",
"2+	c #CD813F",
"3+	c #79644A",
"4+	c #A59B67",
"5+	c #D2C582",
"6+	c #745C3C",
"7+	c #857963",
"8+	c #D6CF9C",
"9+	c #D7D09C",
"0+	c #D6CFA4",
"a+	c #A59463",
"b+	c #DD913F",
"c+	c #F7A144",
"d+	c #F6A041",
"e+	c #F49834",
"f+	c #F6A042",
"g+	c #EB9238",
"h+	c #AA7950",
"i+	c #A4935C",
"j+	c #D7D0A4",
"k+	c #D7D093",
"l+	c #7B6443",
"m+	c #D6CFAA",
"n+	c #A6935B",
"o+	c #DC9040",
"p+	c #F7A244",
"q+	c #F7A344",
"r+	c #F7A141",
"s+	c #F59E3F",
"t+	c #D3883D",
"u+	c #81725C",
"v+	c #D8D0A4",
"w+	c #B19F61",
"x+	c #7C633D",
"y+	c #837455",
"z+	c #D7D0AC",
"A+	c #BF9C5A",
"B+	c #E5913A",
"C+	c #F29F43",
"D+	c #F6A244",
"E+	c #A9783D",
"F+	c #7C705B",
"G+	c #806A48",
"H+	c #D8CFAE",
"I+	c #D8D0AA",
"J+	c #CFC06F",
"K+	c #7D6A45",
"L+	c #D6D0B0",
"M+	c #CB9953",
"N+	c #C67F2D",
"O+	c #B77E2F",
"P+	c #DB933B",
"Q+	c #DF953C",
"R+	c #B97F31",
"S+	c #A1763A",
"T+	c #87785B",
"U+	c #6F603F",
"V+	c #A99E59",
"W+	c #D8CF99",
"X+	c #81683E",
"Y+	c #816945",
"Z+	c #8A7D63",
"`+	c #625444",
" @	c #C1A35D",
".@	c #A27736",
"+@	c #976B28",
"@@	c #A07228",
"#@	c #A47528",
"$@	c #986D28",
"%@	c #896738",
"&@	c #85765A",
"*@	c #D8D09B",
"=@	c #63544B",
"-@	c #988451",
";@	c #735320",
">@	c #8E6525",
",@	c #966B28",
"'@	c #866023",
")@	c #67512B",
"!@	c #7C6E53",
"~@	c #8A7A4D",
"{@	c #917D4D",
"]@	c #604518",
"^@	c #70501C",
"/@	c #76551E",
"(@	c #71501B",
"_@	c #664B20",
":@	c #6E614C",
"<@	c #937F4F",
"[@	c #634921",
"}@	c #644719",
"|@	c #654818",
"1@	c #6A4C1A",
"2@	c #644B22",
"3@	c #7D6F4D",
"4@	c #8E7B50",
"5@	c #684F29",
"6@	c #6A4C19",
"7@	c #674A19",
"8@	c #6C4D1C",
"9@	c #746248",
"0@	c #7A6F5B",
"a@	c #84734B",
"b@	c #89754B",
"c@	c #594019",
"d@	c #684B19",
"e@	c #634719",
"f@	c #6C4E23",
"g@	c #817053",
"h@	c #D8CF95",
"i@	c #583F19",
"j@	c #5C4118",
"k@	c #67491B",
"l@	c #755E45",
"m@	c #847862",
"n@	c #8B7D6A",
"o@	c #8F816B",
"p@	c #88754B",
"q@	c #543C18",
"r@	c #583F18",
"s@	c #5F4319",
"t@	c #684E2A",
"u@	c #7F725A",
"v@	c #B3A372",
"w@	c #877868",
"x@	c #A39464",
"y@	c #897850",
"z@	c #5C4526",
"A@	c #553D17",
"B@	c #5B4118",
"C@	c #5D431D",
"D@	c #7C6E57",
"E@	c #BBAB78",
"F@	c #685030",
"G@	c #553C19",
"H@	c #5B4119",
"I@	c #6E5B40",
"J@	c #847761",
"K@	c #84796A",
"L@	c #AFA075",
"M@	c #615236",
"N@	c #664A1A",
"O@	c #5A4019",
"P@	c #664F30",
"Q@	c #80735C",
"R@	c #9A8654",
"S@	c #5C492D",
"T@	c #5A401A",
"U@	c #5E431B",
"V@	c #796C59",
"W@	c #817665",
"X@	c #74644B",
"Y@	c #81766A",
"Z@	c #605135",
"`@	c #523917",
" #	c #5B411A",
".#	c #786B59",
"+#	c #7B6549",
"@#	c #6A5D4E",
"##	c #533B18",
"$#	c #655136",
"%#	c #7D715F",
"&#	c #7A6E64",
"*#	c #7F7469",
"=#	c #706150",
"-#	c #4B3517",
";#	c #533B19",
">#	c #5F4627",
",#	c #7A6D5F",
"'#	c #75664D",
")#	c #483416",
"!#	c #563D1A",
"~#	c #66543D",
"{#	c #7F7367",
"]#	c #72675B",
"^#	c #4D3B27",
"/#	c #583E1B",
"(#	c #6C5A49",
"_#	c #5A523D",
":#	c #4B3A23",
"<#	c #583D1B",
"[#	c #5B492E",
"}#	c #695E4A",
"|#	c #513F26",
"1#	c #614D33",
"2#	c #9F992F",
"3#	c #BCBCB9",
"4#	c #B6B5B2",
"5#	c #9D9A93",
"6#	c #8C8539",
"7#	c #9D9830",
"8#	c #A19C34",
"9#	c #B9B9B6",
"0#	c #ACAAA6",
"a#	c #B3B2AE",
"b#	c #938D35",
"c#	c #B1AFAC",
"d#	c #A19F99",
"e#	c #9A952F",
"f#	c #5E5120",
"g#	c #563D1B",
"h#	c #7F7325",
"i#	c #A6A49C",
"j#	c #ABA9A5",
"k#	c #B8B6B4",
"l#	c #A19C2D",
"m#	c #9B9531",
"n#	c #989230",
"o#	c #62561F",
"p#	c #533B1C",
"q#	c #8A847E",
"r#	c #9B9638",
"s#	c #9E992C",
"t#	c #655A1E",
"u#	c #5E4C1E",
"v#	c #B1B0AC",
"w#	c #B3B2A2",
"x#	c #665647",
"y#	c #B4B3B0",
"z#	c #716A62",
"A#	c #B6B6B2",
"B#	c #6E665F",
"C#	c #615141",
"D#	c #AEADA9",
"E#	c #9F9B98",
"F#	c #56493D",
"G#	c #4C361A",
"H#	c #615448",
"I#	c #96902A",
"J#	c #5C4D39",
"K#	c #1F1A16",
"L#	c #30221F",
"M#	c #3A3833",
"N#	c #45423D",
"  . . + @ + @ @ # $ + % & % + * * $ * $ * $ = = * $ $ * * # $ $ $ $ - $ - - - + @ @ ; - - - $ + $ * @ * = # $ $ $ = * - + > , ",
"' ) ! ~ > { { { { { { { > { > > { ~ ~ { ~ { { ~ { { { { { ~ { { { { { { { { { {   { { { { { { { { ] { { { ~ { { { { { ] { ' ! ",
"^ / ( _ _ _ _ _ { ~ _ _ _ _ ~ : _ _ _ _ ~ ] _ _ _ _ ] ~ _ ~ _ ] _ ~ ~ _ ] _ _ ~ ~ _ _ ] _ _ _ _ ] _ ~ ~ ~ _ _ _ _ ~ ] _ < ^ ^ ",
"< [ [ } | 1 } 1 2 3 } 1 3 3 1 4 5 } 1 2 1 2 3 2 1 | 3 3 3 3 3 3 2 2 2 4 5 | | 3 2 2 2 2 1 2 2 1 | | 3 1 1 } 1 2 2 4 3 1 1 < < ",
"< < < 4 4 4 } } } 5 | 4 4 4 4 4 5 4 4 } 4 4 4 4 } } 4 4 4 4 4 4 } } } } 5 4 4 5 6 6 6 6 6 2 6 | 5 4 } 6 } 6 6 6 4 4 4 4 4 < < ",
"^ / ( : : : ) : ) _ _ _ _ _ : : : ) ) : : : ~ _ ~ _ ~ ~ ~ ] ~ ~ _ : : ) : : _ _ ~ _ _ _ _ / ) / : : : : : : _ ~ _ : _ _ : ( ( ",
"/ ( : _ ~ _ _ ] [ [       7   { < ] ] ]     8   7   7 8 8 8 , 8 [ ~ ] ~ ~ [ [   [ [ 8 7 ] _ _ _ _ _ ] ] {   [ 8     [ 7 7 ( : ",
"7 7 7 1 9 } 5 0 a a a a a a b 9 5 4 2 1 0 0 b b b b b c b d d b c 0 9 9 9 9 9 a e c c a b 2 1 1 9 9 9 9 0 0 c & c b c b b [ 7 ",
"8 4 5 c c b b c f g h h i g g c b 9 0 c c j e b k h h h g h h h g j c c d & f g g g g f c a b b c c d & d f h h g g h h k 8 4 ",
", 4 4 e e c e j f i l m n n i & e c b e e j k & % k n h n o o n l j e & e j & n n n n i j a e a e e & & & i i n i i n h h 5 4 ",
"4 2 2 & e e e & h l m m m m l p j e p & i k & i q h h o o o o n l f & & j & n n q n n h j j e e & & & i i i n l n h n n n 4 # ",
"4 # # i i & j i m m m m m r m l & p i p n o n n s t u v o w x o m i & j j i n r q m m l i j j j j n i n n n n o n o n n n 4 # ",
"2 3 - i i i i i l o o r o y o m z m n m m m o o q A B C q D E o m n p j i n m o q m o o z n n p F h l z n o o q o o o n n # 9 ",
"# + + n n m n m y y G H H y y y m r m z F m y y q I J K q L M N m n i n F l o q G y y y m z z z z m m m o q q q q q q q n 9 + ",
"0 + + n o o o o o o o o o o o o m o o m o o o o o O P Q H R S T U V W X o m m o m o o q q m m m o o r o o o n q o o o q o 3 + ",
"+ + % q q o ; Y Y Y ; Z Z Z Z Z Z ` ` ` ` ` ` ` Y ;  ...+.@.#.$.%.&.*.=.. . Y -.` ` ` ` Z ` ` -.-.-.-.-.-.-.Y Y Y * ;.o H + + ",
"+ + + H H o = = >.,.,.,.'.'.).).).).).).).).).).'.,.!.~.{.].^./.(._.:.=.Z = ; ; ,.).'.).).).).<.<.<.[.}.}.}.>.>.; Z '.m G - |.",
"+ |.|.H G q ; 1.2.3.4.5.5.5.6.6.6.7.8.9.9.9.0.0.0.a.b.c.d.e.f.g.h.i.j.=.k.l.m.n.o.0.5.9.6.6.8.8.8.o.o.o.0.n.p.q.r.'.s.y t.+ e ",
"+ |.|.G m.H |.u.4.v.w.x.x.y.z.z.z.z.z.z.A.A.x.B.v.v.C.D.E.F.G.g.H.I.J.K.L.n.C.M.B.x.A.N.O.z.z.z.P.A.A.Q.B.B.M.3.m.'.L.R.t.+ |.",
"|.e S.m.m.y T.R.M.x.U.V.W.X.Y.Y.Y.Y.Y.Y.X.Z.W.N.y.`.C. +.+++@+#+$+%+&+k.L.*+M.x.=+-+Y.Y.Y.Y.X.X.X.X.;+W.>+x.`.M.,+'+)+G *++ j ",
"|.S.S.m.t.H T.p.v.N.!+~+{+]+^+^+^+/+/+^+^+]+{+(+V.x._+:+<+[+}+|+1+2+3+k.r.5.4+=+(+5+^+^+^+/+^+^+^+]+]+{+(+=+x.M.a.6+1.q.7+|.j ",
"|.p p m.m.m.'+p.`.V.(+]+/+8+9+0+0+0+0+0+9+9+/+]+Z.N.a+b+c+d+e+f+g+h+L.).u.i+Q.W.]+/+9+j+0+0+0+8+9+9+k+^+5+X.z.4+0.6+l+m.2.|.|.",
"|.|.|.m.m.G L.p.B.V.5+^+9+m+m+0+m+m+m+m+m+0+8+^+Z.>+n+o+p+q+r+s+t+u+r.'+l.i+y.X.^+8+0+m+m+m+v+v+j+j+0+8+^+Y.=+w+9.x+l+y+*+|.z ",
"|.z z t.a.m.L.o.x.W.{+/+0+m+m+z+z+z+m+m+m+m+0+/+{+>+A+B+C+D+q+C+E+F+L.'+G+i+=+(+^+0+m+m+H+I+I+v+z+0+j+j+/+{+J+x.5.l+K+m.*+|.S.",
"|.L.S.m.7+G L.o.w+W.]+k+j+z+z+z+z+L+L+z+z+z+j+9+{+;+M+N+O+P+Q+R+S+T+r.U+l.V+W.Y./+j+z+z+z+m+I+v+I+v+I+v+W+]+;+O.6.X+Y+2.Z+`+S.",
"|.z z q.*+G 1.o.Q.J+]+9+j+j+z+z+L+L+L+L+z+z+j+k+]+J+ @.@+@@@#@$@%@&@r.U+o.V+J+{+W+v+j+z+I+I+I+I+I+I+I+v+*@^+Z.O.6.X+Y+a.Z+=@T.",
"|.z z 2.n.m.1.o.A.Y.]+9+j+z+z+L+L+L+L+L+L+z+j+9+{+;+A.-@;@>@,@'@)@!@r.U+~@w+;+{+*@v+I+z+z+z+z+I+v+I+I+v+v+^+Y.>+i+X+Y+a.a.j F ",
"|.z z 2.*+m.K+o.A.J+^+9+j+z+z+z+L+L+L+L+L+z+j+k+]+;+P.{@]@^@/@(@_@:@r.U+~@w+J+]+*@v+z+z+z+H+z+I+I+v+v+v+v+^+~+>+6.X+Y+a.*+j T.",
"z z z 7+*+t.1.o.A.X.^+9+z+z+z+z+z+L+L+L+L+z+z+9+]+J+A.<@[@}@|@1@2@3@r.U+o.Q.J+]+9+j+z+z+z+z+z+I+I+I+I+v+8+^+Y.O.6.X+Y+y+*+p z ",
"j z z Z+3.G 1.,+Q.X.]+9+z+z+z+L+L+L+L+L+z+z+j+k+{+;+P.4@5@6@7@8@9@0@u.U+a@Q.X.]+9+j+z+z+z+z+z+I+I+v+I+v+W+^+Z.O.6.Y+G+q.*+|.z ",
"S.z z Z+Z+t.1.o.Q.W.]+9+j+L+z+z+z+L+m+L+z+z+9+^+{+;+w+b@c@d@e@f@g@2.r.L.a.x.W.]+9+v+z+z+z+I+I+I+I+H+H+v+h@]+Z.O.5.x+G+2.Z+p z ",
"p z z Z+*+G 1.,+x.V.]+9+j+z+z+z+z+m+m+m+j+j+9+^+Y.>+w+b@i@j@k@l@m@m.r.U+a@x.>+5+h@v+z+z+z+I+I+I+I+I+v+v+h@]+-+x.6.l+K+a.Z+p z ",
"s.z F n@o@m.L.,+4+U.{+k+k+9+9+9+9+9+9+9+k+k+]+]+Z.N.`.p@q@r@s@t@u@2.r.T.a@`.-+5+k+*@j+9+j+v+*@v+*@*@*@h@h@5+Z.v@5.l+Y+q.w@=@n ",
"p z i n@Z+m.z p.4+U.!+5+]+]+^+^+^+^+^+]+{+~+Y.X.=+v@x@y@z@A@B@C@D@m.r.L.y+`.U.!+5+^+k+/+k+^+k+k+/+k+^+]+]+!+-+v@C.)+Y+q.n@=@F ",
"j n F n@n@t.s.y+v.v@E@U.X.X.X.X.Y.Y.J+J+J+W.=+z.x.`.x@p.F@G@H@I@J@7+y S.G v.v@U.-+!+~+~+Y.~+{+{+{+~+Y.Z.!+-+U.w.3.)+Y+q.n@i F ",
"=@F m K@n@m.S.y+M.w.L@x.x.x.z.N.=+z.z.P.Q.w+w+B.v.v.C.y+M@N@O@P@Q@t.y L.R.v.w.v@v@N.U.=+>+>+>+>+>+>+O.U.v@v@v@w.2.)+)+q.n@=@F ",
"j p n 7+*+G p r.o@3.3.0.8.6.6.8.8.6.8.9.R@R@n.n.a.a.y+R.S@A@T@U@V@W@r S.X@2.3.3.5.x@6.5.i+i+i+i+i+i+x@6.C.C.3.Z+R.)+)+m.w@=@F ",
"e F F Y@K@t.z F X@r.u.r.l.l.l.l.l.x+K+l.K+K+K+L.1.1.)+T.Z@`@ # #.#W@y S.F X@+#K+u.a@a@a@a@a@~@a@~@a@a@G+G++#r.1.T.F )+G W@=@F ",
"e i i Y@K@7+t.t.7+t.t.7+t.t.t.t.t.7+t.7+t.7+W@t.t.W@W@W@@### #$#%#W@t.W@W@W@Y@Y@t.t.t.7+t.W@t.7+Y@7+W@W@Y@W@W@W@W@W@&#t.t.j i ",
"|.p p *#t.K@K@*#7+7+K@7+7+7+n.2.2.m.q.2.7+m.q.q.W@2.s t.=#-#;#>#,#W@Y@W@W@Y@7+7+7+q.*+*+*+*+*+o@Z+Z+Z+w@W@W@G &#&#W@t.W@t.|.j ",
"e =@k Y@t.W@Y@Y@K@K@*+K@7+7+t.7+2.t.m.7+7+7+7+t.t.7+*#t.'#)#!#~#{#Y@Y@Y@Y@7+7+7+w@7+o@n@o@o@o@o@o@n@n@n@W@t.t.&#&#W@t.*#Y@e k ",
"|.j & *#*#Y@Y@Y@t.w@K@t.m.W@t.m.m.t.t.m.t.t.m.t.t.t.*#*#]#^#/#(#Y@Y@Y@w@Y@W@t.W@t.W@W@n@K@K@o@o@n@n@n@w@W@t.t.t.t.&#t.Y@K@|.j ",
"e j =@&#k.k.k.k.k.k.k.k.k.k.k.k.k.k.k.k.k.k.k.k.k.k.k.k._#:#<#[#k.k.|.k.k.k.k.k.k.k.|.k.k.k.k.k.|.|.k.k.k.k.k.k.% k.k.k.Y@e j ",
"% & e &#k.T.T.T.T.T.z j G S.L.S.L.L.z S.T.L.S.T.L.|.L.z }#|#<#1#T.T.T.T.T.T.T.T.L.L.S.L.L.L.L.L.L.T.T.T.T.T.T.T.T.T.T.k.Y@% e ",
"|.j j &#k.1.2#V+3#4#5#5#8.6#7#8#9#0#5#a#7#b#b#7#c#d#a#3#e#f#g#h#4#i#j#k#l#b#6#4+j#5#4#3#7#6#7#l#3#0#a#3#l#b#b#7#3#3#T.k.*#|.j ",
"c c e &#k.T.m#c#3#9#4#4+8.7#8#3#9#0#4#8#7#m#7#4#c#4#3#8#n#o#p#q#a#a#9#l#l#m#7.k#c#4#9#8#r#7#l#3#a#a#3#l#7#b#7#3#3#9#T.k.*#c j ",
"|.j e &#k.T.i#3#9#9#9#7.8#2#7.3#3#9#9#l#l#l#l#3#3#3#3#l#s#t#u#v#3#3#3#l#l#8#8#k#4#9#3#8#m#l#8#3#9#3#3#l#7#l#8#3#3#3#T.k.*#% e ",
"e e e s k.z 3#k#9#w#7.l#l#l#3#3#3#3#l#l#l#l#3#3#3#3#l#l#s#t#x#y#3#3#l#l#l#l#3#3#3#3#7#l#7#2#3#3#3#3#l#l#l#8#3#3#3#3#T.|.Y@e e ",
"% e k &#k.L.a#a#4#7.l#l#7.3#3#3#9#l#l#l#l#3#3#3#3#l#l#l#s#z#x#y#3#l#l#l#l#3#3#3#3#l#l#l#8#3#3#3#3#l#l#l#2#3#3#3#3#l#L.k.*#e c ",
"d k k &#k.L.a#a#4+8#8#8#4#3#9#9#l#l#l#l#9#9#9#3#l#l#l#l#A#B#C#D#l#l#l#l#3#9#k#3#l#l#l#7#H+3#3#3#8#l#l#l#9#3#3#3#l#l#L.k.*#e j ",
"e k k *#|.z 5#i#l#l#l#r#3#9#4#9#l#l#l#2#9#a#9#3#l#l#l#l#E#F#G#H#I#l#l#l#9#4#k#9#l#l#7#7#3#4#3#3#l#2#l#8#9#4#4#9#l#l#L.k.Y@e p ",
"e =@& *#|.|.w.m#l#l#7.9#9#0#4#l#l#l#l#4#0#4#3#l#l#l#l#9#c#4#9#l#l#l#l#9#4#c#4#2#7#7#r#3#4#a#k#l#m#m#8#3#a#w#k#2#l#l#z k.Y@e & ",
"e =@=@*#|.T.b#2#l#m#a#4#j#i#2#l#2#2#k#j#i#k#l#l#l#l#4#j#i#4#2#2#l#2#4#3#5#c#2#b#6#7#3#4#5#4#l#m#6#7#9#a#i#j#2#2#2#7#L.k.t.e =@",
"j i i *#k.T.T.T.S.S.L.z z S.S.L.T.T.L.T.T.T.T.T.L.L.S.L.L.z L.z L.L.z L.L.L.L.L.T.F L.F S.T.T.T.L.L.S.z L.L.L.z L.T.T.k.Y@j i ",
"|.i & Y@k.e k.|.k.k.|.k.k.k.k.k.% k.k.k.k.k.J#% k.k.k.k.k.k.k.k.k.k.k.k.|.k.k.|.k.k.|.k.% J#J#;.k.|.k.k.k.k.k.k.k.k.k.k.*#e & ",
"e i i *#*#w@K@K@K@K@K@K@w@*#*#t.*#Y@t.t.Y@&#Y@W@*#*#*#*#&#t.*#*#*#*#*#*#*#t.*#*#Y@*#t.t.Y@Y@&#&#&#t.&#&#s s s &#&#t.*#Y@Y@e i ",
"% =@;.Y@Y@Y@Y@Y@t.t.t.W@t.t.W@&#&#s s s &#&#&#&#&#&#&#&#s &#s Y@*#t.t.t.s &#&#&#s Y@&#Y@&#&#W@s s s s q q o o s s s s Y@Y@% =@",
"* @ * ;.=@=@;.=@p j =@=@=@=@;.|.=@;.;.;.;.=@=@`+=@;.;.;.;.=@=@s.s.p =@=@=@`+% =@=@=@=@=@=@;.;.;.;.;.;.;.;.;.;.;.% |.;.s.=@, - ",
"~ . . * * * * * * * * * * * * * * * * * * * * * * * * * * * * * # * * * * * * * * * * * * * * , , , , , , * , * * * * * * {   ",
"K#' ' L#L#L#L#: ) ) ) ) L#! ! ! ! ! ! : ! L#L#L#! ! ! ! L#L#: ) ) ! ) ) ) ! ! ) L#L#! ! : ! L#! ! ! ! ! ! L#L#L#: ) ) : L#' ' ",
"L#_ : 7 8 8 7 7 7 7 7 7   8 8 8 7 7 7 7 7 8 7 8 M#8 8 8 8 M#8 8 8 M#M#M#7 8 8 8 7 7 7 [ 7 7 7 7     7 7 7 7 7 7 7 7 7 7 8 : : ",
"] ] [ 4 1 } 3 3 3 3 3 # 2 N#3 1 | 3 1 3 3 3 3 3 # 3 3 3 1 3 3 3 N#N#4 N#3 2 2 3 3 3 3 # 3 3 3 3 3 3 3 3 3 3 3 3 3 3 3 1 # [ [ ",
": : : 7 5 7 8 8 7 7 7 7 7 7 7 7 8 8 8 8 8 8 8 8 8 8 8 8 ] 8 7   M#M#8 M#8 7 8 8 7 7   7 8 7 7 7 8 8 7 7 7 7 7 7 7 7 7 7 8 : : "};
