/* XPM */
static char * torch1_wall_4_xpm[] = {
"63 63 241 2",
"  	c #383838",
". 	c #545454",
"+ 	c #484848",
"@ 	c #EC0000",
"# 	c #D40000",
"$ 	c #A40000",
"% 	c #E00000",
"& 	c #C80000",
"* 	c #BC0000",
"= 	c #B00000",
"- 	c #880000",
"; 	c #640000",
"> 	c #2C2C2C",
", 	c #7C0000",
"' 	c #980000",
") 	c #700000",
"! 	c #580000",
"~ 	c #400000",
"{ 	c #4C0000",
"] 	c #202020",
"^ 	c #594D47",
"/ 	c #AF6F3F",
"( 	c #7A5845",
"_ 	c #5C5C5C",
": 	c #646464",
"< 	c #404040",
"[ 	c #D50E02",
"} 	c #E57427",
"| 	c #E26E24",
"1 	c #A13E10",
"2 	c #EA862E",
"3 	c #EC8E36",
"4 	c #A44211",
"5 	c #B85A1B",
"6 	c #F29338",
"7 	c #ED933F",
"8 	c #BC4D15",
"9 	c #A7571A",
"0 	c #EF933A",
"a 	c #F0953E",
"b 	c #D47A27",
"c 	c #A40300",
"d 	c #8B1202",
"e 	c #D87626",
"f 	c #EA8B2E",
"g 	c #DD812A",
"h 	c #B1380D",
"i 	c #680D01",
"j 	c #CC7023",
"k 	c #ED8D30",
"l 	c #F2963C",
"m 	c #BD6720",
"n 	c #670A01",
"o 	c #9E3B0F",
"p 	c #E98A2F",
"q 	c #F49A43",
"r 	c #E88A33",
"s 	c #7B350C",
"t 	c #852F0A",
"u 	c #AD3F10",
"v 	c #BA6722",
"w 	c #F39942",
"x 	c #F2963F",
"y 	c #BB6721",
"z 	c #934613",
"A 	c #AC5D1C",
"B 	c #343434",
"C 	c #342F2C",
"D 	c #513A2C",
"E 	c #372F2C",
"F 	c #A86731",
"G 	c #F19436",
"H 	c #F59E46",
"I 	c #C57A32",
"J 	c #B8702F",
"K 	c #A8662E",
"L 	c #5B4437",
"M 	c #C97A34",
"N 	c #945E35",
"O 	c #C47937",
"P 	c #F4993A",
"Q 	c #F6A045",
"R 	c #F09435",
"S 	c #EE9232",
"T 	c #AD6B35",
"U 	c #C12C09",
"V 	c #C4591A",
"W 	c #F29532",
"X 	c #F7A141",
"Y 	c #F7A344",
"Z 	c #F6A143",
"` 	c #F69E41",
" .	c #E36620",
"..	c #741002",
"+.	c #CD7B28",
"@.	c #F29D3B",
"#.	c #F6A442",
"$.	c #F7A442",
"%.	c #F3A241",
"&.	c #D98F39",
"*.	c #9A511B",
"=.	c #B00C02",
"-.	c #9A6623",
";.	c #B87F2E",
">.	c #DB9439",
",.	c #E0963A",
"'.	c #BD822F",
").	c #9F6D27",
"!.	c #88270F",
"~.	c #710901",
"{.	c #805821",
"].	c #976C28",
"^.	c #A17228",
"/.	c #A37428",
"(.	c #9D7027",
"_.	c #9A5B1F",
":.	c #7D1003",
"<.	c #580401",
"[.	c #583C1A",
"}.	c #76551E",
"|.	c #876022",
"1.	c #8C6424",
"2.	c #805C20",
"3.	c #6A3F19",
"4.	c #A20702",
"5.	c #AF0301",
"6.	c #493117",
"7.	c #5C4116",
"8.	c #644717",
"9.	c #694B19",
"0.	c #6E4E1A",
"a.	c #8D3E15",
"b.	c #700801",
"c.	c #6F0201",
"d.	c #442A15",
"e.	c #533D1A",
"f.	c #604318",
"g.	c #614518",
"h.	c #65481A",
"i.	c #743A14",
"j.	c #6F0701",
"k.	c #400100",
"l.	c #411C0E",
"m.	c #4F3C1E",
"n.	c #644818",
"o.	c #614419",
"p.	c #65471A",
"q.	c #63280C",
"r.	c #640100",
"s.	c #362F29",
"t.	c #553C17",
"u.	c #634818",
"v.	c #5E4219",
"w.	c #64471F",
"x.	c #3F3429",
"y.	c #3E3934",
"z.	c #533C1A",
"A.	c #5B4018",
"B.	c #66471B",
"C.	c #5D4831",
"D.	c #494847",
"E.	c #AE1405",
"F.	c #553816",
"G.	c #573D18",
"H.	c #5F4319",
"I.	c #734218",
"J.	c #B01C06",
"K.	c #9F0802",
"L.	c #642B10",
"M.	c #523B17",
"N.	c #5A3F19",
"O.	c #5E4019",
"P.	c #611D07",
"Q.	c #75270D",
"R.	c #543C18",
"S.	c #5A401A",
"T.	c #6F3514",
"U.	c #630501",
"V.	c #88280D",
"W.	c #664A1A",
"X.	c #653B19",
"Y.	c #9B1606",
"Z.	c #85210C",
"`.	c #523B18",
" +	c #573E1B",
".+	c #5B411C",
"++	c #621F0A",
"@+	c #71200B",
"#+	c #4F3818",
"$+	c #583F1B",
"%+	c #601C09",
"&+	c #71200C",
"*+	c #503919",
"=+	c #653717",
"-+	c #620F04",
";+	c #51200B",
">+	c #4A3517",
",+	c #533B1A",
"'+	c #5B3F1A",
")+	c #591C08",
"!+	c #35291C",
"~+	c #483416",
"{+	c #563D1A",
"]+	c #4C3821",
"^+	c #302D2B",
"/+	c #3C3631",
"(+	c #48341B",
"_+	c #593F1A",
":+	c #544434",
"<+	c #4C4C4C",
"[+	c #B80501",
"}+	c #6F2E13",
"|+	c #593F1B",
"1+	c #813213",
"2+	c #7A0401",
"3+	c #512B14",
"4+	c #583E1B",
"5+	c #533214",
"6+	c #A10401",
"7+	c #522C14",
"8+	c #563D1B",
"9+	c #523014",
"0+	c #860401",
"a+	c #5A2C14",
"b+	c #543C1B",
"c+	c #4A2A12",
"d+	c #522B14",
"e+	c #58381A",
"f+	c #441306",
"g+	c #60381A",
"h+	c #431004",
"i+	c #4C0401",
"j+	c #462913",
"k+	c #513719",
"l+	c #441607",
"m+	c #342D26",
"n+	c #422F18",
"o+	c #4C361A",
"p+	c #48351D",
"q+	c #332E29",
"r+	c #303030",
"                                                                                                                              ",
".   . + + + + + . + + + + + + . +   + + + + + + + . . . . . . + + + + + + + + + . . . . . . . + + + +       + + . . + + + + + ",
"  @ @ # # # # # # # # # $ + + . @ @ # # # # # # # # # # # # # # # # # # $ +   . @ @ @ @ % % % % % % # # # # # & & & & * * * $ ",
"+ @ & = = # - $ # - & $ ; > + . @ * - * - * - * , * ' * ' * , * , * & $ ) > +   # $ & = & = = & ) & , & = & - = $ , & ' & $ , ",
"+ # $ , $ - $ ' ) $ - ) ; > + . # * - - $ - ) $ $ ) ' $ $ ) ' $ ) $ ' ) ! > + . # $ $ , ; $ - ) - $ , - $ $ - $ , - $ ! $ ) ; ",
"+ # , $ $ ) ' $ $ ) $ ! ~ > + . # - * $ - $ ) $ - $ ) $ ) - , $ ) ' , ) ! > + + # ) $ ; - $ ; $ ) $ , $ - $ ; $ ' , $ , $ ) { ",
"+ & $ , - ' , $ ) - $ ) ~ > + . * * - $ - - ' $ ) - ) $ - ) ' , - ) $ ) ~ >   + * ) $ , $ - ; $ ) ) $ $ ) $ - $ $ , $ ! $ - { ",
"+ * , $ $ ) $ ' ) ' ) ! ~ > + + * & - $ ) $ ) $ ) $ ) ' - ) , $ ) ' , ) ! >   + * ' $ ; - $ , - ) - , $ - $ ; $ , - $ , $ ) ~ ",
"+ * $ ) - ! ) , ! ) - ) ~ >   . ' ' ) ) { - ) ) - ) { ) - ) - ) { - ) ) ~ >   + * ) ) ! ) ) { - { ) ! - { ) { - ; { ) - ) - ~ ",
"+ , ; ; ; ~ ~ ~ ~ ~ ~ ~ ~ >   + , ; ; ! ! ! ! ! ! ! ! ! ~ ~ ~ ~ ~ ~ ~ ~ ~ >   + - ; ; ; ; ; ; ; ; ; ; ! ! ! ! ! ! ! ! ! ~ ~ ~ ",
"+ + > > > > > > > > ] ] ] >   . + > > > > > ] ] ] ] ] > > ] ] ] ] > > > > > + .   > > > > > > > > > > > ] ] ] ] ] > > > > > > ",
".         + + + +           +   + + + + + + +       . ^ / (     + + + + + + .   + . . . . _ : : _ . . + + <   < .   . + + + . ",
"@ # # # * * * * * * * * * * * $ + . + @ @ # # # # # [ } | & & & & & * * * * * * * * * * * * * * * * * * $ + < . @ @ # # # # # ",
"= - - = ' , = , ' - = ; = - $ ~   + . @ ) = & , * ; 1 2 3 4 & ' $ - , - $ - $ - $ , & ; & - ' * & ' & $ ~   +   @ & , = - = - ",
"- $ - $ , - - ; $ - ; - $ $ ) ~ > + + # = ) $ , $ $ 5 6 7 8 ) ; - $ , $ , $ ; $ $ - ; $ - $ ) - $ ) $ ) ~   + . & = , $ - , $ ",
") $ $ - ' ; $ , - - ' ; $ - ) ~ >   + # ) $ - ' - - 9 0 a b c - ; $ - , ; , - - $ ! - , $ ) $ ) $ $ ) ) ~ > < + & , $ $ $ , $ ",
"$ - - $ - , , - , $ ' ; $ ; ) ~ >   + # ) $ $ , $ ; d e f g h ; - $ , - , $ ; $ - ! $ ; $ ) - ) $ ) $ ) ~ >   + & = , $ , $ ' ",
") $ ; $ ) - , ' ; $ ; - $ $ ) ~ > + . # = ! $ , $ - i j k l m n $ - , ! , $ ; - ! - $ ; - $ ) - $ ) $ ) ~ ]   + = , $ $ ! $ , ",
") = ; ) { , ) ' ) ' ) ! ' ) ) ~ > + . = $ ) - ! ) ' ) o p q r s t u ) ' ; - ) - - ! ' ) ) - { ) ' ) - ) ~ ] < . = $ , ) ! ) ' ",
"~ { { { { { { { { { { { { ~ ~ ~   + . $ ; ; ; ; ; ; ; i v w x y z A ! ! ! ! ! ! ! ! ! ! ! ! ! ! ! ! ! ~ ~ ] +   $ ; ~ ; ~ ~ ; ",
"> > > ] > > > ] ] ] > > > ] ] >   +   +   B > > > C D E F G H I J K > > ] ] ] ] ] > > > ] ] ] ] > > > > >   + . + > > > > > > ",
". . +     + .   .   + +         + + . + + + <   < L M N O P Q R S T . + <       < < + + . <     < + + + . + .   . <   < . + + ",
". @ @ # # # # # # # * * * * * * * * * * * * * * * * U V W X Y Z `  .# # # # # # # # # * * * * * * * * * * * * * * * * * * * $ ",
". @ - = * , * , * , = - = - = & - = - = - * = ; = & ..+.@.#.$.%.&.*.# $ = - $ = - = ' = , ; $ - ) - $ , - $ ' - $ , - $ ! $ ~ ",
"  @ = - $ ' $ , ) - $ $ - ' - $ - ; $ ) $ - ; - $ ) =.-.;.>.,.'.).!.$ ; $ ; - ) ' - ; $ ; - $ ; $ ) $ , $ - $ ; $ ' , $ , ) ~ ",
"+ * ; $ $ ) - ! $ ; $ ) $ - ' $ ; - $ ) - $ - ; , $ ~.{.].^./.(._.:.$ , $ ; $ ) ' $ , $ , $ - ; $ ) ) $ ' ) ' - $ $ , $ ! ) ~ ",
"+ * = - $ { $ ! ) - $ - ) , $ , - ; , $ ; $ - ; $ ) <.[.}.|.1.2.3.4.) ' - ; - ' ) $ ; - ; - $ , - ) - , $ - $ ; $ , - $ , ) ~ ",
". * ) ; $ { - , $ ; $ ! $ ; $ - ; - $ - ; $ ; - , , 5.6.7.8.9.0.a.b.$ ) $ - $ - ) $ ; $ ! ) ) { $ { $ ! $ { $ $ - ; { ) - ) ~ ",
"+ & $ ; ) ) ) ! ) { ) ) - ; - ) ) - ) ) ; ) ' ) ' ) c.d.e.f.g.h.i.j.' ) - ! ) ) ) ) ; - ) - { $ ! ) $ { ) - { $ ! $ { $ ) ) ~ ",
"+ $ ' ; ; ; ; ; ; ; ; ; ; ; ; ; ; { { { { { { { { { k.l.m.n.o.p.q.r.; ; ; ; ; ; ; ; ; ; ; ; ! ! ! ! ! ! ! ! ! ! ! ! ~ ! , ! ~ ",
"+ +   > > > > > > > > > > > > > > > > >       > > > > s.t.u.v.w.x.> > > > > > > ] ] ] ] ] >       > ] ] ] > > > > > > > > > > ",
". . . . . + +   +       + . : : . . . + + + < <     < y.z.A.B.C.D.+ .   . + . + <   <   < + . . + + <   < + + + .   . + + + . ",
"* * * * * * * * * * $ +   . # # # # # # # # * * * * * E.F.G.H.I.J.* * * * * * $ + . . & @ # # # # # # # # # * * * * * * * * * ",
"$ = $ = ' & = = & $ ~   +   # $ ; $ ) $ $ ; $ - $ $ ) K.L.M.N.O.P.$ $ ) $ , $ ~   + . # $ , $ ) $ $ ; $ , - , $ ) $ - $ , $ ) ",
"$ , - $ ' $ , $ - ) ~ > + . # ; $ , - $ , $ ' ) $ - - ) Q.R.S.T.U.$ ) - $ ; $ ~   . . # $ ! $ ) $ - ; $ - $ , - - ' ) ' , ' - ",
"- , $ ' , $ , ' $ ) ~ > +   # ; $ $ , ' $ ) $ ) $ - $ ! V.W.S.X.Y.- ) ' $ , $ ~   . : # $ , $ ) $ - $ - $ $ , $ ) ' - $ ' , $ ",
"$ - , $ ' $ ' , - ) ~   + . # ' ; $ , $ , ! ' - - - ) - Z.`. +.+++- ' ) - $ , ~   . : # , $ $ ) $ ; $ $ , , $ , $ - ' ' - , ) ",
"$ - , $ , $ , ' $ ) ~   + + # ; $ , ! ' $ ) - - $ - $ ) @+#+$+$+%+$ ' ) $ , $ ~   + . & $ , $ $ ) $ - - , $ , $ ) ' - $ , - $ ",
") ) - ' ) ) ' ) ) ) ~   + + ' ; $ $ ! $ , ) $ ) $ ; $ ! &+*+$+=+-+' ) ' $ ; , ~ > + . & $ ! $ ) $ $ - $ - $ , $ ) ' ) ' , $ $ ",
"~ ~ { { { { { { { ~ ~ > + + $ ; ; ; ; ; ; ; ; ; ! ! ! ! ;+>+,+'+)+! ! ! ! ! ~ ~ > + + $ ; ; ; ; ; ; ; ; ; ; ; ; ; ; ; ! ! ! ! ",
"> > > > > > > > > > > > + . + > ] ] ] ] > >       > ] ] !+~+{+]+^+> > > > > > >   + + + > > > >     +   > > ] ] ] > > > > > > ",
". + .   +     + +         + +       + + + + + . . + +   /+(+_+:++ + .   +   +   + + . + .   . + . _ : . <++ +   . + . + .   . ",
"  @ # # # # # # # * * * * * * * * * * * * * * * * * * * [+}+|+1+  .   @ @ # # # # # # # # * * * * * * * * * * * * * * * * * $ ",
". # $ - - $ ; $ $ , ' $ , $ ) - $ ; $ , $ - $ ; $ ; $ $ 2+3+4+5+  + . @ $ $ ; $ ; $ ! $ ) $ ! $ - ! ' - ) $ - , $ , ' ) - $ ~ ",
"+ # $ ; $ - ; $ - ' , $ ; - ! $ ' ; $ ! - ' - ; $ , $ , 6+7+8+9+> + + # - $ ; - ; , ! - ! ' , $ ! $ ; $ ) - ) $ - , ' $ ; - ~ ",
"+ # - ; $ ; - ) ; $ ; $ - , - $ ; ' - - ! , $ { ' ! - ; 0+a+b+c+>   + # - $ ; ; - $ , ! $ , ! ' $ ! $ ) ) $ ) $ , $ ) - ; $ ~ ",
"  # $ - $ - ; $ - , ' $ , $ ! - $ ; $ ! - $ ! ' $ , $ $ 6+d+e+f+>   + # $ ; $ - ; $ ! $ ) ' , , ! - ; $ , - ' - ' , ) $ - $ ~ ",
". # $ ; - $ ; $ ; $ ; $ ; $ ) $ ; ; $ ! - , $ , - ; ' ; 0+d+g+h+]   . # $ ; ; $ ; , ! $ ! $ ! ' ! $ ; - ) $ ) , $ , ' - ; ) ~ ",
"  & $ ; $ ; - ) - ' , $ - - - $ ' ; - , ! ; $ { $ ) ' , 6+d+g+h+]   . & ) $ ; - ; $ ! , $ , ! ' ) - ; $ ) $ ) $ , ' ) $ ; $ ~ ",
". $ ; ; ; ; ; ; ; ; ; { { { { { { { { { { { { { { { { { i+j+k+l+> + . $ ; ; ; ; ; ; ; ; ; ! ! ! ! ! { { { { { { { { { { { ~ ~ ",
"  + > > > > > > > > > >       > ] ] ] ] > > > ] ] ] ] > m+n+o+p+q++   + > > > > > > ] ] ] > B   B > ] > > > > ] ] ] > > > > > ",
".   .   . + . + + + + . : : . + .   . + . + <       < + . + +   + + .   . + + + + + + + + <+. . . <++ + + +   r+] ] r+  + + . ",
"# # # # # * * * * * * * * * * * * $ + . + @ @ # # # # # # # # * * * * * * * * * * * * * * * $ +   . @ # # # # # * * * * * * * ",
", $ ! $ $ ; ' ; $ , & , $ ; $ , $ ~ > + + # $ $ $ $ ; $ { $ , $ ; $ ; $ ' $ ; $ ; $ ! $ ) ; ~   + . # $ ; - $ ! $ ) $ ) $ ; $ ",
"$ , , $ , $ ; ' , ; $ ! , ; - ; - ~ > + + # , $ ) $ ; ) { , ' , $ - ; - ' ; , - ) - ! $ ; $ ~ B + . # ; $ ! $ ) $ ) - $ ) $ - ",
"$ , ! , $ ; ' ; , $ , ! $ - ; ' , ~ > + < # , , ) $ ; , , $ ! $ { $ $ ; $ ; $ ; - ! - - ; ) ~ > + . # ; $ ) ) $ $ - ) - ) ; ) ",
", ' ! ' ; ; $ ; $ , $ ! , ) ; $ ; ~ > + < # $ { ) $ ; $ { $ , ' ; $ ; - , ; $ ; $ - ! ) ' ; ~ > + . # $ ; ! $ - ) ) $ ) $ ; ) ",
"; $ , $ ; $ ; - $ ; $ , ! - $ , - ~ > + < # { $ $ ; $ , ) - ! , { $ ; $ ; , , ; - ) ! - ) ; ~ > + + # ; $ - $ ) $ - ) ) ! $ ) ",
"; $ , , ; ' ' ; ' ; , ! $ ; $ ; ' ~ > + + # { $ ) $ ; , , - { ' ; - { $ , ; $ - ; $ ! $ ! - ~ >   + # ; $ ! ) ! $ ) $ ) ! ; $ ",
", ' ! $ ; ; - ; , , $ ! $ ; ) - , ~ > + . & $ { ) $ ; $ { - ; $ ; $ ) ; $ ; , $ ; - ) - ; - ~ >   + & ; ; ! $ ! $ ) $ ) $ ; $ ",
"{ { { { { { { { { { { { { { { { ~ ~ > + + $ ~ ~ ~ ~ ~ { { { { { { { { { { { { { { { { { { ~ ~ ] + . $ ~ ~ { { { { { { { { { { ",
"> > > > > > > > > > > > > > > > > > > + . +   B B > > > > > > > > > > > > > > ] ] ] ] ] > ] ] ]   + + > > > > > > ] ] ] ] ] > ",
"  .   .       + + + + + . .   + + + + . . . . . + + + . + + + . + +   + + + <     <     < + <   < . + +   . + + + + <   < + + "};
