/* XPM */
static char * torch2_wall_2_xpm[] = {
"63 63 274 2",
"  	c #2C2C2C",
". 	c #545454",
"+ 	c #484848",
"@ 	c #DCDCDC",
"# 	c #CCC400",
"$ 	c #B4AC00",
"% 	c #202020",
"& 	c #383838",
"* 	c #8C8C8C",
"= 	c #A8A8A8",
"- 	c #707070",
"; 	c #D0D0D0",
"> 	c #989898",
", 	c #C0C0C0",
"' 	c #B4B4B4",
") 	c #7C7C7C",
"! 	c #9C9C00",
"~ 	c #706C00",
"{ 	c #646464",
"] 	c #848400",
"^ 	c #E4D800",
"/ 	c #585400",
"( 	c #ECECEC",
"_ 	c #9C8C86",
": 	c #D9843C",
"< 	c #8B5A36",
"[ 	c #FCF420",
"} 	c #756862",
"| 	c #CF803E",
"1 	c #E48730",
"2 	c #845024",
"3 	c #4F4038",
"4 	c #C99F89",
"5 	c #FBEB22",
"6 	c #9E6B4B",
"7 	c #ED9036",
"8 	c #F0963F",
"9 	c #D27E30",
"0 	c #C67A3B",
"a 	c #D89A73",
"b 	c #CCC301",
"c 	c #B0A6A2",
"d 	c #8F8C8B",
"e 	c #73706F",
"f 	c #CA7D3B",
"g 	c #F19841",
"h 	c #F49B43",
"i 	c #F29337",
"j 	c #D39B7B",
"k 	c #7E7C7B",
"l 	c #CF8E64",
"m 	c #D2BE0D",
"n 	c #83614E",
"o 	c #EB9038",
"p 	c #F19942",
"q 	c #E38833",
"r 	c #E6D10B",
"s 	c #E4D702",
"t 	c #AA826C",
"u 	c #EB9249",
"v 	c #E6D00C",
"w 	c #7C5944",
"x 	c #E78A2F",
"y 	c #EF953D",
"z 	c #DC8435",
"A 	c #E5D20A",
"B 	c #B98465",
"C 	c #928C8A",
"D 	c #B48467",
"E 	c #EA8F40",
"F 	c #AA9A0C",
"G 	c #727070",
"H 	c #5E5653",
"I 	c #675146",
"J 	c #CC792B",
"K 	c #E7892E",
"L 	c #A2693F",
"M 	c #9B8072",
"N 	c #D68E5D",
"O 	c #AF836A",
"P 	c #EB9245",
"Q 	c #EDAC26",
"R 	c #6F5B51",
"S 	c #A06840",
"T 	c #905625",
"U 	c #935925",
"V 	c #6F482C",
"W 	c #D19B7B",
"X 	c #F08F34",
"Y 	c #ED8F36",
"Z 	c #F2963C",
"` 	c #AF7D5E",
" .	c #292420",
"..	c #5C3D22",
"+.	c #C37829",
"@.	c #C27729",
"#.	c #E88D2F",
"$.	c #F19334",
"%.	c #F09236",
"&.	c #EB8C2E",
"*.	c #975F35",
"=.	c #212020",
"-.	c #724822",
";.	c #E8902F",
">.	c #F1962E",
",.	c #ED932C",
"'.	c #F29A38",
").	c #F6A146",
"!.	c #EE963A",
"~.	c #B76D29",
"{.	c #382921",
"].	c #4D4947",
"^.	c #BB7637",
"/.	c #F29A37",
"(.	c #F59F3B",
"_.	c #F59D37",
":.	c #F7A23F",
"<.	c #F6A041",
"[.	c #E49041",
"}.	c #A9990D",
"|.	c #BEB40A",
"1.	c #D69229",
"2.	c #F09D39",
"3.	c #F6A540",
"4.	c #F7A540",
"5.	c #F3A33F",
"6.	c #DA9139",
"7.	c #BEA292",
"8.	c #C5BD04",
"9.	c #A79E0A",
"0.	c #A2733A",
"a.	c #BB812D",
"b.	c #DD9538",
"c.	c #E19839",
"d.	c #C1862E",
"e.	c #AA7F48",
"f.	c #8C8986",
"g.	c #9B9B01",
"h.	c #8F8E8C",
"i.	c #94724A",
"j.	c #9D7027",
"k.	c #A67627",
"l.	c #A97827",
"m.	c #A27427",
"n.	c #92744E",
"o.	c #969593",
"p.	c #E1D502",
"q.	c #7A7064",
"r.	c #77551D",
"s.	c #8C6422",
"t.	c #916825",
"u.	c #805C20",
"v.	c #6B571F",
"w.	c #B1A90E",
"x.	c #928F8C",
"y.	c #634916",
"z.	c #664818",
"A.	c #72511C",
"B.	c #70501B",
"C.	c #60461D",
"D.	c #6E6B13",
"E.	c #404000",
"F.	c #8E8D8B",
"G.	c #5E4818",
"H.	c #674919",
"I.	c #694B18",
"J.	c #6C4D1A",
"K.	c #5E451B",
"L.	c #888582",
"M.	c #989694",
"N.	c #5C461B",
"O.	c #6C4D19",
"P.	c #684A19",
"Q.	c #6D4E1B",
"R.	c #59431E",
"S.	c #7D7A76",
"T.	c #A7A7A7",
"U.	c #A49B10",
"V.	c #5E4517",
"W.	c #6C4E19",
"X.	c #6D4D1B",
"Y.	c #533F1F",
"Z.	c #878582",
"`.	c #CBC300",
" +	c #817D10",
".+	c #5C4318",
"++	c #624518",
"@+	c #6C4C1B",
"#+	c #60451D",
"$+	c #473A20",
"%+	c #7C7A76",
"&+	c #645C0E",
"*+	c #58401B",
"=+	c #5F4318",
"-+	c #64471A",
";+	c #66481B",
">+	c #71685F",
",+	c #767574",
"'+	c #A3A2A1",
")+	c #897D10",
"!+	c #593F17",
"~+	c #5F4418",
"{+	c #614520",
"]+	c #746F6C",
"^+	c #A59B0D",
"/+	c #563D18",
"(+	c #5C4119",
"_+	c #6A5C4F",
":+	c #969696",
"<+	c #736C0D",
"[+	c #664A1A",
"}+	c #5A4019",
"|+	c #64503A",
"1+	c #868482",
"2+	c #62590B",
"3+	c #553D17",
"4+	c #5A401A",
"5+	c #5E431B",
"6+	c #999693",
"7+	c #7C7875",
"8+	c #503918",
"9+	c #5B401A",
"0+	c #6A6662",
"a+	c #503919",
"b+	c #583F1B",
"c+	c #58442F",
"d+	c #54514F",
"e+	c #392F24",
"f+	c #4A3517",
"g+	c #533B19",
"h+	c #583F1C",
"i+	c #34291F",
"j+	c #3D352F",
"k+	c #45331E",
"l+	c #553B1A",
"m+	c #4D3B26",
"n+	c #3A3837",
"o+	c #908F05",
"p+	c #665E13",
"q+	c #573D1B",
"r+	c #7B7213",
"s+	c #C9C101",
"t+	c #8A8012",
"u+	c #583D1B",
"v+	c #988C13",
"w+	c #B1A901",
"x+	c #7D7212",
"y+	c #583E1B",
"z+	c #8B7D14",
"A+	c #6F6812",
"B+	c #543C1C",
"C+	c #7B7314",
"D+	c #8A8A8A",
"E+	c #665F59",
"F+	c #523B1C",
"G+	c #6A6212",
"H+	c #D9D9D9",
"I+	c #837E7A",
"J+	c #5E4C1A",
"K+	c #6C6706",
"L+	c #8D8884",
"M+	c #5A481A",
"N+	c #6E6C6B",
"O+	c #57442F",
"P+	c #797776",
"Q+	c #CDCDCD",
"R+	c #7C7773",
"S+	c #594734",
"T+	c #A7A5A4",
"U+	c #898887",
"V+	c #51473C",
"W+	c #4C361A",
"X+	c #51412F",
"Y+	c #6A6867",
"                                                                                                                              ",
". . . . . . . . . . + @ # # # # # @ @ @ @ @ @ $ $ $ @ % & * = @ @ @ @ @ # # # - * * . % + + + + + + + + + + . . . . . . . . . ",
". . . . . . . . . . + @ ; $ $ $ $ > = # # ; , , # # * % & * , ' * # ) # ! ! ! ~ . . & % & - ! ! ! ! ) ) ) - { + + + + + + + + ",
"* * * * * * * * % . + @ ; $ $ $ ~ > # # ! , , , ] $ { % & = @ = * ) # ) ~ ] ~ . ) . & % & ! # ^ ! ~ * ' , # # # { { # # * * * ",
"; ' $ ' ' = * * % . + @ ; ! ! ] ~ > # ! = = > * * ! . % & * , * * * = = { ] ~ . - . & % & ! ^ $ ~ { ) ' @ # ^ ^ + { # # ] ) ; ",
"= = $ $ . - ) - % . + @ , ! ] ~ - ) > = > ! * - * ] . % & + = # ! = * * ) / . - . . & % & ! ^ ~ { * ' ^ # ) ! ! + { ! ] ~ + * ",
"' > ~ . * * * - % + + @ ; ! ~ ~ ) = > > > ! * > - * . % & + ) ! ] $ * = = - { - & & & % & ] ! ~ { ) # # # ) ~ ! + - { + + { $ ",
"' ' ) * = * - . % & + @ ; * ) ) > = > ; ) ] > = * * . % & + - * = * = * * * = - & & &   & ] ~ { * * ) # ) ) ~ ~ + - ) * - ) ] ",
"> = = - - * + + %   + @ , = > ) > # > > * > * * = * . % % + . - - . . & & & & & & & % & & ) { * ) = = ) * = ) + - * > * * = ) ",
"* * * * - . + + %   + @ ( = ) > ) # $ - * * * = * * .   % + + & & & & & & & & & % % & & & ) ' ' * ! ) > ) ) > { - > * > * * = ",
"- - - - . + & & %   + @ @ * ) > > # ! - = * = * = * .   % & + &     % % % % %     & & & & ) ' ) ! + * = ^ ) * - * - > { - * { ",
". . + + + % % % %   + = @ = > ) # $ ! - > * * ) * - { & % & + + + + - = = = = @ @ ~ & & & - ' * ) { { ) ! & . . { + + + + + + ",
"% % % % %         & . * @ ; * ) * ! - * * = ) * ! _ : < % & + - = [ [ @ @ @ ; ; @ # ~ & & . * - { { . + / & & & & & &         ",
"                  & . - = ; * = * * * = * * > * { } | 1 2   3 4 5 # ! * * = * = ! - / % & & & & & & & & & & &     % % % % % % ",
"& & & & & & & & & & . + * ; = * = > - > * ) * = ] . 6 7 8 9 0 a b ] ) c d ^ ^ * ! . ~ & &                     & & & & & & & & ",
". + & & & & & & & & . + - , * = > # ! - = * = * ~ . e f g h i j ^ ] k l m ^ ) * ] . / & + + . . . . % + + + + + + + + + + + + ",
"> > > > > > > > >   % . + , , ] * ! ] = - * * * - { . n o p q r s ) t u v ^ - * ~ . & & + ^ $ $ { . + . ) > > > > > > > > > > ",
"; # $ @ @ # ! - - & % . + * , ~ { > { * - - = * - * - w x y z A B C D E F ~ { = * . & & & $ $ ] {   + ) , # # # @ $ = = # # # ",
"# $ ] $ $ ! ~ . - & % . + - > { { * * - * . * - . G H I J K L M N O P Q } { { . . . & % & ! ] . { % + > # # # ) ^ ! ) = # ! ] ",
"$ ] = $ ! ] ~ . - & % + . + > > - * { - - - - . - R S   T U V W X Y Z ` . & & & & & & % { ! ] - . % + > # # ) > ! ! ) > # ! ] ",
"] = * $ ! ~ ~ . . & % + . + { . . & & & & & &   % % %  ...+.@.#.$.%.&.*.% % % % % % % % { * ] * . % + > = ) * > ! ) ) = # ! ] ",
"= * = $ ~ . . * . & % + . +         % % % % % % % % =.-.;.>.,.'.).!.~.{.% %             * = * = . % + * = > = > = ) = ) = ! ~ ",
"* = ) ) . - * - . & % & . . + & % % % % % % % % + + ].^./.(._.:.<.[.}.! ! ! ! ) .   & { , @ = , { % + * * = ^ > * = > = = ) ) ",
"* # ! ) * * * { + & % & * # # $ ! * ' ' ' { & + { ! |.1.2.3.4.5.6.7.8.# # # $ ! ] % & ) @ , @ = - % + ) > = > * = > ^ > ) = > ",
"* ! ] = * * * { + & % & # $ $ ! ) ) ) ) ) & . + ! # 9.0.a.b.c.d.e.f.g.) ! ] ! ] ~ % & * @ = = , ^ % + ^ = > = > ^ ^ ) = > > = ",
"> ] * * * * - . & & % & $ ! ] { { { { { { % . + > ( h.i.j.k.l.m.n.o.) = ] ) ! ~ / % & * ^ * * = ! % + ! / - { ^ $ ] ~ / - - . ",
"{ { { { { . + & & & % & $ ] { { > ] ! ~ { % + + > ( p.q.r.s.t.u.v.w.= > ] = ] { / % & * $ - * = ~ % + / & & + / / / / + + . . ",
". + + & & & % % % %   & $ ] { > > ) ] ~ { % + + > ( # x.y.z.A.B.C.D.> = > > ) { E.% & * - * = @ / % +     % % % % % % % % & & ",
"% % % % % %       + + + ( { > = ] * ] ~ { % & + > ( $ F.G.H.I.J.K.L.> ) $ ] ) { E.% & ^ ( = @ = . % + & & & &       % % % % % ",
"+ { { - * > * * * * + % ( > > = ] * { ) { E.% + > ( $ M.N.O.P.Q.R.S.= > $ ] ) . E.% & $ ( , , = . % + & & & & & & & & & & & & ",
"{ * ' $ $ * = = = = { % ( = ; * ~ = * ) { E.% + > ( T.U.V.W.P.X.Y.Z.> = $ ] * . E.% ~ ! @ = = $ . % + ~ ! ! ! $ $ ] ] + + + + ",
"{ ' $ $ ] { = = = = + % ( = > = ) * ) * { E.% + ) > `. +.+++@+#+$+%+) > $ ] { . E.% & ! @ @ $ ! . % + - ! ~ ! ! ! $ $ $ ] > & ",
"{ $ ! ] { * = $ $ - { % ( ; = > = ] * = { E.% & . > ! &+*+=+-+;+>+,+> ) $ ] - + & % & ! @ = $ ~ . % + > - - ! ! ] ] ~ ~ ~ ) & ",
"{ $ ! - - = - $ ] - { % ( > * > = * * ) { E.%   . = ( '+)+!+~+{+]+) ) ) $ ] { +   % ~ * ; , $ / . % + @ = = ! ~ - - / { - { & ",
"{ - * = * - * $ ~ - . % @ = = = > = = ) { E.%   . * ( , ^+/+(+_+:+> * = ! ] { + % % ! * ; = ] ~ E.% + ; = * ! ~ * ) > { > { & ",
"{ = = * = = $ ! ~ - . % @ , ) > # $ ) * { E.% % + - ; , <+[+}+|+1+= > $ ! { { & % % + * ; * ~ / E.% + , = = ! ~ ) * > > = . & ",
"{ @ > = * * ] ~ ~ - . % , @ * > $ ] * = { E.E.% + . ' @ 2+3+4+5+6+* ] { { { - & % & + ) = ) ~ E./ & + = = * ! ] - > ) - > . & ",
"{ @ = = * > ~ ~ - - . % ' @ ) = * * * * { E.E.% & . * , 7+8+4+9+0+- { { - - . & % & + . & & / / & & + - . + . . . . . . . . & ",
"{ @ ' * $ ] * - * > . % > @ = ) = = ) * { . E.% & . + * ]+a+b+c+d++ % E.+ . + % % & + . + + & & & + + % % % % % % % % % % % % ",
"{ @ ' = * > * $ ! - . % ) @ > > = * { * ) . E.%   + + & e+f+g+h+i+      & & & & & & + + + + + + + + + + + + & & & & & & & & & ",
"{ @ $ $ > * $ ! ] - . % . ( = = * * * = ) . / %   + + + j+k+l+m+n++ + + . . { { { - - ) ) ) ) ) ] ] ] ] ) ) ) ) ) ) ) ) ) ) & ",
"{ $ $ ] = > ! ~ ~ { . % + ( > * ! ) * ) ) . / %   & { ! o+p+q+r+! ! ] ) ) * > > = = = = = ' ' # # # $ ] , , ^ $ , # $ ] , ) & ",
"{ $ ] ) > > * ~ ~ { %   + ( = * ] { = * { . / % % & ~ # s+t+u+v+# # # ! = , = , > , = , , , # $ ] ] ] ' ' ^ $ , , $ $ $ ] {   ",
"{ $ ] ) = * * * * . %   + ( * = { { * * { . / % % & ~ # w+x+y+z+$ $ $ ] = , = = , # ! > = > $ ] = > # # $ ) * , $ ! $ ] ) .   ",
"{ $ ] * * = * = * . % & + @ = = = = * = { . E.% % &   $ w+A+B+C+! ! ! ] ~ * , = = ! ! = = > , > = # $ $ ) * > = - - $ - - .   ",
"+ ] ) * = * = * { . % & + ; * * = * * * { . & % % &   * D+E+F+G+! ] ] ~ ~ - = , = * ) > , > > = # ) ) ) > = = > * * $ - - .   ",
"+ * * * * ) { . . %   & + ' = * * = * ) { . & % % &   , H+I+J+K+~ ~ ~ - - * = , * ' * > > # # > * ) - * * ^ $ ' = * $ - - .   ",
"+ ) ) - { . . . . %   & + > > = * * * - { . & % % &   ' H+L+M+N+- - - ) > * ! = ' = * ' # = * * = * * > ' $ ] = > > - - - . % ",
"+ & % . . . . . . % & + + ) { { { { { { . . & % % &   = H+L+O+P+* * $ $ ] ' * * ' > = ' = * $ = $ = > ' $ ] > = = > $ $ - . % ",
". . .     % %   %   & + & & & & & & & & & & & % %     * Q+R+S+T+> ' $ $ ~ * ' * ' > * * ^ $ ~ > = , > = > > = > * * ' ) - . % ",
"+ + + + & &         & + & & % % % % % % % % % % % %   * U+V+W+X+Y+- ] ~ ~ * = - ) * ' ^ $ ~ = * = > * * ' ) * * # > * > - . % ",
"+ ) = # # # ! * { + + . & &                         & . + &             . - - ) * $ ' ~ ~ ) ) - { ) * * * ) ) ' ) { ) ) { . % ",
"+ = # ^ # # # # $ ! = * - { . + & & & & & & & & & & + . + + & & & & & &   + . . . . . . . . . . . . . . . . . . . . . . . %   ",
"+ = # ^ $ * * * > = , $ ^ ^ # # # $ $ $ $ $ ] - ) - { { . . + + + + + & &           % %             % % % % % % % % % % %   & ",
"+ = , > $ > , , ' , ' , = * * ! ! ! ! ! ! ! ! ] * * , = = = = = * + . + & & & & & & & & &                               & & + ",
"+ = , , > , ' = = > , = ' , ' = * * * * * ] ] ] * > , @ ^ ^ * , ) & + . + + + & & & & & & & & & & & & & & & & & & & & & + + + ",
"+ = ' ; , ' , ^ $ ] ' ' ; = ; , , # ! > * * * * * ' = * ^ ] * ) { % & . + ] $ $ $ { + + + . . . ~ $ ! ] ~ ~ / + + + + + . . . ",
"+ = , , = * ) $ ] / , = , ; = = = ; , , = , = ; = ) = ; = * * { . % & + + $ ] ] ] { @ @ ' . . ! # # # ! ) # = = ; # ' > ) + + ",
"+ = * - { { { ] / - ) - { - ) - { { { - ) * = * ) { { { { { { . . & % & + { ] ] ~ { ' ' ' { . * ) ) ) ) ) = = * # ! - = @ > % ",
"+ * { + & & & & & & & & & & & & & & & & & & & & & & & & & & & & & & %   + ' ] ~ { > { > * { + * * = * = # # = = ! ] - * = . % ",
"+ & % % % % % % % % % % % % % % % % % % % % % % % % % % % % % % % % %   + & E./ . { { { { { + { { > = # # ! ) = ] - - * * . % ",
". + & & &                                                               & + E.E.& % % % % % & + . . ~ / . . . ~ / . . . . . % ",
". . . . + + + + + + + + & & & & & & & & & & & & & & & & & & & & & & & & & + + + + & & & & & & + + % % % % % % % % % % % % % % "};
