/* XPM */
static char * torch1_wall_2_xpm[] = {
"63 63 243 2",
"  	c #2C2C2C",
". 	c #545454",
"+ 	c #484848",
"@ 	c #DCDCDC",
"# 	c #CCC400",
"$ 	c #B4AC00",
"% 	c #202020",
"& 	c #383838",
"* 	c #8C8C8C",
"= 	c #A8A8A8",
"- 	c #707070",
"; 	c #D0D0D0",
"> 	c #989898",
", 	c #C0C0C0",
"' 	c #B4B4B4",
") 	c #7C7C7C",
"! 	c #9C9C00",
"~ 	c #706C00",
"{ 	c #646464",
"] 	c #848400",
"^ 	c #E4D800",
"/ 	c #585400",
"( 	c #ECECEC",
"_ 	c #4E3F38",
": 	c #AA6529",
"< 	c #734E37",
"[ 	c #5A5554",
"} 	c #C87834",
"| 	c #BE702B",
"1 	c #FCF420",
"2 	c #83624F",
"3 	c #E18734",
"4 	c #EB8F36",
"5 	c #7B4D2C",
"6 	c #A66F49",
"7 	c #F29338",
"8 	c #ED933F",
"9 	c #8B562C",
"0 	c #AB7C60",
"a 	c #EE933A",
"b 	c #F0953E",
"c 	c #CF7B2E",
"d 	c #4A4848",
"e 	c #5C5653",
"f 	c #CC7E3C",
"g 	c #EA8B2E",
"h 	c #DA812D",
"i 	c #755745",
"j 	c #73706F",
"k 	c #C27739",
"l 	c #ED8D30",
"m 	c #F2963C",
"n 	c #B5723D",
"o 	c #E4D701",
"p 	c #795844",
"q 	c #E88A30",
"r 	c #F49A43",
"s 	c #E68C38",
"t 	c #927E75",
"u 	c #9A8C86",
"v 	c #9A8073",
"w 	c #372F2C",
"x 	c #B06A2A",
"y 	c #F39942",
"z 	c #F2973F",
"A 	c #CF9A7C",
"B 	c #A98D7E",
"C 	c #B37E5D",
"D 	c #2B2420",
"E 	c #4C3221",
"F 	c #2E2520",
"G 	c #A66327",
"H 	c #F19436",
"I 	c #F59E46",
"J 	c #CB854C",
"K 	c #BF7D4B",
"L 	c #A96935",
"M 	c #503421",
"N 	c #C7762A",
"O 	c #905725",
"P 	c #C2742A",
"Q 	c #F4993A",
"R 	c #F6A045",
"S 	c #F09435",
"T 	c #EE9232",
"U 	c #AD6B35",
"V 	c #685246",
"W 	c #A16940",
"X 	c #F29532",
"Y 	c #F7A141",
"Z 	c #F7A344",
"` 	c #F6A143",
" .	c #F69E41",
"..	c #C89678",
"+.	c #CDC302",
"@.	c #E4A328",
"#.	c #F29D3B",
"$.	c #F6A442",
"%.	c #F7A442",
"&.	c #F3A241",
"*.	c #D98F39",
"=.	c #DAC3B7",
"-.	c #B4AB02",
";.	c #A17648",
">.	c #B87F2E",
",.	c #DB9439",
"'.	c #E0963A",
").	c #BD822F",
"!.	c #9E7439",
"~.	c #888480",
"{.	c #989797",
"].	c #94795D",
"^.	c #976C28",
"/.	c #A17228",
"(.	c #A37428",
"_.	c #9D7027",
":.	c #917350",
"<.	c #979695",
"[.	c #E2D601",
"}.	c #7B7064",
"|.	c #76551E",
"1.	c #876022",
"2.	c #8C6424",
"3.	c #805C20",
"4.	c #908119",
"5.	c #C9C102",
"6.	c #CAC201",
"7.	c #726B63",
"8.	c #5C4116",
"9.	c #644717",
"0.	c #694B19",
"a.	c #6E4E1A",
"b.	c #8F7F15",
"c.	c #838201",
"d.	c #404000",
"e.	c #B3AB01",
"f.	c #726E68",
"g.	c #594319",
"h.	c #604318",
"i.	c #614518",
"j.	c #65481A",
"k.	c #706050",
"l.	c #A6A5A5",
"m.	c #B3AB00",
"n.	c #91908E",
"o.	c #645617",
"p.	c #644818",
"q.	c #614419",
"r.	c #65481C",
"s.	c #736C65",
"t.	c #989897",
"u.	c #BDB505",
"v.	c #5A4315",
"w.	c #634818",
"x.	c #5E4219",
"y.	c #684E2D",
"z.	c #9C9996",
"A.	c #929005",
"B.	c #553E18",
"C.	c #5B4018",
"D.	c #66471B",
"E.	c #84786D",
"F.	c #979796",
"G.	c #6B6505",
"H.	c #523C1E",
"I.	c #573D18",
"J.	c #5F4319",
"K.	c #6C553C",
"L.	c #9E9B99",
"M.	c #A3A3A2",
"N.	c #877C10",
"O.	c #523B17",
"P.	c #5A3F19",
"Q.	c #5D4320",
"R.	c #74706D",
"S.	c #A59B0D",
"T.	c #543C18",
"U.	c #5A401A",
"V.	c #695C4F",
"W.	c #969696",
"X.	c #736C0D",
"Y.	c #664A1A",
"Z.	c #624E3A",
"`.	c #868482",
" +	c #61580C",
".+	c #523B18",
"++	c #573E1B",
"@+	c #5B411C",
"#+	c #999693",
"$+	c #7C7875",
"%+	c #4F3818",
"&+	c #583F1B",
"*+	c #6A6562",
"=+	c #746F6C",
"-+	c #503919",
";+	c #57442F",
">+	c #54514F",
",+	c #392F24",
"'+	c #4A3517",
")+	c #533B1A",
"!+	c #342A1F",
"~+	c #3F352C",
"{+	c #483416",
"]+	c #563D1A",
"^+	c #4E3C26",
"/+	c #3A3837",
"(+	c #8B8907",
"_+	c #544515",
":+	c #593F1A",
"<+	c #7C7312",
"[+	c #C8C001",
"}+	c #766A13",
"|+	c #593F1B",
"1+	c #998D13",
"2+	c #B1A901",
"3+	c #6A5E14",
"4+	c #583E1B",
"5+	c #8B7D14",
"6+	c #615714",
"7+	c #563D1B",
"8+	c #7C7314",
"9+	c #8A8989",
"0+	c #5C5047",
"a+	c #543C1B",
"b+	c #6A6212",
"c+	c #D8D8D8",
"d+	c #736B65",
"e+	c #5E4C1A",
"f+	c #6C6706",
"g+	c #7A736E",
"h+	c #5A481A",
"i+	c #6E6C6B",
"j+	c #57432F",
"k+	c #797776",
"l+	c #CCCCCC",
"m+	c #6D655F",
"n+	c #584733",
"o+	c #A7A5A4",
"p+	c #848281",
"q+	c #493929",
"r+	c #4C361A",
"s+	c #51412F",
"t+	c #6A6867",
"                                                                                                                              ",
". . . . . . . . . . + @ # # # # # @ @ @ @ @ @ $ $ $ @ % & * = @ @ @ @ @ # # # - * * . % + + + + + + + + + + . . . . . . . . . ",
". . . . . . . . . . + @ ; $ $ $ $ > = # # ; , , # # * % & * , ' * # ) # ! ! ! ~ . . & % & - ! ! ! ! ) ) ) - { + + + + + + + + ",
"* * * * * * * * % . + @ ; $ $ $ ~ > # # ! , , , ] $ { % & = @ = * ) # ) ~ ] ~ . ) . & % & ! # ^ ! ~ * ' , # # # { { # # * * * ",
"; ' $ ' ' = * * % . + @ ; ! ! ] ~ > # ! = = > * * ! . % & * , * * * = = { ] ~ . - . & % & ! ^ $ ~ { ) ' @ # ^ ^ + { # # ] ) ; ",
"= = $ $ . - ) - % . + @ , ! ] ~ - ) > = > ! * - * ] . % & + = # ! = * * ) / . - . . & % & ! ^ ~ { * ' ^ # ) ! ! + { ! ] ~ + * ",
"' > ~ . * * * - % + + @ ; ! ~ ~ ) = > > > ! * > - * . % & + ) ! ] $ * = = - { - & & & % & ] ! ~ { ) # # # ) ~ ! + - { + + { $ ",
"' ' ) * = * - . % & + @ ; * ) ) > = > ; ) ] > = * * . % & + - * = * = * * * = - & & &   & ] ~ { * * ) # ) ) ~ ~ + - ) * - ) ] ",
"> = = - - * + + %   + @ , = > ) > # > > * > * * = * . % % + . - - . . & & & & & & & % & & ) { * ) = = ) * = ) + - * > * * = ) ",
"* * * * - . + + %   + @ ( = ) > ) # $ - * * * = * * .   % + + & & & & & & & & & % % & & & ) ' ' * ! ) > ) ) > { - > * > * * = ",
"- - - - . + & & %   + @ @ * ) > > # ! - = * = * = * .   % & + &     % % % % %     & & & & ) ' ) ! + * = ^ ) * - * - > { - * { ",
". . + + + % % % %   + = @ = > ) # $ ! - > * * ) * - { _ : < + + + + - = = = = @ @ ~ & & & - ' * ) { { ) ! & . . { + + + + + + ",
"% % % % %         & . * @ ; * ) * ! - * * = ) * ! * [ } | & + - = 1 1 @ @ @ ; ; @ # ~ & & . * - { { . + / & & & & & &         ",
"                  & . - = ; * = * * * = * * > * { { 2 3 4 5 & = 1 # ! * * = * = ! - / % & & & & & & & & & & &     % % % % % % ",
"& & & & & & & & & & . + * ; = * = > - > * ) * = ] . 6 7 8 9 + = # ] ) = * ^ ^ * ! . ~ & &                     & & & & & & & & ",
". + & & & & & & & & . + - , * = > # ! - = * = * ~ . 0 a b c d = ^ ] ) * # ^ ) * ] . / & + + . . . . % + + + + + + + + + + + + ",
"> > > > > > > > >   % . + , , ] * ! ] = - * * * - { e f g h i ^ ^ ) ) = ^ ^ - * ~ . & & + ^ $ $ { . + . ) > > > > > > > > > > ",
"; # $ @ @ # ! - - & % . + * , ~ { > { * - - = * - * j k l m n o ) * ) * ! ~ { = * . & & & $ $ ] {   + ) , # # # @ $ = = # # # ",
"# $ ] $ $ ! ~ . - & % . + - > { { * * - * . * - . - . p q r s t u v * ^ { { { . . . & % & ! ] . { % + > # # # ) ^ ! ) = # ! ] ",
"$ ] = $ ! ] ~ . - & % + . + > > - * { - - - - . - . + w x y z A B C * - . & & & & & & % { ! ] - . % + > # # ) > ! ! ) > # ! ] ",
"] = * $ ! ~ ~ . . & % + . + { . . & & & & & &   % D E F G H I J K L & & % % % % % % % % { * ] * . % + > = ) * > ! ) ) = # ! ] ",
"= * = $ ~ . . * . & % + . +         % % % % % % % M N O P Q R S T U % % % %             * = * = . % + * = > = > = ) = ) = ! ~ ",
"* = ) ) . - * - . & % & . . + & % % % % % % % % + + V W X Y Z `  ...! ! ! ! ! ) .   & { , @ = , { % + * * = ^ > * = > = = ) ) ",
"* # ! ) * * * { + & % & * # # $ ! * ' ' ' { & + { ! +.@.#.$.%.&.*.=.# # # # $ ! ] % & ) @ , @ = - % + ) > = > * = > ^ > ) = > ",
"* ! ] = * * * { + & % & # $ $ ! ) ) ) ) ) & . + ! # -.;.>.,.'.).!.~.! ) ! ] ! ] ~ % & * @ = = , ^ % + ^ = > = > ^ ^ ) = > > = ",
"> ] * * * * - . & & % & $ ! ] { { { { { { % . + > ( {.].^./.(._.:.<.) = ] ) ! ~ / % & * ^ * * = ! % + ! / - { ^ $ ] ~ / - - . ",
"{ { { { { . + & & & % & $ ] { { > ] ! ~ { % + + > ( [.}.|.1.2.3.4.5.= > ] = ] { / % & * $ - * = ~ % + / & & + / / / / + + . . ",
". + + & & & % % % %   & $ ] { > > ) ] ~ { % + + > ( 6.7.8.9.0.a.b.c.> = > > ) { d.% & * - * = @ / % +     % % % % % % % % & & ",
"% % % % % %       + + + ( { > = ] * ] ~ { % & + > ( e.f.g.h.i.j.k.l.> ) $ ] ) { d.% & ^ ( = @ = . % + & & & &       % % % % % ",
"+ { { - * > * * * * + % ( > > = ] * { ) { d.% + > ( m.n.o.p.q.r.s.t.= > $ ] ) . d.% & $ ( , , = . % + & & & & & & & & & & & & ",
"{ * ' $ $ * = = = = { % ( = ; * ~ = * ) { d.% + > ( = u.v.w.x.y.z.= > = $ ] * . d.% ~ ! @ = = $ . % + ~ ! ! ! $ $ ] ] + + + + ",
"{ ' $ $ ] { = = = = + % ( = > = ) * ) * { d.% + ) > # A.B.C.D.E.F.> ) > $ ] { . d.% & ! @ @ $ ! . % + - ! ~ ! ! ! $ $ $ ] > & ",
"{ $ ! ] { * = $ $ - { % ( ; = > = ] * = { d.% & . > ! G.H.I.J.K.L.) > ) $ ] - + & % & ! @ = $ ~ . % + > - - ! ! ] ] ~ ~ ~ ) & ",
"{ $ ! - - = - $ ] - { % ( > * > = * * ) { d.%   . = ( M.N.O.P.Q.R.) ) ) $ ] { +   % ~ * ; , $ / . % + @ = = ! ~ - - / { - { & ",
"{ - * = * - * $ ~ - . % @ = = = > = = ) { d.%   . * ( , S.T.U.V.W.> * = ! ] { + % % ! * ; = ] ~ d.% + ; = * ! ~ * ) > { > { & ",
"{ = = * = = $ ! ~ - . % @ , ) > # $ ) * { d.% % + - ; , X.Y.U.Z.`.= > $ ! { { & % % + * ; * ~ / d.% + , = = ! ~ ) * > > = . & ",
"{ @ > = * * ] ~ ~ - . % , @ * > $ ] * = { d.d.% + . ' @  +.+++@+#+* ] { { { - & % & + ) = ) ~ d./ & + = = * ! ] - > ) - > . & ",
"{ @ = = * > ~ ~ - - . % ' @ ) = * * * * { d.d.% & . * , $+%+&+&+*+- { { - - . & % & + . & & / / & & + - . + . . . . . . . . & ",
"{ @ ' * $ ] * - * > . % > @ = ) = = ) * { . d.% & . + * =+-+&+;+>++ % d.+ . + % % & + . + + & & & + + % % % % % % % % % % % % ",
"{ @ ' = * > * $ ! - . % ) @ > > = * { * ) . d.%   + + & ,+'+)+&+!+      & & & & & & + + + + + + + + + + + + & & & & & & & & & ",
"{ @ $ $ > * $ ! ] - . % . ( = = * * * = ) . / %   + + + ~+{+]+^+/++ + + . . { { { - - ) ) ) ) ) ] ] ] ] ) ) ) ) ) ) ) ) ) ) & ",
"{ $ $ ] = > ! ~ ~ { . % + ( > * ! ) * ) ) . / %   & { ! (+_+:+<+! ! ] ) ) * > > = = = = = ' ' # # # $ ] , , ^ $ , # $ ] , ) & ",
"{ $ ] ) > > * ~ ~ { %   + ( = * ] { = * { . / % % & ~ # [+}+|+1+# # # ! = , = , > , = , , , # $ ] ] ] ' ' ^ $ , , $ $ $ ] {   ",
"{ $ ] ) = * * * * . %   + ( * = { { * * { . / % % & ~ # 2+3+4+5+$ $ $ ] = , = = , # ! > = > $ ] = > # # $ ) * , $ ! $ ] ) .   ",
"{ $ ] * * = * = * . % & + @ = = = = * = { . d.% % &   $ 2+6+7+8+! ! ! ] ~ * , = = ! ! = = > , > = # $ $ ) * > = - - $ - - .   ",
"+ ] ) * = * = * { . % & + ; * * = * * * { . & % % &   * 9+0+a+b+! ] ] ~ ~ - = , = * ) > , > > = # ) ) ) > = = > * * $ - - .   ",
"+ * * * * ) { . . %   & + ' = * * = * ) { . & % % &   , c+d+e+f+~ ~ ~ - - * = , * ' * > > # # > * ) - * * ^ $ ' = * $ - - .   ",
"+ ) ) - { . . . . %   & + > > = * * * - { . & % % &   ' c+g+h+i+- - - ) > * ! = ' = * ' # = * * = * * > ' $ ] = > > - - - . % ",
"+ & % . . . . . . % & + + ) { { { { { { . . & % % &   = c+g+j+k+* * $ $ ] ' * * ' > = ' = * $ = $ = > ' $ ] > = = > $ $ - . % ",
". . .     % %   %   & + & & & & & & & & & & & % %     * l+m+n+o+> ' $ $ ~ * ' * ' > * * ^ $ ~ > = , > = > > = > * * ' ) - . % ",
"+ + + + & &         & + & & % % % % % % % % % % % %   * p+q+r+s+t+- ] ~ ~ * = - ) * ' ^ $ ~ = * = > * * ' ) * * # > * > - . % ",
"+ ) = # # # ! * { + + . & &                         & . + &             . - - ) * $ ' ~ ~ ) ) - { ) * * * ) ) ' ) { ) ) { . % ",
"+ = # ^ # # # # $ ! = * - { . + & & & & & & & & & & + . + + & & & & & &   + . . . . . . . . . . . . . . . . . . . . . . . %   ",
"+ = # ^ $ * * * > = , $ ^ ^ # # # $ $ $ $ $ ] - ) - { { . . + + + + + & &           % %             % % % % % % % % % % %   & ",
"+ = , > $ > , , ' , ' , = * * ! ! ! ! ! ! ! ! ] * * , = = = = = * + . + & & & & & & & & &                               & & + ",
"+ = , , > , ' = = > , = ' , ' = * * * * * ] ] ] * > , @ ^ ^ * , ) & + . + + + & & & & & & & & & & & & & & & & & & & & & + + + ",
"+ = ' ; , ' , ^ $ ] ' ' ; = ; , , # ! > * * * * * ' = * ^ ] * ) { % & . + ] $ $ $ { + + + . . . ~ $ ! ] ~ ~ / + + + + + . . . ",
"+ = , , = * ) $ ] / , = , ; = = = ; , , = , = ; = ) = ; = * * { . % & + + $ ] ] ] { @ @ ' . . ! # # # ! ) # = = ; # ' > ) + + ",
"+ = * - { { { ] / - ) - { - ) - { { { - ) * = * ) { { { { { { . . & % & + { ] ] ~ { ' ' ' { . * ) ) ) ) ) = = * # ! - = @ > % ",
"+ * { + & & & & & & & & & & & & & & & & & & & & & & & & & & & & & & %   + ' ] ~ { > { > * { + * * = * = # # = = ! ] - * = . % ",
"+ & % % % % % % % % % % % % % % % % % % % % % % % % % % % % % % % % %   + & d./ . { { { { { + { { > = # # ! ) = ] - - * * . % ",
". + & & &                                                               & + d.d.& % % % % % & + . . ~ / . . . ~ / . . . . . % ",
". . . . + + + + + + + + & & & & & & & & & & & & & & & & & & & & & & & & & + + + + & & & & & & + + % % % % % % % % % % % % % % "};
