/* XPM */
static char * torch1_wall_3_xpm[] = {
"63 63 233 2",
"  	c #1F1F1F",
". 	c #3B3B3B",
"+ 	c #575757",
"@ 	c #535353",
"# 	c #4F4F4F",
"$ 	c #4B4B4B",
"% 	c #D3D3D3",
"& 	c #DFDFDF",
"* 	c #838383",
"= 	c #ABABAB",
"- 	c #B7B7B7",
"; 	c #C7C7C7",
"> 	c #474747",
", 	c #8F8F8F",
"' 	c #6B6B6B",
") 	c #7B7B7B",
"! 	c #676767",
"~ 	c #5F5F5F",
"{ 	c #9B9B9B",
"] 	c #737373",
"^ 	c #EFEFEF",
"/ 	c #3F3F3F",
"( 	c #50423B",
"_ 	c #AA6528",
": 	c #74503A",
"< 	c #55514F",
"[ 	c #C87936",
"} 	c #BE702B",
"| 	c #815E4B",
"1 	c #E18834",
"2 	c #EB8F36",
"3 	c #784823",
"4 	c #A7704B",
"5 	c #F29338",
"6 	c #ED933F",
"7 	c #8F5B37",
"8 	c #AD7E62",
"9 	c #EE933A",
"0 	c #F0953E",
"a 	c #CE7B2B",
"b 	c #4D4B4B",
"c 	c #5E5956",
"d 	c #CC7E3C",
"e 	c #EA8B2E",
"f 	c #DA812D",
"g 	c #775948",
"h 	c #6F6C6A",
"i 	c #C2783B",
"j 	c #ED8D30",
"k 	c #F2963C",
"l 	c #B6733F",
"m 	c #ACABAA",
"n 	c #7B5A47",
"o 	c #E88A30",
"p 	c #F49A43",
"q 	c #E68C39",
"r 	c #B5A7A1",
"s 	c #CCC2BE",
"t 	c #BAA69D",
"u 	c #2D241F",
"v 	c #B06929",
"w 	c #F39942",
"x 	c #F2973F",
"y 	c #CA9373",
"z 	c #AB8F81",
"A 	c #B47F5F",
"B 	c #2A231F",
"C 	c #4B3120",
"D 	c #A66326",
"E 	c #F19436",
"F 	c #F59E46",
"G 	c #CC864D",
"H 	c #C07E4D",
"I 	c #AA6937",
"J 	c #503420",
"K 	c #C7762A",
"L 	c #905725",
"M 	c #C1742A",
"N 	c #F4993A",
"O 	c #F6A045",
"P 	c #F09435",
"Q 	c #EE9232",
"R 	c #AE6C36",
"S 	c #6A5449",
"T 	c #A36C45",
"U 	c #F29532",
"V 	c #F7A141",
"W 	c #F7A344",
"X 	c #F6A143",
"Y 	c #F69E41",
"Z 	c #C59171",
"` 	c #ADABAA",
" .	c #DC9A6B",
"..	c #F29D3B",
"+.	c #F6A442",
"@.	c #F7A442",
"#.	c #F3A241",
"$.	c #D98F39",
"%.	c #D2BAAD",
"&.	c #EEEDED",
"*.	c #C0A186",
"=.	c #B87F2E",
"-.	c #DB9439",
";.	c #E0963A",
">.	c #BD822F",
",.	c #A07740",
"'.	c #A19E9A",
").	c #C6C6C5",
"!.	c #917558",
"~.	c #976C28",
"{.	c #A17228",
"].	c #A37428",
"^.	c #9D7027",
"/.	c #8D6D46",
"(.	c #AAA9A8",
"_.	c #AAAAAA",
":.	c #766A5C",
"<.	c #76551E",
"[.	c #876022",
"}.	c #8C6424",
"|.	c #805C20",
"1.	c #817466",
"2.	c #8D8D8D",
"3.	c #828282",
"4.	c #736D65",
"5.	c #5C4116",
"6.	c #644717",
"7.	c #694B19",
"8.	c #6E4E1A",
"9.	c #756554",
"0.	c #7A7979",
"a.	c #8E8E8E",
"b.	c #6D6862",
"c.	c #574224",
"d.	c #604318",
"e.	c #614518",
"f.	c #65481A",
"g.	c #6D5C4C",
"h.	c #7D7B79",
"i.	c #5E4E3C",
"j.	c #644818",
"k.	c #614419",
"l.	c #65471C",
"m.	c #726B64",
"n.	c #91908E",
"o.	c #594224",
"p.	c #634818",
"q.	c #5E4219",
"r.	c #6A5031",
"s.	c #706B67",
"t.	c #A09E9D",
"u.	c #564022",
"v.	c #5B4018",
"w.	c #66471B",
"x.	c #786A5D",
"y.	c #7B7A7A",
"z.	c #9F9D9C",
"A.	c #544026",
"B.	c #573D18",
"C.	c #5F4319",
"D.	c #6F5943",
"E.	c #7E7A78",
"F.	c #A6A6A5",
"G.	c #756E67",
"H.	c #523B17",
"I.	c #5A3F19",
"J.	c #5D4421",
"K.	c #746F6C",
"L.	c #8D8884",
"M.	c #543C18",
"N.	c #5A401A",
"O.	c #6C5F53",
"P.	c #664A1A",
"Q.	c #695847",
"R.	c #7E7B7A",
"S.	c #8A8783",
"T.	c #523B18",
"U.	c #573E1B",
"V.	c #5B411C",
"W.	c #9B9896",
"X.	c #8A8683",
"Y.	c #4F3818",
"Z.	c #583F1B",
"`.	c #5C5753",
" +	c #76716E",
".+	c #503919",
"++	c #554129",
"@+	c #3E3B38",
"#+	c #34291B",
"$+	c #4A3517",
"%+	c #533B1A",
"&+	c #34291E",
"*+	c #40372E",
"=+	c #483416",
"-+	c #563D1A",
";+	c #4F3C27",
">+	c #3D3B39",
",+	c #706D6B",
"'+	c #4F3E2B",
")+	c #593F1A",
"!+	c #6A5F55",
"~+	c #B3B3B3",
"{+	c #746B64",
"]+	c #593F1B",
"^+	c #968F89",
"/+	c #C3C3C3",
"(+	c #847E79",
"_+	c #583E1B",
":+	c #AFA9A4",
"<+	c #6C635C",
"[+	c #563D1B",
"}+	c #8C847E",
"|+	c #DBDADA",
"1+	c #543C1B",
"2+	c #716963",
"3+	c #DBDBDB",
"4+	c #6F6761",
"5+	c #5B4937",
"6+	c #888785",
"7+	c #7C756F",
"8+	c #625242",
"9+	c #A4A3A3",
"0+	c #CFCFCF",
"a+	c #5C4A39",
"b+	c #7F7E7D",
"c+	c #6E6660",
"d+	c #5E4E3D",
"e+	c #868483",
"f+	c #878583",
"g+	c #483827",
"h+	c #4C361A",
"i+	c #514130",
"j+	c #666462",
"  .   .   .   .   .   .   .   .   .   .   .   .   .   .   .   .   .   .   .   .   .   .   .   .   .   .   .   .   .   .   .   ",
"+ @ + # + # + # + # $ % & & & % & % & & & % & % & & &   . * = - % ; % % ; % - ; = * +   > > > > > > > > > > @ # + # + # + # + ",
"@ + @ @ + @ @ @ + @ > & % ; % - % % % ; % % - % % ; ,   . * ; - , = * , , , , * = # .   . ' , , * , , , ) ' ! > > > $ > > > $ ",
", , * , , , * ,   @ $ & ; ; - % - ; ; - ; ; - - % , ~   . = % = , = , = * = , = * + .   . , % & & & % & - - = , * , , , * , , ",
"% % % % - = , *   + > & % = = { = , = = = = { = = ) @   . , - , , * = = = = * , ] # .   . * & & - ; - % & & & % & % ; % % % ; ",
"= = = = { = ) ]   @ > ^ - { = = = = { = , = * = = ' @   . > = , = = * , { , = ' + @ .   . , % - = , = , = = { , , = , = * = , ",
"- { { { = , ) '   $ > ^ % = * = , = , { { { , , = , #   . > ) , * = , = = * = ] . . .   . * & - , = * { * , , = * , { , = { , ",
"- = * - * { ~ +   . > ^ ; , { , = = { , ) , , = , ~ +   . > > , = = { , , , = ' . . .   . , & = = * { ) = { ) , = * = = , ) = ",
"{ = = , { ] > $     $ ; - = { = * = , { * { , , = ' @     $ @ > ) . . . . . . . .     . . ] & & , = * * { ] { , = , , ) = = ] ",
", , * , ] @ > >   . > = ^ = { = , , , , , , * = * + )     . > . . . . . . .   .       > > > ; ; , , , , { { { * , = , = = * = ",
"] ' ] ] # $ . .     $ , % , = , , ) , , = * = , = ' + .   . > .               .   .   $ @ > ; = , = * = , * , ] ' ! ~ ~ ! ~ ! ",
"@ + > > >         . / ] & = * { ) ) ) = { , * ) , ' ! ( _ : > > $ $ ] ) , = { = = { ] . # $ - , ' ] ! ~ ! + @ @ @ > $ > $ > > ",
"          .   .   . @ > & ; , , , { { * , = ) , = , < [ } . / ] = = % & ^ % % % { ' @   @ > , ' ! ~ @ $ > > . . . . .   .   . ",
"  .   .     .   . . # > = % , = * ) , = , * { , * ] | 1 2 3 . = - & % - * = , = * ] .   . . . . . . . . . . .                 ",
". . . . . . . . . . $ $ , ; = * = { * ) , ) , = , # 4 5 6 7 / = & - = , , , * , , # .   .     .     .     .   / / . . . . . . ",
"@ $ . . . . . .   . @ > ] ; * = { , = { = * = * = # 8 9 0 a b = ^ = , * = , = * = @ .   . > + @ + +   > $ > > $ > > > > > > > ",
"{ { , { , { , { {     + > ; - { , * { { ] , , , , ' c d e f g = ^ * , = = * = , , # .   . ' = & % + > @ ) { { , { { { , { { { ",
"% ; % % ; % - = ] /   + > , - , = , ) , , * = , ' , h i j k l m ; = = , * = , = * + .   . = % ; =   > ) ; % & & & % & & & % & ",
"= { , = , = = ' ] .   @ > ] { = * = = * = ] , ' @ ] @ n o p q r s t , ' ] ] ' @ + @ .   . % ; = *   $ { % % - - = - - - = - - ",
"= , { , = * , ' ] .   > @ > { , ] ] ' ] @ @ ] # ] @ > u v w x y z A , ' . . . . . . .   ~ & = , ,   > { & = = { = , = , { * { ",
"= , , = * = = ' + .   > @ > ! @ + @ + > > > .     B C u D E F G H I . .                 ~ & = = *   $ { % = , { * { , { ] * , ",
"= , = , = * , ] # .   > @ >   .   .               J K L M N O P Q R           .     .   , & = = ,   > , ; * = { = , = , { * { ",
", = ] ) , , = ' + .   . # + $ .                 # $ S T U V W X Y Z = = , , , ) +   / ! - & = * )   $ * ; = * { , { * { ) ) , ",
", * * ) , = * ! > .   . * & & & % ; = = , ~ . $ ! ) `  ...+.@.#.$.%.% & & & ; { !   . ) & ; { = ]   > * - = { , = * = , ) ) , ",
", , = = * , , ~ $ .   . % ; = , { { = , { . # $ ) % &.*.=.-.;.>.,.'.; - ; - ; ' +   . , & = { , '   $ ' ; * = , , { , * = , = ",
"{ = * , = * ] @ . .   . & { , { = = , { =   @ $ { & ).!.~.{.].^./.(.{ = { , * ! >   . , ^ = * = +   $ > , ] ~ + @ @ ! ! ' ) , ",
"! ~ ! ~ ! @ > . . .   . % = = = * = , = ~   $ > { ^ _.:.<.[.}.|.1.2.* , = * = + >   . * ^ = = , +   @   . . > > > > $ > > @ + ",
"@ $ > . . .           . & * = , = = , ) ~   $ > { ^ 3.4.5.6.7.8.9.0., = , , , # $   . , ^ * = , #   + .                   . . ",
"              .   $ $ > & = { * = , = ) ~   . > { ^ a.b.c.d.e.f.g.0., * , = , # $   . * ^ = = * +   + . . . . . . .   .       ",
"> ! ! ' , { , * , , >   & = ] { , = * * ! .   > , ^ _.h.i.j.k.l.m., = ) , * = @ >   . , ^ , = = #   + > / > # @ # + @ @ + . . ",
"! , - & % & % % ; = ]   & = = * ) , = * ! .   > , & - n.o.p.q.r.s.) , ) , = * + .   . , % , , = #   $ = & % - , ~ + > > $ > > ",
"! = % ; ; - = = { = /   ^ , { = ) , = { ' >   $ ) % ; t.u.v.w.x.y.) = , = * * # .   . , & = , , @   $ & * , - & & % & & & , . ",
"! & - = = * = , = * ]   ^ { = , = = * = ' $   . # ; & z.A.B.C.D.E.= ) ) , = ' + .   / , % , = , #   $ & , * = = * , = , * * . ",
"! % - { * = , = * = ]   ^ { * { = , = * ! @     + = ^ F.G.H.I.J.K., ) ) = * ] > .   $ , % = = * +   > & = = * , = = * = , ~ . ",
"! & = , = , = = ) = #   & = = = , , , = ! #   . # , ^ - L.M.N.O.2.{ * = , = ~ >   . / , % { , = #   $ ; = , = = * , = , = ~ . ",
"! & = = , , { { = * +   & - ) { ) = = { ~ +     $ ' % - L.P.N.Q.R., { , , , ~ .     $ , % , = # +   $ ; = { = , = * , = { + . ",
"! % - , = = , = * = @   ; & * { = , , , ~ +     $ @ - & S.T.U.V.W., = * , ! @ .   . > ) = ) # . . . / = = , = { , = , * = + . ",
"! & - = { , = , = , #   - & ) = * , , = ' +     . # , - X.Y.Z.Z.`.@ > $ . . . .   . / + . . . . / >   ] # > @ + @ + @ @ + @ . ",
"! & = , = = * = ) = @   { % { ) = = * , ' +     . @ > ,  +.+Z.++@+                . > # > > # @ + @ +                         ",
"! % - , * { = , = * +   ) & = { = * , = ! #       # > . #+$+%+Z.&+  .   .     .   . > @ + > > $ > > > $ > > . . . . . . . . . ",
"! & - = = * { = , = @   + ^ , { , , = * ! @     . > > > *+=+-+;+>+$ > $ / # $ > $ > > + @ ) ) ) ) ) ) ) ) ) ) ) ) ) ) ) ) ] . ",
"! & = , , = * = , ' +   > ^ = , * ) , = ' +       / ! ) ,+'+)+!+) ) ) ) ) ) ) ) , , , { = - = ; - ; - ; - - ; - ; - ; - ; ) . ",
"! ; - = = , = , = #     # ^ { , = , , * ! + .     . ) ; ~+{+]+^+- ; ; - ; - ; - ; - % & & ^ ^ ^ ^ ^ ^ ^ ^ ^ ^ ^ % & % % , !   ",
"! % - , = , = = * +   . / ^ , = ) { * = ! # .       ) ; /+(+_+:+^ ^ & & ^ ^ & ^ ^ ^ ^ ^ & & % % - - - ; - = - ; - - ; - ) +   ",
"! - - = , = * , , #   . > & = = * = , , ~ + .       ) ; /+<+[+}+; - ; = - ; = - ; - - = = { { , , = , = * , , = * = , = ' + . ",
"$ ; * , = * ] ' ] @   . > % * , = * = , ' + .       ! - |+<+1+2+* , , , = * = = , , { = = = , ) { * = = { * = , = = { , ' @   ",
"> - = = { , + @ @     / > - = * , = , * ] @ .       > ; 3+4+5+6+, = , { , { = * , { = = * { , { , , ) * { { , = * = , = ' + . ",
"> ) ) ) + @ + @ @   . . / { { = * , , ' ! @ .         - 3+7+8+9+* , , , ) , * = , { * = { ) * , = * , = , ) ] , ) { , , ] @   ",
"> .       + @ @ +   . / $ ) ! ~ ! ! ~ ! @ @ .       . = 0+7+a+b+= , = * , = , ) ) { { * = , = , , = * , ) , , * = , ] * ' +   ",
"@ + @ > .         . . / . . . . . . . . . . .         , 0+c+d+e+, = * = ) , * { ) { , { ) = * , ) , , , * = , ) , , * ) ' +   ",
"> $ > > > $ > .     . $ . .                         . * f+g+h+i+j+] ] ' = , = = * , ) * , , ) , , = * = , , = * , , , { ' +   ",
"> ) = = = = , , ! $ $ @ . .     .     .     .   .   . @ > . .   .   .   + ] ' ) , ) ) ) ) ) ) ) ) ) ) ) ) ) ) ) ) ) ) ) ! #   ",
"> = ; % & % & & - = = , ' ~ + $ . . . . . . . . . . / + > > . . . . . .   $ @ @ + @ + @ + @ + @ @ @ + @ + @ @ + @ + @ @ @   . ",
"> = % = = , - % & & & - = = = = = = = { , , * ) ) ' ! ! # + > > > / > . .   .   .   .   .   .   .                           . ",
"> = & = = = - = , = - & & & % & % & % & & & & ; % ; - = = = = = * $ @ > . . . . . . . . .     .   .   .   .   .   .   . . . > ",
"> = & = * = ) ) = { , ) = * = , = , = = * = , = = = ; % & % % - * . > # $ > > . . .   . . . . . . . . . . . . . . . . . / > $ ",
"> = ; = = = , = , , , { = * , = ) ] , = ) , * , = * = , = = = ) !   . # $ = % & { ) $ $ > @ @ @ > > / > > > / > > / > > # + @ ",
"> = ; = * = ) ) { = * = = { * ) = ) , ) { * = , = , = * = = { ! @   . > > & = = & & & % - @ @ $ - & & % & & & % % ; = { ) $ > ",
"> = * ! ~ ! ~ ! ~ ! ! ~ ! ~ ! ! ~ ! ~ ! ~ ! ! ~ ! ~ ! ~ ! ~ ! + @ .   . > % - = - = - - - ~ + ) & { = = , = * = { = , = % {   ",
"> , ! . . . . . . . . . . . . . . . . . . . . . . . . . . . . . . .     $ - = - - { ~ { * ! > - = , = * = = = * = , = * = @   ",
"> .                                                                     # . > . # ! ~ ! ! ~ $ & { { { = = , { = { { = , , #   ",
"@ $ . . .   .     .     .     .   .     .     .     .     .     .   .   / # + . .           . @ + @ @ @ @ @ + # @ + @ + # +   ",
"@ + # @ > > > $ $ > $ $ . . . . . . . . . . . . . . . . . . . . . . . . . # + # @ . . . . . . # @                             "};
