/* XPM */
static char * torch3_wall1_xpm[] = {
"63 63 248 2",
"  	c #7C7C7C",
". 	c #483818",
"+ 	c #543C1C",
"@ 	c #5C4020",
"# 	c #744C28",
"$ 	c #403018",
"% 	c #545454",
"& 	c #646464",
"* 	c #707070",
"= 	c #2C2C2C",
"- 	c #484848",
"; 	c #4C4C4C",
"> 	c #5C5C5C",
", 	c #6C4824",
"' 	c #382C14",
") 	c #8C8C8C",
"! 	c #A8A8A8",
"~ 	c #989898",
"{ 	c #404040",
"] 	c #B36C25",
"^ 	c #D27D2C",
"/ 	c #64441C",
"( 	c #64441B",
"_ 	c #714A1C",
": 	c #383838",
"< 	c #725421",
"[ 	c #E99B3A",
"} 	c #975D21",
"| 	c #915A20",
"1 	c #AB6824",
"2 	c #714F1C",
"3 	c #E4912E",
"4 	c #905A20",
"5 	c #C77829",
"6 	c #5A401A",
"7 	c #6C481B",
"8 	c #B86F26",
"9 	c #5F421A",
"0 	c #E7892E",
"a 	c #80511E",
"b 	c #7B4F1D",
"c 	c #965B1F",
"d 	c #4F3B19",
"e 	c #60421A",
"f 	c #C67729",
"g 	c #EF8E30",
"h 	c #BA7026",
"i 	c #975B21",
"j 	c #523716",
"k 	c #503B19",
"l 	c #4D3A18",
"m 	c #774D1D",
"n 	c #B06B25",
"o 	c #F3963D",
"p 	c #E28C3A",
"q 	c #6D481B",
"r 	c #995D21",
"s 	c #5C3C17",
"t 	c #BA7027",
"u 	c #4A3918",
"v 	c #6A471B",
"w 	c #B16C27",
"x 	c #F29840",
"y 	c #B77029",
"z 	c #623F18",
"A 	c #B66D25",
"B 	c #CD7A2A",
"C 	c #65451B",
"D 	c #CF7E2C",
"E 	c #F2983E",
"F 	c #A76723",
"G 	c #D8822E",
"H 	c #EF9035",
"I 	c #B06B24",
"J 	c #443218",
"K 	c #81521E",
"L 	c #F19639",
"M 	c #F49C42",
"N 	c #B87126",
"O 	c #AF6A24",
"P 	c #ED9034",
"Q 	c #EA9038",
"R 	c #75481A",
"S 	c #343434",
"T 	c #B56E26",
"U 	c #F39A3B",
"V 	c #F59E41",
"W 	c #EF922E",
"X 	c #EF9535",
"Y 	c #EC9032",
"Z 	c #C67627",
"` 	c #573A17",
" .	c #503C19",
"..	c #D3842E",
"+.	c #F7A144",
"@.	c #F6A041",
"#.	c #F49834",
"$.	c #F6A042",
"%.	c #EA9134",
"&.	c #955B1F",
"*.	c #4F3B18",
"=.	c #D3832F",
"-.	c #F7A244",
";.	c #F7A344",
">.	c #F7A141",
",.	c #F59E3F",
"'.	c #CD8034",
").	c #655E5B",
"!.	c #E08B31",
"~.	c #F29F43",
"{.	c #F6A244",
"].	c #A47440",
"^.	c #666462",
"/.	c #A06123",
"(.	c #C67F2D",
"_.	c #B77E2F",
":.	c #DB933B",
"<.	c #DF953C",
"[.	c #B97F31",
"}.	c #9C723D",
"|.	c #5A5653",
"1.	c #6F461A",
"2.	c #946427",
"3.	c #976B28",
"4.	c #A07228",
"5.	c #A47528",
"6.	c #986D28",
"7.	c #825F32",
"8.	c #4C4946",
"9.	c #584E45",
"0.	c #725222",
"a.	c #8E6525",
"b.	c #966B28",
"c.	c #866023",
"d.	c #5F4826",
"e.	c #433F3A",
"f.	c #777471",
"g.	c #604720",
"h.	c #70501C",
"i.	c #76551E",
"j.	c #71501B",
"k.	c #64491E",
"l.	c #474036",
"m.	c #6D6B69",
"n.	c #5A4529",
"o.	c #644719",
"p.	c #654818",
"q.	c #6A4C1A",
"r.	c #60471D",
"s.	c #463F37",
"t.	c #303030",
"u.	c #545352",
"v.	c #5A4A37",
"w.	c #6A4C19",
"x.	c #674A19",
"y.	c #6C4D1B",
"z.	c #544430",
"A.	c #484746",
"B.	c #55504D",
"C.	c #583F1C",
"D.	c #684B19",
"E.	c #634719",
"F.	c #684A1E",
"G.	c #4D433A",
"H.	c #4B4642",
"I.	c #573F1B",
"J.	c #5C4118",
"K.	c #67491B",
"L.	c #5B462D",
"M.	c #41403F",
"N.	c #4A4542",
"O.	c #533C1A",
"P.	c #583F18",
"Q.	c #5F4319",
"R.	c #614521",
"S.	c #48413B",
"T.	c #504233",
"U.	c #553D17",
"V.	c #5B4118",
"W.	c #5C411A",
"X.	c #474039",
"Y.	c #544A41",
"Z.	c #553C19",
"`.	c #5B4119",
" +	c #56422C",
".+	c #80502C",
"++	c #554B41",
"@+	c #664A1A",
"#+	c #5A4019",
"$+	c #5A4324",
"%+	c #46403C",
"&+	c #514841",
"*+	c #5E431B",
"=+	c #494139",
"-+	c #504841",
";+	c #523917",
">+	c #5B411A",
",+	c #473F39",
"'+	c #533B18",
")+	c #564126",
"!+	c #433F3D",
"~+	c #4F4741",
"{+	c #4B3517",
"]+	c #533B19",
"^+	c #5A411F",
"/+	c #47403A",
"(+	c #4E4741",
"_+	c #483416",
":+	c #563D1A",
"<+	c #503E2A",
"[+	c #41403E",
"}+	c #36302A",
"|+	c #46321D",
"1+	c #583E1B",
"2+	c #503F2F",
"3+	c #31302F",
"4+	c #433321",
"5+	c #583D1B",
"6+	c #544434",
"7+	c #535352",
"8+	c #43321F",
"9+	c #564534",
"0+	c #202020",
"a+	c #563D1B",
"b+	c #4E3B28",
"c+	c #8A8989",
"d+	c #493C2E",
"e+	c #533B1C",
"f+	c #453628",
"g+	c #574C42",
"h+	c #523E26",
"i+	c #37322E",
"j+	c #463829",
"k+	c #594632",
"l+	c #545250",
"m+	c #453218",
"n+	c #523D24",
"o+	c #797776",
"p+	c #433017",
"q+	c #503A1B",
"r+	c #443219",
"s+	c #463517",
"t+	c #443017",
"u+	c #4C361A",
"v+	c #4A351A",
"w+	c #493818",
"x+	c #282828",
"y+	c #1C1C1C",
"      . + @ @ # @ @ @ @ @ @ @ @ @ @ @ @ @ @ + $ . @ @ @ @ + + . % &     * * * * = = = = = = = - & * % & % % ; ; ; ; % > > & * ",
"  * * % . + @ # @ @ @ @ @ @ @ + @ @ @ @ @ @ + $ . @ @ @ + . . % &     *   *     - = = = = = - & * % & % ; ; % % > & & & & & & ",
"* * * & % . + , @ @ @ @ @ @ @ @ + + @ @ @ @ + $ . @ + + . - % & & - @ @ @ @ - & & - = = = - & * % & % ; % > & & & & & & & & & ",
"% *   * & % . , @ @ @ @ @ @ @ @ + + @ @ @ @ . $ . + . . % &   - @ @ . . $ . $ . & & - - - & * % & & & & & & > % % ; ; ; ; ; ; ",
"; % * *   & . , @ @ @ @ @ @ @ @ @ @ @ @ @ + . $ . . % &     - @ . . . . $ . $ . -   & & & * % & > > > > > > > > > > > > > > > ",
"; ; % * * * . + @ @ @ @ @ + @ @ @ @ @ @ + $ $ . % &     & @ @ . . . . . $ . $ $ ' & ) ! * % & % ; ; ; ; ; ; ; ; ; ; ; ; ; ; ; ",
"; ; ; % *   % . + @ @ @ @ @ @ @ @ @ @ + $ $ - % &     - @ . . . . . . . $ $ . ' ' & !   % & % ; ; ; ; ; - ; ; ; ; ; ; ; ; ; ; ",
"; ; ; ; % *   % . + @ @ @ @ @ @ @ + + $ . % & &   & @ @ . . . . . . . . $ $ . ' ' & ~   & % ; ; ; ; ; ; ; ; ; ; ; ; ; ; ; ; ; ",
"; ; ; ; - %   & % . + @ @ @ @ + + $ $ % & &     - @ + . . . . . . $ . . $ ' . ' ' & ~ & % ; ; ; ; - ; ; ; ; ; ; ; ; ; - ; ; ; ",
"; ; ; ; - -     & % . + + + + $ $ % &       & @ @ + . . . . . . . $ . . $ ' $ ' ' & ) & % ; ; ; - ; ; ; ; ; ; ; ; ; ; ; ; ; ; ",
"; ; ; ; - -   *   & % $ $ $ $ - % &     & - @ + + . . . . . . . . . . . . ' $ ' { & ) & > ; - ; ; ; - ; ; ; ; ; ; ; ; ; ; ; ; ",
"; ; ; ; - - * *     & % % % % % &     & @ @ + . . ] ^ / . ( _ . . ' . . . ' ' ' ; *   & > ; ; ; - ; ; ; ; ; ; - - ; ; ; ; ; ; ",
"; ; ; ; - : * * & % % % & * ~ ~ ) * & @ + + . + + < [ } . | 1 . . ' . . . ' ' ' % * ) & % ; ; ; ; ; ; ; ; ; ; - - ; - - - - ; ",
"; ; ; - : &   & % % % % - & ~ ) ) & @ . + + . + + 2 3 } . 4 5 6 . ' . . . ' ' ' & *   & % ; ; ; ; ; ; ; ; ; ; ; ; ; - - - - ; ",
"; ; - : &   * % % % % % - - * )   @ + . @ . . . . 7 8 9 . 4 0 a b c ] d . ' ' { &     & % ; ; ; ; ; ; ; ; ; ; ; ; ; - - - - ; ",
"; - : &     & % % % % % - - - & % @ . @ + . . . . . } | e f g h i j h k . ' ' ; *     & % ; ; ; ; ; ; ; ; ; ; ; ; ; - - - - ; ",
"- : &     * & % % % % % { ; % - & @ . @ . . + . . . l m n o p q r s t k $ ' ' %       % ; ; ; ; ; ; ; ; ; ; ; ; ; ; ; ; ; ; - ",
": & & - - & * % % % % ; { % % & & @ . + . . . . . . u v w x y k z A B k $ ' ' & , @ & % ; ; ; ; ; ; ; ; - ; ; ; ; ; ; ; ; - : ",
"& & - + + - & & % % % { { % % % * @ + + . . . . . . . C D E F k G H I J ' $ > , @ @ % & { ; ; ; ; ; ; ; ; ; ; ; ; ; ; - { : { ",
"& - + @ . + -   - % { { { % % % & & + + . . . . . . . K L M N O P Q R ' $ & , @ @ @ . & & { - ; ; ; ; ; ; ; ; ; - { : S S : { ",
"- + @ . . . $ & * - { % { % % % -   - + . . . . . . l T U V W X Y Z ` ; &   . . . . . * * & { { { - - - - - { { : S : { : % & ",
"+ @ . . . . $ -   & - % { % % % - * & $ . . . . . .  ...+.@.#.$.%.&.; &       & & & & ) ) & & { : S S S S S S S : { { : % &   ",
"@ . . . . . $ $ & * - % { % % % : &   - . . . . . . *.=.-.;.>.,.'.).& % % % % % % %   ) ~ ~ * & % : { { { { { { { { : % &   - ",
". . . + . . $ . &   & - { % % ; : &   & $ . . . . . a !.~.{.;.~.].^.% - { : { { { { %   ~ ~ )   & % : { { { { { : : % &   - + ",
". . . . . . $ . -     & { % ; - : &     - ' $ . . . /.(._.:.<.[.}.|.- { { : : { { { { %   ) ) *   & % : : : : : : % &   & + @ ",
". . . . . . $ . $ &   * : - - - : * *   & ' ' ' ' ' 1.2.3.4.5.6.7.8.{ { { : { : { { : { *   * % %   & % : : : : % &   & - @ . ",
". + + . . . ' . $ % *   & : : : *         - ' ' ' ' { 9.0.a.b.c.d.e.- - { : { : { { : - & * & - - %   & % % % % &   & - + . . ",
". + + . . . ' . $ -   ) * & & *   % , , % & - - ; > > f.g.h.i.j.k.l.- - { : { { : { S % & * % - - - %       ) )   * - + . . . ",
". . . + . . ' . $ -   * ) * * & , , @ @ @ @ & & & *   m.n.o.p.q.r.s.{ { { S { { : : t.% & & - - - - - &   ) )   * & + . . . . ",
". . . . . $ ' . $ -   * * * * , @ @ @ @ @ @ +     * * u.v.w.x.y.z.A.{ { { S { { : : - & * % % - - - - % & * * & > % + . . + + ",
". . . . . $ $ . $ % * ) * * * & @ @ @ @ @ @ .   *   % B.C.D.E.F.G.{ { { { S { { : S % *     & & & & & & &   * > % > + . . + + ",
". . . . . ' $ $ $ %     & % &     @ @ @ + . .     % % H.I.J.K.L.M.{ { { { S { { : t.& % # # # # # # # # # . @ # > & + . . + + ",
". . . . $ ' . $ - &   & % > % &     + + . . &   % % - N.O.P.Q.R.S.{ { { { t.{ { S % * , , , @ @ @ @ @ @ @ . @ @ @   + . . . . ",
". . . . $ ' $ - & & & % > % % % &     & % %   & % - { A.T.U.V.W.X.{ { { : t.{ : t.% & , @ , @ @ @ @ @ @ @ . @ @ + & + . . + . ",
". . . . ' $ - & &   % > % % % % % &   )   )   % - { { - Y.Z.`. +M.{ { { : t.{ : t.& % .+@ , @ @ + @ @ @ @ . @ @ + & + . . . . ",
". . . $ ' - & & * & % > % % % % % % &   ) ) ) % { { { - ++@+#+$+%+{ { { S t.{ t.& * - .+@ , @ @ @ @ @ @ @ . @ @ + & $ . . . . ",
". . . ' - & &     % > % % % % % % % % & ) ~ ~ % { { { - &+U.6 *+=+{ { { S t.: - * * , .+@ , @ @ @ @ @ @ @ . @ @ + & - $ . . . ",
". . $ - & & *   & % > % % % % % % % % % & ~ ~ & { { { - -+;+>+>+,+{ { { t.t.S %   & , .+@ , @ @ @ @ @ @ @ + @ @ + & & - $ . . ",
". $ - & & *   & % > % % > % % % % % - % % & ) * : { { - -+'+>+)+!+{ { { t.t.t.&   % , .+@ @ @ @ @ @ @ @ + + @ @ + &   & - $ . ",
"$ - & &     * & % % % % % % % % % % % - % % ) ) % : : - ~+{+]+^+/+{ { { t.t.- * * , @ .+@ , @ @ @ @ @ @ + @ @ @ . &     & - $ ",
"- & & ) )   & % % % % % > % % % % % % { % % & * * t.: : (+_+:+<+[+{ { { t.t.%   & , @ .+, @ @ @ @ @ @ @ + @ @ @ . &       & - ",
"& & ~ ~ ) & % % % % % % > % % % % % % { - % % & & - t.S }+|+1+2+{ { { { t.t.%   % , @ .+# @ @ @ @ @ @ + @ @ @ @ . & = = : % & ",
"&   ~ ~ * % % % % > > % % % % > % % % - { % % % & % - t.3+4+5+6+{ { { : t.- & * , @ @ # .+@ @ @ @ @ @ + @ @ @ @ . & = = = = : ",
"= - ) ) & % % % > > > % % % % % % % % - { % % % % - % & 7+8+5+9+{ { { : t.% *   , @ @ , .+@ @ @ @ @ + @ @ @ @ @ . & = = = = 0+",
"= 0+-   % % % % > > > % % % % % % - % - { - % % % - & & 7+8+a+b+: { { : t.&     + @ @ @ # @ @ @ @ @ @ @ @ + @ @ . & = = = = 0+",
"= 0+- * % % % % > > % % % % % % % % % - { - % % - : & ) c+d+e+f+S { { S - * * * & + @ @ , , @ @ @ @ @ @ @ @ @ @ . & = = = = 0+",
"0+- & & % % % % % % % > % % % % % - % - { - % - : -   ) c+g+h+i+S : : t.%   * *   & + @ @ , @ @ @ @ @ + + @ @ + . & = = = 0+= ",
"- & & & - % % > > % % % % % % % % - % - S - - : - %   - . j+k+l+t.t.t.t.*   & : : & & + + @ , @ @ @ @ + + @ + . - & = = = 0+= ",
"& * * * & - % > > % % % % % % % % - % - S { : - % & - + . m+n+o+& % % &   & : = = : & * & + @ @ @ @ @ @ @ + . - & & 0+0+0+0+0+",
"    * *   & - - % % % % % % % % % - % { S : - % & - + . . p+q+r+-       & : = = = = : & * & + + @ @ @ @ + . - & *     - - - - ",
"  *   ) ) ) & - - % % % % % % % - - % { S - % & - + . . s+t+u+v+w+-     - : = = = = = : & * * % + + + . . - & % % % % % % &   ",
"  % , , % ) ) & - : % % % % % % - - - S - % & - + . . . . $ . $ . $   & : x+= = = x+x+= : &   * % + . - - & & % % % % % % - & ",
", , @ @ , , %   & - : - % % % - - - : - % & - + . . . . . $ . $ . $   : = = x+= = x+x+= = : &   * % - - &   % % % ; % % % - & ",
"@ @ @ @ @ @ , , % & - : - % - - : : - & - - + . . . . $ . $ . $ $ - & : = = = 0+x+= = = = = : &   * & & ) & ; ; % % % % ; - & ",
"@ + @ @ @ @ @ @ , . & - : - - : - % & - + @ + . . . . . . $ $ $ - & : = = = = = 0+0+= x+= = = : &   * ) ) % ; ; % % % % ; - & ",
"@ @ @ @ @ @ @ + @ . @ @ - : : - % & - + @ + . . . . . $ . $ $ $ % : : = = = = = x+0+0+x+= = = = : &   ) & % % % % % % ; - - & ",
"@ @ + + @ @ @ + @ . @ @ + - - % & - + + @ + . . . . . $ . $ $ - & : = = x+x+= = = x+0+0+x+= = = = : &   % % % % % % % - - % , ",
"@ @ + + @ @ @ + @ . + . . % % & - + . + @ . . . . . . $ . $ - & - : = = x+x+x+= = x+0+0+0+x+= = = = : &   % % % % % - ; - & , ",
"@ @ @ @ @ @ + . + $ . . % & & - + . . + @ . + . . . . $ $ $ % & : : = = x+x+= x+= = 0+0+0+0+x+= = = = : & & % % % ; - - % , @ ",
"@ @ @ @ @ @ + . . $ . %       - . . . + @ . . . . . . $ $ - & : = : = = = = = = = = x+0+0+x+0+x+= = = = : & ; ; ; - ; - % , @ ",
"@ @ @ @ @ @ + . $ $ %         % . . . + @ . . . . . . $ - & - : = : = = = = = = = = x+0+0+0+x+0+x+= = = = 0+& ; - % % - , @ @ ",
"@ @ @ @ @ @ . $ $ %   % { %   & - . . + @ . . . . . . $ % & : = = : = = = = x+x+= = = x+0+y+x+x+0+x+= = = 0+% & % % ; & , @ @ ",
"@ @ @ @ @ + . $ %   % { { { %   % . . + @ . . . . . $ - & : = = = : = = = = x+x+= = = x+0+y+0+= 0+0+x+= = 0+%   ; ; & , @ @ @ "};
