/* XPM */
static char * torch2_wall_4_xpm[] = {
"63 63 269 2",
"  	c #383838",
". 	c #545454",
"+ 	c #484848",
"@ 	c #EC0000",
"# 	c #D40000",
"$ 	c #A40000",
"% 	c #E00000",
"& 	c #C80000",
"* 	c #BC0000",
"= 	c #B00000",
"- 	c #880000",
"; 	c #640000",
"> 	c #2C2C2C",
", 	c #7C0000",
"' 	c #980000",
") 	c #700000",
"! 	c #580000",
"~ 	c #400000",
"{ 	c #4C0000",
"] 	c #202020",
"^ 	c #5C5C5C",
"/ 	c #646464",
"( 	c #404040",
"_ 	c #D8300B",
": 	c #EC7E2A",
"< 	c #D34C16",
"[ 	c #752506",
"} 	c #D67827",
"| 	c #E9872D",
"1 	c #AA4A14",
"2 	c #CA1E05",
"3 	c #C25D1C",
"4 	c #AF310B",
"5 	c #B25318",
"6 	c #EF9035",
"7 	c #F0963F",
"8 	c #DF7C2A",
"9 	c #CC7225",
"0 	c #C97124",
"a 	c #8A0B01",
"b 	c #AC2B08",
"c 	c #801002",
"d 	c #670B01",
"e 	c #D37628",
"f 	c #F19841",
"g 	c #F49B43",
"h 	c #F29337",
"i 	c #C96B22",
"j 	c #CB7024",
"k 	c #84370D",
"l 	c #B43E0F",
"m 	c #EB9038",
"n 	c #F19942",
"o 	c #E7872D",
"p 	c #80320B",
"q 	c #8B1002",
"r 	c #AA5017",
"s 	c #E9882D",
"t 	c #92350C",
"u 	c #A03D0F",
"v 	c #E78A2E",
"w 	c #EF953D",
"x 	c #DE812A",
"y 	c #7C2E0A",
"z 	c #C95F1D",
"A 	c #8F1C04",
"B 	c #B45A1B",
"C 	c #E8892E",
"D 	c #990701",
"E 	c #761603",
"F 	c #952B08",
"G 	c #D17827",
"H 	c #E7892D",
"I 	c #B75A1B",
"J 	c #884011",
"K 	c #D17626",
"L 	c #BC561B",
"M 	c #EA8D35",
"N 	c #D97726",
"O 	c #792B08",
"P 	c #A8581A",
"Q 	c #A15218",
"R 	c #A1551A",
"S 	c #853D11",
"T 	c #BF6A21",
"U 	c #EF8E2F",
"V 	c #EC8D30",
"W 	c #F2963C",
"X 	c #A75A1C",
"Y 	c #343434",
"Z 	c #332F2C",
"` 	c #614630",
" .	c #C4782B",
"..	c #C27729",
"+.	c #E88D2F",
"@.	c #F19334",
"#.	c #F09236",
"$.	c #EB8C2E",
"%.	c #955B2D",
"&.	c #785235",
"*.	c #E89131",
"=.	c #F1962E",
"-.	c #ED932C",
";.	c #F29A38",
">.	c #F6A146",
",.	c #EE963A",
"'.	c #BD7742",
").	c #544B47",
"!.	c #BA1003",
"~.	c #CC6F22",
"{.	c #F29A37",
"].	c #F59F3B",
"^.	c #F59D37",
"/.	c #F7A23F",
"(.	c #F6A041",
"_.	c #E88A30",
":.	c #D6360D",
"<.	c #6E1C0A",
"[.	c #CB7E29",
"}.	c #F09D39",
"|.	c #F6A540",
"1.	c #F7A540",
"2.	c #F3A33F",
"3.	c #DA9037",
"4.	c #93541E",
"5.	c #CD0804",
"6.	c #A31A0A",
"7.	c #9F6C25",
"8.	c #BB812D",
"9.	c #DD9538",
"0.	c #E19839",
"a.	c #C1862E",
"b.	c #AC7125",
"c.	c #8C230D",
"d.	c #A30101",
"e.	c #6C1809",
"f.	c #8A5F22",
"g.	c #9D7027",
"h.	c #A67627",
"i.	c #A97827",
"j.	c #A27427",
"k.	c #9B5E20",
"l.	c #7C1304",
"m.	c #580502",
"n.	c #563B1A",
"o.	c #77551D",
"p.	c #8C6422",
"q.	c #916825",
"r.	c #805C20",
"s.	c #60451F",
"t.	c #901E0E",
"u.	c #B00100",
"v.	c #47220C",
"w.	c #5D4217",
"x.	c #664818",
"y.	c #72511C",
"z.	c #70501B",
"A.	c #60461D",
"B.	c #612613",
"C.	c #431506",
"D.	c #563E19",
"E.	c #674919",
"F.	c #694B18",
"G.	c #6C4D1A",
"H.	c #5E451B",
"I.	c #612512",
"J.	c #400100",
"K.	c #431B0B",
"L.	c #58411C",
"M.	c #6C4D19",
"N.	c #684A19",
"O.	c #6D4E1B",
"P.	c #59431E",
"Q.	c #592613",
"R.	c #3E3326",
"S.	c #5C4217",
"T.	c #6C4E19",
"U.	c #6D4D1B",
"V.	c #533F1F",
"W.	c #393227",
"X.	c #433A2E",
"Y.	c #5C4219",
"Z.	c #624518",
"`.	c #6C4C1B",
" +	c #60451D",
".+	c #473A20",
"++	c #47423A",
"@+	c #BB0100",
"#+	c #9D220E",
"$+	c #5A3D16",
"%+	c #5F4318",
"&+	c #64471A",
"*+	c #66481B",
"=+	c #7A351A",
"-+	c #B11107",
";+	c #9F0B02",
">+	c #672E10",
",+	c #593F17",
"'+	c #5F4418",
")+	c #624219",
"!+	c #611F08",
"~+	c #75270D",
"{+	c #563D18",
"]+	c #5C4119",
"^+	c #703613",
"/+	c #630501",
"(+	c #88280D",
"_+	c #664A1A",
":+	c #5A4019",
"<+	c #663D18",
"[+	c #9C1706",
"}+	c #86230B",
"|+	c #553D17",
"1+	c #5A401A",
"2+	c #5E431B",
"3+	c #622009",
"4+	c #71200B",
"5+	c #503918",
"6+	c #5B401A",
"7+	c #611D08",
"8+	c #71200C",
"9+	c #503919",
"0+	c #583F1B",
"a+	c #663717",
"b+	c #620F04",
"c+	c #51200B",
"d+	c #4A3517",
"e+	c #533B19",
"f+	c #5B3F1B",
"g+	c #591B08",
"h+	c #30271D",
"i+	c #433018",
"j+	c #553B1A",
"k+	c #4A3821",
"l+	c #2F2D2B",
"m+	c #3A3633",
"n+	c #433423",
"o+	c #573D1B",
"p+	c #524234",
"q+	c #4C4C4C",
"r+	c #B90301",
"s+	c #812712",
"t+	c #583D1B",
"u+	c #803013",
"v+	c #7B0301",
"w+	c #582712",
"x+	c #583E1B",
"y+	c #533214",
"z+	c #A20301",
"A+	c #543C1C",
"B+	c #503014",
"C+	c #860301",
"D+	c #642712",
"E+	c #523B1C",
"F+	c #482912",
"G+	c #58381A",
"H+	c #431306",
"I+	c #61371A",
"J+	c #431004",
"K+	c #4C0301",
"L+	c #482612",
"M+	c #513719",
"N+	c #441607",
"O+	c #322C28",
"P+	c #3D2D19",
"Q+	c #4C361A",
"R+	c #48351D",
"S+	c #332E29",
"T+	c #303030",
"                                                                                                                              ",
".   . + + + + + . + + + + + + . +   + + + + + + + . . . . . . + + + + + + + + + . . . . . . . + + + +       + + . . + + + + + ",
"  @ @ # # # # # # # # # $ + + . @ @ # # # # # # # # # # # # # # # # # # $ +   . @ @ @ @ % % % % % % # # # # # & & & & * * * $ ",
"+ @ & = = # - $ # - & $ ; > + . @ * - * - * - * , * ' * ' * , * , * & $ ) > +   # $ & = & = = & ) & , & = & - = $ , & ' & $ , ",
"+ # $ , $ - $ ' ) $ - ) ; > + . # * - - $ - ) $ $ ) ' $ $ ) ' $ ) $ ' ) ! > + . # $ $ , ; $ - ) - $ , - $ $ - $ , - $ ! $ ) ; ",
"+ # , $ $ ) ' $ $ ) $ ! ~ > + . # - * $ - $ ) $ - $ ) $ ) - , $ ) ' , ) ! > + + # ) $ ; - $ ; $ ) $ , $ - $ ; $ ' , $ , $ ) { ",
"+ & $ , - ' , $ ) - $ ) ~ > + . * * - $ - - ' $ ) - ) $ - ) ' , - ) $ ) ~ >   + * ) $ , $ - ; $ ) ) $ $ ) $ - $ $ , $ ! $ - { ",
"+ * , $ $ ) $ ' ) ' ) ! ~ > + + * & - $ ) $ ) $ ) $ ) ' - ) , $ ) ' , ) ! >   + * ' $ ; - $ , - ) - , $ - $ ; $ , - $ , $ ) ~ ",
"+ * $ ) - ! ) , ! ) - ) ~ >   . ' ' ) ) { - ) ) - ) { ) - ) - ) { - ) ) ~ >   + * ) ) ! ) ) { - { ) ! - { ) { - ; { ) - ) - ~ ",
"+ , ; ; ; ~ ~ ~ ~ ~ ~ ~ ~ >   + , ; ; ! ! ! ! ! ! ! ! ! ~ ~ ~ ~ ~ ~ ~ ~ ~ >   + - ; ; ; ; ; ; ; ; ; ; ! ! ! ! ! ! ! ! ! ~ ~ ~ ",
"+ + > > > > > > > > ] ] ] >   . + > > > > > ] ] ] ] ] > > ] ] ] ] > > > > > + .   > > > > > > > > > > > ] ] ] ] ] > > > > > > ",
".         + + + +           +   + + + + + + +       . + + +     + + + + + + .   + . . . . ^ / / ^ . . + + (   ( .   . + + + . ",
"@ # # # * * * * * * * * * * * $ + . + @ @ # # # # _ : < & & & & & & * * * * * * * * * * * * * * * * * * $ + ( . @ @ # # # # # ",
"= - - = ' , = , ' - = ; = - $ ~   + . @ ) = & , * [ } | 1 - 2 3 4 - , - $ - $ - $ , & ; & - ' * & ' & $ ~   +   @ & , = - = - ",
"- $ - $ , - - ; $ - ; - $ $ ) ~ > + + # = ) $ , $ $ 5 6 7 8 9 0 a $ , b c $ ; $ $ - ; $ - $ ) - $ ) $ ) ~   + . & = , $ - , $ ",
") $ $ - ' ; $ , - - ' ; $ - ) ~ >   + # ) $ - ' - - d e f g h i ; $ a j k , - - $ ! - , $ ) $ ) $ $ ) ) ~ > ( + & , $ $ $ , $ ",
"$ - - $ - , , - , $ ' ; $ ; ) ~ >   + # ) $ $ , $ ; - l m n o p q $ r s t $ ; $ - ! $ ; $ ) - ) $ ) $ ) ~ >   + & = , $ , $ ' ",
") $ ; $ ) - , ' ; $ ; - $ $ ) ~ > + . # = ! $ , $ - ; u v w x y z A B C t $ ; - ! - $ ; - $ ) - $ ) $ ) ~ ]   + = , $ $ ! $ , ",
") = ; ) { , ) ' ) ' ) ! ' ) ) ~ > + . = $ ) - ! ) D E F G H I J K L M N [ - ) - - ! ' ) ) - { ) ' ) - ) ~ ] ( . = $ , ) ! ) ' ",
"~ { { { { { { { { { { { { ~ ~ ~   + . $ ; ; ; ; ; O P ; Q R S T U V W X ! ! ! ! ! ! ! ! ! ! ! ! ! ! ! ~ ~ ] +   $ ; ~ ; ~ ~ ; ",
"> > > ] > > > ] ] ] > > > ] ] >   +   +   Y > > > > > Z `  ...+.@.#.$.%.] ] ] ] ] > > > ] ] ] ] > > > > >   + . + > > > > > > ",
". . +     + .   .   + +         + + . + + + (   (   ( &.*.=.-.;.>.,.'.).(       ( ( + + . (     ( + + + . + .   . (   ( . + + ",
". @ @ # # # # # # # * * * * * * * * * * * * * * * * !.~.{.].^./.(._.:.# # # # # # # # * * * * * * * * * * * * * * * * * * * $ ",
". @ - = * , * , * , = - = - = & - = - = - * = ; = & <.[.}.|.1.2.3.4.5.$ = - $ = - = ' = , ; $ - ) - $ , - $ ' - $ , - $ ! $ ~ ",
"  @ = - $ ' $ , ) - $ $ - ' - $ - ; $ ) $ - ; - $ ) 6.7.8.9.0.a.b.c.d.; $ ; - ) ' - ; $ ; - $ ; $ ) $ , $ - $ ; $ ' , $ , ) ~ ",
"+ * ; $ $ ) - ! $ ; $ ) $ - ' $ ; - $ ) - $ - ; , $ e.f.g.h.i.j.k.l.$ , $ ; $ ) ' $ , $ , $ - ; $ ) ) $ ' ) ' - $ $ , $ ! ) ~ ",
"+ * = - $ { $ ! ) - $ - ) , $ , - ; , $ ; $ - ; $ ) m.n.o.p.q.r.s.t.) ' - ; - ' ) $ ; - ; - $ , - ) - , $ - $ ; $ , - $ , ) ~ ",
". * ) ; $ { - , $ ; $ ! $ ; $ - ; - $ - ; $ ; - , , u.v.w.x.y.z.A.B.$ ) $ - $ - ) $ ; $ ! ) ) { $ { $ ! $ { $ $ - ; { ) - ) ~ ",
"+ & $ ; ) ) ) ! ) { ) ) - ; - ) ) - ) ) ; ) ' ) ' ) ) C.D.E.F.G.H.I.' ) - ! ) ) ) ) ; - ) - { $ ! ) $ { ) - { $ ! $ { $ ) ) ~ ",
"+ $ ' ; ; ; ; ; ; ; ; ; ; ; ; ; ; { { { { { { { { { J.K.L.M.N.O.P.Q.; ; ; ; ; ; ; ; ; ; ; ; ! ! ! ! ! ! ! ! ! ! ! ! ~ ! , ! ~ ",
"+ +   > > > > > > > > > > > > > > > > >       > > > > R.S.T.N.U.V.W.> > > > > > ] ] ] ] ] >       > ] ] ] > > > > > > > > > > ",
". . . . . + +   +       + . / / . . . + + + ( (     ( X.Y.Z.`. +.+++.   . + . + (   (   ( + . . + + (   ( + + + .   . + + + . ",
"* * * * * * * * * * $ +   . # # # # # # # # * * * * @+#+$+%+&+*+=+-+* * * * * $ + . . & @ # # # # # # # # # * * * * * * * * * ",
"$ = $ = ' & = = & $ ~   +   # $ ; $ ) $ $ ; $ - $ $ ) ;+>+,+'+)+!+$ $ ) $ , $ ~   + . # $ , $ ) $ $ ; $ , - , $ ) $ - $ , $ ) ",
"$ , - $ ' $ , $ - ) ~ > + . # ; $ , - $ , $ ' ) $ - - ) ~+{+]+^+/+$ ) - $ ; $ ~   . . # $ ! $ ) $ - ; $ - $ , - - ' ) ' , ' - ",
"- , $ ' , $ , ' $ ) ~ > +   # ; $ $ , ' $ ) $ ) $ - $ ! (+_+:+<+[+- ) ' $ , $ ~   . / # $ , $ ) $ - $ - $ $ , $ ) ' - $ ' , $ ",
"$ - , $ ' $ ' , - ) ~   + . # ' ; $ , $ , ! ' - - - ) - }+|+1+2+3+- ' ) - $ , ~   . / # , $ $ ) $ ; $ $ , , $ , $ - ' ' - , ) ",
"$ - , $ , $ , ' $ ) ~   + + # ; $ , ! ' $ ) - - $ - $ ) 4+5+1+6+7+$ ' ) $ , $ ~   + . & $ , $ $ ) $ - - , $ , $ ) ' - $ , - $ ",
") ) - ' ) ) ' ) ) ) ~   + + ' ; $ $ ! $ , ) $ ) $ ; $ ! 8+9+0+a+b+' ) ' $ ; , ~ > + . & $ ! $ ) $ $ - $ - $ , $ ) ' ) ' , $ $ ",
"~ ~ { { { { { { { ~ ~ > + + $ ; ; ; ; ; ; ; ; ; ! ! ! ! c+d+e+f+g+! ! ! ! ! ~ ~ > + + $ ; ; ; ; ; ; ; ; ; ; ; ; ; ; ; ! ! ! ! ",
"> > > > > > > > > > > > + . + > ] ] ] ] > >       > ] ] h+i+j+k+l+> > > > > > >   + + + > > > >     +   > > ] ] ] > > > > > > ",
". + .   +     + +         + +       + + + + + . . + +   m+n+o+p++ + .   +   +   + + . + .   . + . ^ / . q++ +   . + . + .   . ",
"  @ # # # # # # # * * * * * * * * * * * * * * * * * * * r+s+t+u+  .   @ @ # # # # # # # # * * * * * * * * * * * * * * * * * $ ",
". # $ - - $ ; $ $ , ' $ , $ ) - $ ; $ , $ - $ ; $ ; $ $ v+w+x+y+  + . @ $ $ ; $ ; $ ! $ ) $ ! $ - ! ' - ) $ - , $ , ' ) - $ ~ ",
"+ # $ ; $ - ; $ - ' , $ ; - ! $ ' ; $ ! - ' - ; $ , $ , z+w+A+B+> + + # - $ ; - ; , ! - ! ' , $ ! $ ; $ ) - ) $ - , ' $ ; - ~ ",
"+ # - ; $ ; - ) ; $ ; $ - , - $ ; ' - - ! , $ { ' ! - ; C+D+E+F+>   + # - $ ; ; - $ , ! $ , ! ' $ ! $ ) ) $ ) $ , $ ) - ; $ ~ ",
"  # $ - $ - ; $ - , ' $ , $ ! - $ ; $ ! - $ ! ' $ , $ $ z+w+G+H+>   + # $ ; $ - ; $ ! $ ) ' , , ! - ; $ , - ' - ' , ) $ - $ ~ ",
". # $ ; - $ ; $ ; $ ; $ ; $ ) $ ; ; $ ! - , $ , - ; ' ; C+w+I+J+]   . # $ ; ; $ ; , ! $ ! $ ! ' ! $ ; - ) $ ) , $ , ' - ; ) ~ ",
"  & $ ; $ ; - ) - ' , $ - - - $ ' ; - , ! ; $ { $ ) ' , z+w+I+J+]   . & ) $ ; - ; $ ! , $ , ! ' ) - ; $ ) $ ) $ , ' ) $ ; $ ~ ",
". $ ; ; ; ; ; ; ; ; ; { { { { { { { { { { { { { { { { { K+L+M+N+> + . $ ; ; ; ; ; ; ; ; ; ! ! ! ! ! { { { { { { { { { { { ~ ~ ",
"  + > > > > > > > > > >       > ] ] ] ] > > > ] ] ] ] > O+P+Q+R+S++   + > > > > > > ] ] ] > Y   Y > ] > > > > ] ] ] > > > > > ",
".   .   . + . + + + + . / / . + .   . + . + (       ( + . + +   + + .   . + + + + + + + + q+. . . q++ + + +   T+] ] T+  + + . ",
"# # # # # * * * * * * * * * * * * $ + . + @ @ # # # # # # # # * * * * * * * * * * * * * * * $ +   . @ # # # # # * * * * * * * ",
", $ ! $ $ ; ' ; $ , & , $ ; $ , $ ~ > + + # $ $ $ $ ; $ { $ , $ ; $ ; $ ' $ ; $ ; $ ! $ ) ; ~   + . # $ ; - $ ! $ ) $ ) $ ; $ ",
"$ , , $ , $ ; ' , ; $ ! , ; - ; - ~ > + + # , $ ) $ ; ) { , ' , $ - ; - ' ; , - ) - ! $ ; $ ~ Y + . # ; $ ! $ ) $ ) - $ ) $ - ",
"$ , ! , $ ; ' ; , $ , ! $ - ; ' , ~ > + ( # , , ) $ ; , , $ ! $ { $ $ ; $ ; $ ; - ! - - ; ) ~ > + . # ; $ ) ) $ $ - ) - ) ; ) ",
", ' ! ' ; ; $ ; $ , $ ! , ) ; $ ; ~ > + ( # $ { ) $ ; $ { $ , ' ; $ ; - , ; $ ; $ - ! ) ' ; ~ > + . # $ ; ! $ - ) ) $ ) $ ; ) ",
"; $ , $ ; $ ; - $ ; $ , ! - $ , - ~ > + ( # { $ $ ; $ , ) - ! , { $ ; $ ; , , ; - ) ! - ) ; ~ > + + # ; $ - $ ) $ - ) ) ! $ ) ",
"; $ , , ; ' ' ; ' ; , ! $ ; $ ; ' ~ > + + # { $ ) $ ; , , - { ' ; - { $ , ; $ - ; $ ! $ ! - ~ >   + # ; $ ! ) ! $ ) $ ) ! ; $ ",
", ' ! $ ; ; - ; , , $ ! $ ; ) - , ~ > + . & $ { ) $ ; $ { - ; $ ; $ ) ; $ ; , $ ; - ) - ; - ~ >   + & ; ; ! $ ! $ ) $ ) $ ; $ ",
"{ { { { { { { { { { { { { { { { ~ ~ > + + $ ~ ~ ~ ~ ~ { { { { { { { { { { { { { { { { { { ~ ~ ] + . $ ~ ~ { { { { { { { { { { ",
"> > > > > > > > > > > > > > > > > > > + . +   Y Y > > > > > > > > > > > > > > ] ] ] ] ] > ] ] ]   + + > > > > > > ] ] ] ] ] > ",
"  .   .       + + + + + . .   + + + + . . . . . + + + . + + + . + +   + + + (     (     ( + (   ( . + +   . + + + + (   ( + + "};
