/* XPM */
static char * torch2_wall_xpm[] = {
"63 63 458 2",
"  	c #39332D",
". 	c #44362B",
"+ 	c #544C43",
"@ 	c #55453D",
"# 	c #4D433C",
"$ 	c #51423A",
"% 	c #5C4D45",
"& 	c #5B5751",
"* 	c #4C3C35",
"= 	c #4E4437",
"- 	c #53443B",
"; 	c #544533",
"> 	c #3B2E28",
", 	c #463832",
"' 	c #221B16",
") 	c #2D221C",
"! 	c #2C1F1B",
"~ 	c #332A25",
"{ 	c #392C25",
"] 	c #322E29",
"^ 	c #1F1C18",
"/ 	c #25211D",
"( 	c #221D19",
"_ 	c #2E2A25",
": 	c #2B2622",
"< 	c #2F2E29",
"[ 	c #34322D",
"} 	c #42413D",
"| 	c #444440",
"1 	c #474742",
"2 	c #44443F",
"3 	c #464440",
"4 	c #423F3A",
"5 	c #3E3D39",
"6 	c #41403B",
"7 	c #373732",
"8 	c #393732",
"9 	c #4B4944",
"0 	c #4C4A45",
"a 	c #54524D",
"b 	c #514F4A",
"c 	c #55524D",
"d 	c #575650",
"e 	c #5C544C",
"f 	c #5E5A54",
"g 	c #5F5C58",
"h 	c #625F59",
"i 	c #635B52",
"j 	c #5E594E",
"k 	c #605750",
"l 	c #64605A",
"m 	c #6C6355",
"n 	c #695F54",
"o 	c #6E6459",
"p 	c #645B4C",
"q 	c #71665B",
"r 	c #726655",
"s 	c #776B61",
"t 	c #746956",
"u 	c #6A604C",
"v 	c #876B58",
"w 	c #DC873F",
"x 	c #A07352",
"y 	c #6B5F4C",
"z 	c #7A6E5C",
"A 	c #746A5B",
"B 	c #846E5F",
"C 	c #D48544",
"D 	c #E58A35",
"E 	c #9E7152",
"F 	c #7B685A",
"G 	c #B3784D",
"H 	c #856952",
"I 	c #A7744F",
"J 	c #EE9138",
"K 	c #F09741",
"L 	c #D78641",
"M 	c #CC8144",
"N 	c #CB8145",
"O 	c #716559",
"P 	c #816956",
"Q 	c #736558",
"R 	c #4B3A2A",
"S 	c #55412B",
"T 	c #523E2B",
"U 	c #584633",
"V 	c #CB7C35",
"W 	c #F19841",
"X 	c #F49B43",
"Y 	c #F29337",
"Z 	c #C48048",
"` 	c #66554B",
" .	c #C37733",
"..	c #734B2C",
"+.	c #4C3A26",
"@.	c #604F47",
"#.	c #574735",
"$.	c #614F35",
"%.	c #67553A",
"&.	c #655233",
"*.	c #5B4A34",
"=.	c #835832",
"-.	c #EB9039",
";.	c #F19942",
">.	c #E48A36",
",.	c #8B6F57",
"'.	c #7E6F5B",
").	c #9D6C47",
"!.	c #E78A31",
"~.	c #7A512C",
"{.	c #61502E",
"].	c #604F2F",
"^.	c #5B5346",
"/.	c #756345",
"(.	c #86785D",
"_.	c #938462",
":.	c #95866B",
"<.	c #9C8B5B",
"[.	c #A08E5A",
"}.	c #A39E48",
"|.	c #978E4D",
"1.	c #9C8B54",
"2.	c #94845B",
"3.	c #8A7B5B",
"4.	c #83765C",
"5.	c #936C47",
"6.	c #E78B2F",
"7.	c #EF953D",
"8.	c #DE8738",
"9.	c #876E58",
"0.	c #B87D4D",
"a.	c #7D6B55",
"b.	c #AC723F",
"c.	c #E88A31",
"d.	c #7D5E3C",
"e.	c #7F704A",
"f.	c #7C715D",
"g.	c #8E805B",
"h.	c #948352",
"i.	c #877954",
"j.	c #76694D",
"k.	c #695748",
"l.	c #7D7265",
"m.	c #7B6A4B",
"n.	c #A4956C",
"o.	c #AB9B73",
"p.	c #B2A36A",
"q.	c #B8A86C",
"r.	c #BCAC64",
"s.	c #B9A763",
"t.	c #AB9C64",
"u.	c #A5956C",
"v.	c #9E8B62",
"w.	c #917652",
"x.	c #D17F32",
"y.	c #E78A2F",
"z.	c #AF7849",
"A.	c #977255",
"B.	c #D28543",
"C.	c #AC7950",
"D.	c #EA8F39",
"E.	c #CF7F35",
"F.	c #7D6544",
"G.	c #9B8B63",
"H.	c #9F9468",
"I.	c #BCAC6B",
"J.	c #C0AF68",
"K.	c #B7A75F",
"L.	c #B3A363",
"M.	c #6E6145",
"N.	c #7B6D54",
"O.	c #645A46",
"P.	c #695E45",
"Q.	c #BBAC74",
"R.	c #C3B472",
"S.	c #C6B96E",
"T.	c #CEC174",
"U.	c #D0C475",
"V.	c #CBBD73",
"W.	c #B29B67",
"X.	c #BE8B54",
"Y.	c #837455",
"Z.	c #A76E38",
"`.	c #A66E3C",
" +	c #92704C",
".+	c #C5844E",
"++	c #EF8E31",
"@+	c #ED8E34",
"#+	c #F2963C",
"$+	c #A86E3A",
"%+	c #8E8064",
"&+	c #BFB06C",
"*+	c #C5B776",
"=+	c #CBBC6E",
"-+	c #C3B36B",
";+	c #AB9C6B",
">+	c #8C7C53",
",+	c #6D5B3D",
"'+	c #735E46",
")+	c #C9BA79",
"!+	c #D1C57A",
"~+	c #D4C87D",
"{+	c #D5CB84",
"]+	c #D6CD8B",
"^+	c #D7CF93",
"/+	c #CEC17D",
"(+	c #A39464",
"_+	c #8D7C53",
":+	c #7C5D37",
"<+	c #C57A2D",
"[+	c #C27729",
"}+	c #E88D2F",
"|+	c #F19334",
"1+	c #F09236",
"2+	c #EB8C2E",
"3+	c #A06B39",
"4+	c #A59B67",
"5+	c #D2C582",
"6+	c #745C3C",
"7+	c #857963",
"8+	c #D6CF9C",
"9+	c #D7D09C",
"0+	c #D6CFA4",
"a+	c #A6824A",
"b+	c #E99231",
"c+	c #F1962E",
"d+	c #ED932C",
"e+	c #F29A38",
"f+	c #F6A146",
"g+	c #EE963A",
"h+	c #C17B39",
"i+	c #6D5533",
"j+	c #A4935C",
"k+	c #D7D0A4",
"l+	c #D7D093",
"m+	c #7B6443",
"n+	c #D6CFAA",
"o+	c #A3915A",
"p+	c #C7843C",
"q+	c #F29A37",
"r+	c #F59F3B",
"s+	c #F59D37",
"t+	c #F7A23F",
"u+	c #F6A041",
"v+	c #E38D37",
"w+	c #8E6E49",
"x+	c #D8D0A4",
"y+	c #B19F61",
"z+	c #7C633D",
"A+	c #D7D0AC",
"B+	c #A69359",
"C+	c #D08634",
"D+	c #F09D39",
"E+	c #F6A540",
"F+	c #F7A540",
"G+	c #F3A33F",
"H+	c #DA9037",
"I+	c #966A3E",
"J+	c #6B5E43",
"K+	c #806A48",
"L+	c #D8CFAE",
"M+	c #D8D0AA",
"N+	c #CFC06F",
"O+	c #7D6A45",
"P+	c #D6D0B0",
"Q+	c #A49259",
"R+	c #A67631",
"S+	c #BB812D",
"T+	c #DD9538",
"U+	c #E19839",
"V+	c #C1862E",
"W+	c #A67832",
"X+	c #7E6E53",
"Y+	c #6F603F",
"Z+	c #A99E59",
"`+	c #D8CF99",
" @	c #81683E",
".@	c #816945",
"+@	c #8A7D63",
"@@	c #625444",
"#@	c #AD9B5C",
"$@	c #946F2F",
"%@	c #9D7027",
"&@	c #A67627",
"*@	c #A97827",
"=@	c #A27427",
"-@	c #8F6C38",
";@	c #85765A",
">@	c #D8D09B",
",@	c #63544B",
"'@	c #B7A562",
")@	c #776339",
"!@	c #77551D",
"~@	c #8C6422",
"{@	c #916825",
"]@	c #805C20",
"^@	c #634C27",
"/@	c #776A50",
"(@	c #8A7A4D",
"_@	c #877447",
":@	c #5F4318",
"<@	c #664818",
"[@	c #72511C",
"}@	c #70501B",
"|@	c #60461D",
"1@	c #695E49",
"2@	c #907C4D",
"3@	c #59411A",
"4@	c #674919",
"5@	c #694B18",
"6@	c #6C4D1A",
"7@	c #5E451B",
"8@	c #766848",
"9@	c #847249",
"0@	c #5A421C",
"a@	c #6C4D19",
"b@	c #684A19",
"c@	c #6D4E1B",
"d@	c #59431E",
"e@	c #84734B",
"f@	c #B09E61",
"g@	c #796741",
"h@	c #5D4318",
"i@	c #6C4E19",
"j@	c #6D4D1B",
"k@	c #533F1F",
"l@	c #6F6249",
"m@	c #D8CF95",
"n@	c #7A6741",
"o@	c #5D4319",
"p@	c #624518",
"q@	c #6C4C1B",
"r@	c #60451D",
"s@	c #473A20",
"t@	c #685D49",
"u@	c #8B7D6A",
"v@	c #8F816B",
"w@	c #AA9C6B",
"x@	c #7C6A43",
"y@	c #583F17",
"z@	c #64471A",
"A@	c #66481B",
"B@	c #62533B",
"C@	c #807257",
"D@	c #B3A372",
"E@	c #877868",
"F@	c #887850",
"G@	c #5F4726",
"H@	c #593F17",
"I@	c #5F4418",
"J@	c #61451D",
"K@	c #7B6D56",
"L@	c #BBAB78",
"M@	c #685030",
"N@	c #563D18",
"O@	c #5C4119",
"P@	c #6E5B40",
"Q@	c #847761",
"R@	c #84796A",
"S@	c #AFA075",
"T@	c #615236",
"U@	c #664A1A",
"V@	c #5A4019",
"W@	c #664F30",
"X@	c #80735C",
"Y@	c #9A8654",
"Z@	c #5C492D",
"`@	c #553D17",
" #	c #5A401A",
".#	c #5E431B",
"+#	c #796C59",
"@#	c #817665",
"##	c #74644B",
"$#	c #81766A",
"%#	c #5F5036",
"&#	c #503918",
"*#	c #5B401A",
"=#	c #786B59",
"-#	c #7B6549",
";#	c #695C4E",
">#	c #503919",
",#	c #583F1B",
"'#	c #644F37",
")#	c #7C715F",
"!#	c #7A6E64",
"~#	c #7F7469",
"{#	c #706050",
"]#	c #4A3517",
"^#	c #533B19",
"/#	c #5E4628",
"(#	c #7A6D5F",
"_#	c #7A6C52",
":#	c #52402E",
"<#	c #553B1A",
"[#	c #64533D",
"}#	c #7E7367",
"|#	c #766B5F",
"1#	c #5A4B3B",
"2#	c #573D1B",
"3#	c #6B5A49",
"4#	c #5B533E",
"5#	c #5A523D",
"6#	c #4F402A",
"7#	c #583D1B",
"8#	c #5B492E",
"9#	c #695F4B",
"0#	c #57472E",
"a#	c #583E1B",
"b#	c #614D33",
"c#	c #9F992F",
"d#	c #BCBCB9",
"e#	c #B6B5B2",
"f#	c #9D9A93",
"g#	c #8C8539",
"h#	c #9D9830",
"i#	c #A19C34",
"j#	c #B9B9B6",
"k#	c #ACAAA6",
"l#	c #B3B2AE",
"m#	c #938D35",
"n#	c #B1AFAC",
"o#	c #A19F99",
"p#	c #9B962F",
"q#	c #6A5F25",
"r#	c #543C1C",
"s#	c #7E7325",
"t#	c #A6A49C",
"u#	c #ABA9A5",
"v#	c #B8B6B4",
"w#	c #A19C2D",
"x#	c #9B9531",
"y#	c #999330",
"z#	c #6F6423",
"A#	c #523B1C",
"B#	c #8A847E",
"C#	c #9B9638",
"D#	c #9F9A2C",
"E#	c #726821",
"F#	c #5F4C1E",
"G#	c #B1B0AC",
"H#	c #B3B2A2",
"I#	c #665748",
"J#	c #B4B3B0",
"K#	c #817C75",
"L#	c #B7B7B3",
"M#	c #7F7873",
"N#	c #615242",
"O#	c #AEADA9",
"P#	c #A5A2A0",
"Q#	c #6F675F",
"R#	c #4C361A",
"S#	c #615448",
"T#	c #96902A",
"U#	c #5C4D39",
"V#	c #1F1A16",
"W#	c #30221F",
"X#	c #3A3833",
"Y#	c #45423D",
"  . . + @ + @ @ # $ + % & % + * * $ * $ * $ = = * $ $ * * # $ $ $ $ - $ - - - + @ @ ; - - - $ + $ * @ * = # $ $ $ = * - + > , ",
"' ) ! ~ > { { { { { { { > { > > { ~ ~ { ~ { { ~ { { { { { ~ { { { { { { { { { {   { { { { { { { { ] { { { ~ { { { { { ] { ' ! ",
"^ / ( _ _ _ _ _ { ~ _ _ _ _ ~ : _ _ _ _ ~ ] _ _ _ _ ] ~ _ ~ _ ] _ ~ ~ _ ] _ _ ~ ~ _ _ ] _ _ _ _ ] _ ~ ~ ~ _ _ _ _ ~ ] _ < ^ ^ ",
"< [ [ } | 1 } 1 2 3 } 1 3 3 1 4 5 } 1 2 1 2 3 2 1 | 3 3 3 3 3 3 2 2 2 4 5 | | 3 2 2 2 2 1 2 2 1 | | 3 1 1 } 1 2 2 4 3 1 1 < < ",
"< < < 4 4 4 } } } 5 | 4 4 4 4 4 5 4 4 } 4 4 4 4 } } 4 4 4 4 4 4 } } } } 5 4 4 5 6 6 6 6 6 2 6 | 5 4 } 6 } 6 6 6 4 4 4 4 4 < < ",
"^ / ( : : : ) : ) _ _ _ _ _ : : : ) ) : : : ~ _ ~ _ ~ ~ ~ ] ~ ~ _ : : ) : : _ _ ~ _ _ _ _ / ) / : : : : : : _ ~ _ : _ _ : ( ( ",
"/ ( : _ ~ _ _ ] [ [       7   { < ] ] ]     8   7   7 8 8 8 , 8 [ ~ ] ~ ~ [ [   [ [ 8 7 ] _ _ _ _ _ ] ] {   [ 8     [ 7 7 ( : ",
"7 7 7 1 9 } 5 0 a a a a a a b 9 5 4 2 1 0 0 b b b b b c b d d b c 0 9 9 9 9 9 a e c c a b 2 1 1 9 9 9 9 0 0 c & c b c b b [ 7 ",
"8 4 5 c c b b c f g h h i g g c b 9 0 c c j e b k h h h g h h h g j c c d & f g g g g f c a b b c c d & d f h h g g h h k 8 4 ",
", 4 4 e e c e j f i l m n n i & e c b e e j k & % k n h n o o n l j e & e j & n n n n i j a e a e e & & & i i n i i n h h 5 4 ",
"4 2 2 & e e e & h l m m m m l p j e p & i k & i q h h o o o o n l f & & j & n n q n n h j j e e & & & i i i n l n h n n n 4 # ",
"4 # # i i & j i m m m m m r m l & p i p n o n n s n o o o o n o m i & j j i n r q m m l i j j j j n i n n n n o n o n n n 4 # ",
"2 3 - i i i i i l o o r o t o m u m n m m m o o q v w x q q q o m n p j i n m o q m o o u n n p y h l u n o o q o o o n n # 9 ",
"# + + n n m n m t t z A A t t t m r m u y m t t q B C D E A F G H n i n y l o q z t t t m u u u u m m m o q q q q q q q n 9 + ",
"0 + + n o o o o o o o o o o o o m o o m o o o o o o I J K L M N O o o P Q m m o m o o q q m m m o o r o o o n q o o o q o 3 + ",
"+ + % q q o ; R R R ; S S S S S S T T T T T T T R ; U V W X Y Z t o `  .... R +.T T T T S T T +.+.+.+.+.+.+.R R R * @.o A + + ",
"+ + + A A o = = #.$.$.$.%.%.&.&.&.&.&.&.&.&.&.&.%.$.*.=.-.;.>.,.'.A ).!.~.= ; ; $.&.%.&.&.&.&.{.{.{.].*.*.*.#.#.; S %.m z - ^.",
"+ ^.^.A z q ; /.(._.:.<.<.<.[.[.[.}.|.1.1.1.2.2.2.3.4.5.6.7.8.9.0.a.b.c.d.e.f.g.h.2.<.1.[.[.|.|.|.h.h.h.2.g.i.4.j.%.k.t l.+ e ",
"+ ^.^.z f.A ^.m.:.n.o.p.p.q.r.r.r.r.r.r.s.s.p.t.n.u.v.w.x.y.z.A.B.C.D.E.F.g.G.H.t.p.s.I.J.r.r.r.K.s.s.L.t.t.H._.f.%.M.N.l.+ ^.",
"^.e O.f.f.t P.N.H.p.Q.R.S.T.U.U.U.U.U.U.T.V.S.I.q.W.X.Y.Z.`. +.+++@+#+$+M.%+H.p.&+*+U.U.U.U.T.T.T.T.=+S.-+p.;+H.>+,+'+z %++ j ",
"^.O.O.f.l.A P.i.n.I.)+!+~+{+]+]+]+^+^+]+]+{+~+/+R.p.(+_+:+<+[+}+|+1+2+3+j.<.4+&+/+5+]+]+]+^+]+]+]+{+{+~+/+&+p.H.3.6+/.4.7+^.j ",
"^.p p f.f.f.,+i.;+R./+{+^+8+9+0+0+0+0+0+9+9+^+{+V.I.(+a+b+c+d+e+f+g+h+i+m.j+L.S.{+^+9+k+0+0+0+8+9+9+l+]+5+T.r.4+2.6+m+f.(.^.^.",
"^.^.^.f.f.z M.i.t.R.5+]+9+n+n+0+n+n+n+n+n+0+8+]+V.-+o+p+q+r+s+t+u+v+w+,+e.j+q.T.]+8+0+n+n+n+x+x+k+k+0+8+]+U.&+y+1.z+m+Y.%+^.u ",
"^.u u l.3.f.M.h.p.S.~+^+0+n+n+A+A+A+n+n+n+n+0+^+~+-+B+C+D+E+F+G+H+I+J+,+K+j+&+/+]+0+n+n+L+M+M+x+A+0+k+k+^+~+N+p.<.m+O+f.%+^.O.",
"^.M.O.f.7+z M.h.y+S.{+l+k+A+A+A+A+P+P+A+A+A+k+9+~+=+Q+R+S+T+U+V+W+X+j.Y+e.Z+S.U.^+k+A+A+A+n+M+x+M+x+M+x+`+{+=+J.[. @.@(.+@@@O.",
"^.u u 4.%+z /.h.L.N+{+9+k+k+A+A+P+P+P+P+A+A+k+l+{+N+#@$@%@&@*@=@-@;@j.Y+h.Z+N+~+`+x+k+A+M+M+M+M+M+M+M+x+>@]+V.J.[. @.@3.+@,@P.",
"^.u u (.g.f./.h.s.U.{+9+k+A+A+P+P+P+P+P+P+A+k+9+~+=+'@)@!@~@{@]@^@/@j.Y+(@y+=+~+>@x+M+A+A+A+A+M+x+M+M+x+x+]+U.-+j+ @.@3.3.j y ",
"^.u u (.%+f.O+h.s.N+]+9+k+A+A+A+P+P+P+P+P+A+k+l+{+=+K._@:@<@[@}@|@1@j.Y+(@y+N+{+>@x+A+A+A+L+A+M+M+x+x+x+x+]+!+-+[. @.@3.%+j P.",
"u u u 7+%+l./.h.s.T.]+9+A+A+A+A+A+P+P+P+P+A+A+9+{+N+s.2@3@4@5@6@7@8@j.Y+h.L.N+{+9+k+A+A+A+A+A+M+M+M+M+x+8+]+U.J.[. @.@Y.%+p u ",
"j u u +@_.z /.>+L.T.{+9+A+A+A+P+P+P+P+P+A+A+k+l+~+=+K.9@0@a@b@c@d@1@m.Y+e@L.T.{+9+k+A+A+A+A+A+M+M+x+M+x+`+]+V.J.[..@K+4.%+^.u ",
"O.u u +@+@l./.h.L.S.{+9+k+P+A+A+A+P+n+P+A+A+9+]+~+=+f@g@h@i@b@j@k@l@j.M.3.p.S.{+9+x+A+A+A+M+M+M+M+L+L+x+m@{+V.J.<.z+K+(.+@p u ",
"p u u +@%+z /.>+p.R.{+9+k+A+A+A+A+n+n+n+k+k+9+]+U.-+f@n@o@p@q@r@s@t@j.Y+e@p.-+5+m@x+A+A+A+M+M+M+M+M+x+x+m@{+*+p.[.m+O+3.+@p u ",
"k.u y u@v@f.M.>+4+Q.~+l+l+9+9+9+9+9+9+9+l+l+{+{+V.I.w@x@y@:@z@A@B@C@j.P.e@;+*+5+l+>@k+9+k+x+>@x+>@>@>@m@m@5+V.D@<.m+.@4.E@,@n ",
"p u i u@+@f.u i.4+Q.)+5+{+{+]+]+]+]+]+{+~+!+U.T.&+D@(+F@G@H@I@J@K@f.j.M.Y.;+Q.)+5+]+l+^+l+]+l+l+^+l+]+{+{+)+*+D@G.'+.@4.u@,@y ",
"j n y u@u@l.k.Y.n.D@L@Q.T.T.T.T.U.U.N+N+N+S.&+r.p.;+(+i.M@N@O@P@Q@7+t O.z n.D@Q.*+)+!+!+U.!+~+~+~+!+U.V.)+*+Q.o._.'+.@4.u@i y ",
",@y m R@u@f.O.Y.H.o.S@p.p.p.r.I.&+r.r.K.L.y+y+t.n.n.G.Y.T@U@V@W@X@l.t M.N.n.o.D@D@I.Q.&+-+-+-+-+-+-+J.Q.D@D@D@o.(.'+'+4.u@,@y ",
"j p n 7+%+z p j.v@_._.2.|.[.[.|.|.[.|.1.Y@Y@g.g.3.3.Y.N.Z@`@ #.#+#@#r O.##(._._.<.(+[.<.j+j+j+j+j+j+(+[.G.G._.+@N.'+'+f.E@,@y ",
"e y y $#R@l.u y ##j.m.j.e.e.e.e.e.z+O+e.O+O+O+M././.'+P.%#&# #*#=#@#t O.y ##-#O+m.e@e@e@e@e@(@e@(@e@e@K+K+-#j./.P.y '+z @#,@y ",
"e i i $#R@7+l.l.7+l.l.7+l.l.l.l.l.7+l.7+l.7+@#l.l.@#@#@#;#>#,#'#)#@#l.@#@#@#$#$#l.l.l.7+l.@#l.7+$#7+@#@#$#@#@#@#@#@#!#l.l.j i ",
"^.p p ~#l.R@R@~#7+7+R@7+7+7+g.(.(.f.4.(.7+f.4.4.@#(.s l.{#]#^#/#(#@#$#@#@#$#7+7+7+4.%+%+%+%+%+v@+@+@+@E@@#@#z !#!#@#l.@#l.^.j ",
"e ,@k $#l.@#$#$#R@R@%+R@7+7+l.7+(.l.f.7+7+7+7+l.l.7+~#l._#:#<#[#}#$#$#$#$#7+7+7+E@7+v@u@v@v@v@v@v@u@u@u@@#l.l.!#!#@#l.~#$#e k ",
"^.j & ~#~#$#$#$#l.E@R@l.f.@#l.f.f.l.l.f.l.l.f.l.l.l.~#~#|#1#2#3#$#$#$#E@$#@#l.@#l.@#@#u@R@R@v@v@u@u@u@E@@#l.l.l.l.!#l.$#R@^.j ",
"e j ,@!#4#4#4#4#4#4#4#4#4#4#4#4#4#4#4#4#4#4#4#4#4#4#4#4#5#6#7#8#4#4#^.4#4#4#4#4#4#4#^.4#4#4#4#4#^.^.4#4#4#4#4#4#% 4#4#4#$#e j ",
"% & e !#4#P.P.P.P.P.u j z O.M.O.M.M.u O.P.M.O.P.M.^.M.u 9#0#a#b#P.P.P.P.P.P.P.P.M.M.O.M.M.M.M.M.M.P.P.P.P.P.P.P.P.P.P.4#$#% e ",
"^.j j !#4#/.c#Z+d#e#f#f#|.g#h#i#j#k#f#l#h#m#m#h#n#o#l#d#p#q#r#s#e#t#u#v#w#m#g#4+u#f#e#d#h#g#h#w#d#k#l#d#w#m#m#h#d#d#P.4#~#^.j ",
"c c e !#4#P.x#n#d#j#e#4+|.h#i#d#j#k#e#i#h#x#h#e#n#e#d#i#y#z#A#B#l#l#j#w#w#x#}.v#n#e#j#i#C#h#w#d#l#l#d#w#h#m#h#d#d#j#P.4#~#c j ",
"^.j e !#4#P.t#d#j#j#j#}.i#c#}.d#d#j#j#w#w#w#w#d#d#d#d#w#D#E#F#G#d#d#d#w#w#i#i#v#e#j#d#i#x#w#i#d#j#d#d#w#h#w#i#d#d#d#P.4#~#% e ",
"e e e s 4#u d#v#j#H#}.w#w#w#d#d#d#d#w#w#w#w#d#d#d#d#w#w#D#E#I#J#d#d#w#w#w#w#d#d#d#d#h#w#h#c#d#d#d#d#w#w#w#i#d#d#d#d#P.^.$#e e ",
"% e k !#4#M.l#l#e#}.w#w#}.d#d#d#j#w#w#w#w#d#d#d#d#w#w#w#D#K#I#J#d#w#w#w#w#d#d#d#d#w#w#w#i#d#d#d#d#w#w#w#c#d#d#d#d#w#M.4#~#e c ",
"d k k !#4#M.l#l#4+i#i#i#e#d#j#j#w#w#w#w#j#j#j#d#w#w#w#w#L#M#N#O#w#w#w#w#d#j#v#d#w#w#w#h#L+d#d#d#i#w#w#w#j#d#d#d#w#w#M.4#~#e j ",
"e k k ~#^.u f#t#w#w#w#C#d#j#e#j#w#w#w#c#j#l#j#d#w#w#w#w#P#Q#R#S#T#w#w#w#j#e#v#j#w#w#h#h#d#e#d#d#w#c#w#i#j#e#e#j#w#w#M.4#$#e p ",
"e ,@& ~#^.^.o.x#w#w#}.j#j#k#e#w#w#w#w#e#k#e#d#w#w#w#w#j#n#e#j#w#w#w#w#j#e#n#e#c#h#h#C#d#e#l#v#w#x#x#i#d#l#H#v#c#w#w#u 4#$#e & ",
"e ,@,@~#^.P.m#c#w#x#l#e#u#t#c#w#c#c#v#u#t#v#w#w#w#w#e#u#t#e#c#c#w#c#e#d#f#n#c#m#g#h#d#e#f#e#w#x#g#h#j#l#t#u#c#c#c#h#M.4#l.e ,@",
"j i i ~#4#P.P.P.O.O.M.u u O.O.M.P.P.M.P.P.P.P.P.M.M.O.M.M.u M.u M.M.u M.M.M.M.M.P.y M.y O.P.P.P.M.M.O.u M.M.M.u M.P.P.4#$#j i ",
"^.i & $#4#e 4#^.4#4#^.4#4#4#4#4#% 4#4#4#4#4#U#% 4#4#4#4#4#4#4#4#4#4#4#4#^.4#4#^.4#4#^.4#% U#U#@.4#^.4#4#4#4#4#4#4#4#4#4#~#e & ",
"e i i ~#~#E@R@R@R@R@R@R@E@~#~#l.~#$#l.l.$#!#$#@#~#~#~#~#!#l.~#~#~#~#~#~#~#l.~#~#$#~#l.l.$#$#!#!#!#l.!#!#s s s !#!#l.~#$#$#e i ",
"% ,@@.$#$#$#$#$#l.l.l.@#l.l.@#!#!#s s s !#!#!#!#!#!#!#!#s !#s $#~#l.l.l.s !#!#!#s $#!#$#!#!#@#s s s s q q o o s s s s $#$#% ,@",
"* @ * @.,@,@@.,@p j ,@,@,@,@@.^.,@@.@.@.@.,@,@@@,@@.@.@.@.,@,@k.k.p ,@,@,@@@% ,@,@,@,@,@,@@.@.@.@.@.@.@.@.@.@.@.% ^.@.k.,@, - ",
"~ . . * * * * * * * * * * * * * * * * * * * * * * * * * * * * * # * * * * * * * * * * * * * * , , , , , , * , * * * * * * {   ",
"V#' ' W#W#W#W#: ) ) ) ) W#! ! ! ! ! ! : ! W#W#W#! ! ! ! W#W#: ) ) ! ) ) ) ! ! ) W#W#! ! : ! W#! ! ! ! ! ! W#W#W#: ) ) : W#' ' ",
"W#_ : 7 8 8 7 7 7 7 7 7   8 8 8 7 7 7 7 7 8 7 8 X#8 8 8 8 X#8 8 8 X#X#X#7 8 8 8 7 7 7 [ 7 7 7 7     7 7 7 7 7 7 7 7 7 7 8 : : ",
"] ] [ 4 1 } 3 3 3 3 3 # 2 Y#3 1 | 3 1 3 3 3 3 3 # 3 3 3 1 3 3 3 Y#Y#4 Y#3 2 2 3 3 3 3 # 3 3 3 3 3 3 3 3 3 3 3 3 3 3 3 1 # [ [ ",
": : : 7 5 7 8 8 7 7 7 7 7 7 7 7 8 8 8 8 8 8 8 8 8 8 8 8 ] 8 7   X#X#8 X#8 7 8 8 7 7   7 8 7 7 7 8 8 7 7 7 7 7 7 7 7 7 7 8 : : "};
