/* XPM */
static char * torch3_wall3_xpm[] = {
"63 63 255 2",
"  	c #1F1F1F",
". 	c #3B3B3B",
"+ 	c #575757",
"@ 	c #535353",
"# 	c #4F4F4F",
"$ 	c #4B4B4B",
"% 	c #D3D3D3",
"& 	c #DFDFDF",
"* 	c #838383",
"= 	c #ABABAB",
"- 	c #B7B7B7",
"; 	c #C7C7C7",
"> 	c #474747",
", 	c #8F8F8F",
"' 	c #6B6B6B",
") 	c #7B7B7B",
"! 	c #676767",
"~ 	c #5F5F5F",
"{ 	c #9B9B9B",
"] 	c #737373",
"^ 	c #EFEFEF",
"/ 	c #3F3F3F",
"( 	c #BA7E55",
"_ 	c #D3823C",
": 	c #5D4638",
"< 	c #5D463A",
"[ 	c #705445",
"} 	c #A09488",
"| 	c #E99C3E",
"1 	c #935E38",
"2 	c #8D5B38",
"3 	c #A96A39",
"4 	c #8B796D",
"5 	c #E49234",
"6 	c #875124",
"7 	c #C67834",
"8 	c #AFAAA8",
"9 	c #70584C",
"0 	c #BA7744",
"a 	c #56443A",
"b 	c #8C5B38",
"c 	c #E78A32",
"d 	c #BBA69D",
"e 	c #E1D3CD",
"f 	c #CBAA9A",
"g 	c #D09F83",
"h 	c #918F8E",
"i 	c #A67B63",
"j 	c #916141",
"k 	c #4A3020",
"l 	c #C3742B",
"m 	c #EF8E30",
"n 	c #D29B7C",
"o 	c #EDD4C9",
"p 	c #B0AAA7",
"q 	c #CA8F6B",
"r 	c #868382",
"s 	c #5B5857",
"t 	c #7C5F4F",
"u 	c #AA6528",
"v 	c #F3963D",
"w 	c #E28D3F",
"x 	c #B4A8A2",
"y 	c #EDD3C7",
"z 	c #90847F",
"A 	c #ADABAA",
"B 	c #6C6B6B",
"C 	c #6C5549",
"D 	c #AC6729",
"E 	c #F29840",
"F 	c #B77540",
"G 	c #ADAAAA",
"H 	c #CCC2BF",
"I 	c #D39E80",
"J 	c #DD996E",
"K 	c #928F8E",
"L 	c #675349",
"M 	c #CD7C2E",
"N 	c #F2983E",
"O 	c #A86D40",
"P 	c #ACAAA9",
"Q 	c #E9A070",
"R 	c #EF9138",
"S 	c #C38F70",
"T 	c #6D6B6B",
"U 	c #764822",
"V 	c #F19639",
"W 	c #F49C42",
"X 	c #B77231",
"Y 	c #C59273",
"Z 	c #EE923A",
"` 	c #EB913C",
" .	c #A48E84",
"..	c #2B231F",
"+.	c #B26B28",
"@.	c #F3993B",
"#.	c #F59E41",
"$.	c #EF922E",
"%.	c #EF9535",
"&.	c #EC9032",
"*.	c #C67833",
"=.	c #58453A",
"-.	c #31261F",
";.	c #D18130",
">.	c #F7A144",
",.	c #F6A041",
"'.	c #F49834",
").	c #F6A042",
"!.	c #EA9137",
"~.	c #966037",
"{.	c #514D4B",
"].	c #D4863F",
"^.	c #F7A244",
"/.	c #F7A344",
"(.	c #F7A141",
"_.	c #F59E3F",
":.	c #D48D51",
"<.	c #938F8D",
"[.	c #E79855",
"}.	c #F29F43",
"|.	c #F6A244",
"1.	c #BC9676",
"2.	c #DCDBDA",
"3.	c #EFD1C4",
"4.	c #C67F2D",
"5.	c #B77E2F",
"6.	c #DB933B",
"7.	c #DF953C",
"8.	c #B97F31",
"9.	c #AE8C69",
"0.	c #B6B4B3",
"a.	c #CDBFBA",
"b.	c #A07852",
"c.	c #976B2A",
"d.	c #A07228",
"e.	c #A47528",
"f.	c #986D28",
"g.	c #896945",
"h.	c #A8A7A6",
"i.	c #948F8B",
"j.	c #75572C",
"k.	c #8E6525",
"l.	c #966B28",
"m.	c #866023",
"n.	c #6C5A43",
"o.	c #838280",
"p.	c #A09E9D",
"q.	c #614822",
"r.	c #70501C",
"s.	c #76551E",
"t.	c #71501B",
"u.	c #664C25",
"v.	c #6D6964",
"w.	c #898886",
"x.	c #6E5E4D",
"y.	c #644719",
"z.	c #654818",
"A.	c #6A4C1A",
"B.	c #654D2C",
"C.	c #6E6B67",
"D.	c #8C8C8B",
"E.	c #6D6155",
"F.	c #6A4C19",
"G.	c #674A19",
"H.	c #6C4D1D",
"I.	c #6F6358",
"J.	c #92908E",
"K.	c #5B4324",
"L.	c #684B19",
"M.	c #634719",
"N.	c #6F5331",
"O.	c #716C67",
"P.	c #594221",
"Q.	c #5C4118",
"R.	c #67491B",
"S.	c #796A5D",
"T.	c #7B7A7A",
"U.	c #9F9D9C",
"V.	c #574226",
"W.	c #583F18",
"X.	c #5F4319",
"Y.	c #6F5943",
"Z.	c #7E7A78",
"`.	c #A6A6A5",
" +	c #766E67",
".+	c #553D17",
"++	c #5B4118",
"@+	c #5D4421",
"#+	c #746F6C",
"$+	c #8D8884",
"%+	c #553C19",
"&+	c #5B4119",
"*+	c #6D6053",
"=+	c #8D8D8D",
"-+	c #664A1A",
";+	c #5A4019",
">+	c #6B5946",
",+	c #7E7C7A",
"'+	c #8B8783",
")+	c #5A401A",
"!+	c #5E431B",
"~+	c #9C9996",
"{+	c #523917",
"]+	c #5B411A",
"^+	c #5D5853",
"/+	c #77726E",
"(+	c #533B18",
"_+	c #574229",
":+	c #3E3B38",
"<+	c #35291B",
"[+	c #4B3517",
"}+	c #533B19",
"|+	c #593F1B",
"1+	c #34291E",
"2+	c #40372E",
"3+	c #483416",
"4+	c #563D1A",
"5+	c #4F3C27",
"6+	c #3D3B39",
"7+	c #6F6D6B",
"8+	c #4C3C2C",
"9+	c #583E1B",
"0+	c #6A5E55",
"a+	c #B3B3B3",
"b+	c #726A64",
"c+	c #583D1B",
"d+	c #958E89",
"e+	c #C3C3C3",
"f+	c #847E79",
"g+	c #AFA9A4",
"h+	c #6C635C",
"i+	c #563D1B",
"j+	c #8C847E",
"k+	c #DBDADA",
"l+	c #6E665F",
"m+	c #533B1C",
"n+	c #706963",
"o+	c #DBDBDB",
"p+	c #6F6761",
"q+	c #5B4937",
"r+	c #888785",
"s+	c #7C756F",
"t+	c #625242",
"u+	c #A4A3A3",
"v+	c #CFCFCF",
"w+	c #5C4A39",
"x+	c #7F7E7D",
"y+	c #6E6660",
"z+	c #5E4E3D",
"A+	c #868483",
"B+	c #878583",
"C+	c #483827",
"D+	c #4C361A",
"E+	c #514130",
"F+	c #666462",
"  .   .   .   .   .   .   .   .   .   .   .   .   .   .   .   .   .   .   .   .   .   .   .   .   .   .   .   .   .   .   .   ",
"+ @ + # + # + # + # $ % & & & % & % & & & % & % & & &   . * = - % ; % % ; % - ; = * +   > > > > > > > > > > @ # + # + # + # + ",
"@ + @ @ + @ @ @ + @ > & % ; % - % % % ; % % - % % ; ,   . * ; - , = * , , , , * = # .   . ' , , * , , , ) ' ! > > > $ > > > $ ",
", , * , , , * ,   @ $ & ; ; - % - ; ; - ; ; - - % , ~   . = % = , = , = * = , = * + .   . , % & & & % & - - = , * , , , * , , ",
"% % % % - = , *   + > & % = = { = , = = = = { = = ) @   . , - , , * = = = = * , ] # .   . * & & - ; - % & & & % & % ; % % % ; ",
"= = = = { = ) ]   @ > ^ - { = = = = { = , = * = = ' @   . > = , = = * , { , = ' + @ .   . , % - = , = , = = { , , = , = * = , ",
"- { { { = , ) '   $ > ^ % = * = , = , { { { , , = , #   . > ) , * = , = = * = ] . . .   . * & - , = * { * , , = * , { , = { , ",
"- = * - * { ~ +   . > ^ ; , { , = = { , ) , , = , ~ +   . > > , = = { , , , = ' . . .   . , & = = * { ) = { ) , = * = = , ) = ",
"{ = = , { ] > $     $ ; - = { = * = , { * { , , = ' @     $ @ > ) . . . . . . . .     . . ] & & , = * * { ] { , = , , ) = = ] ",
", , * , ] @ > >   . > = ^ = { = , , , , , , * = * + )     . > . . . . . . .   .       > > > ; ; , , , , { { { * , = , = = * = ",
"] ' ] ] # $ . .     $ , % , = , , ) , , = * = , = ' + .   . > .               .   .   $ @ > ; = , = * = , * , ] ' ! ~ ~ ! ~ ! ",
"@ + > > >         . / ] & = * { ) ) ) = { , * ) , ( _ :   < [ > $ $ ] ) , = { = = { ] . # $ - , ' ] ! ~ ! + @ @ @ > $ > $ > > ",
"          .   .   . @ > & ; , , , { { * , = ) , = } | 1   2 3 ] = = % & ^ % % % { ' @   @ > , ' ! ~ @ $ > > . . . . .   .   . ",
"  .   .     .   . . # > = % , = * ) , = , * { , * 4 5 1   6 7 8 - & % - * = , = * ] .   . . . . . . . . . . .                 ",
". . . . . . . . . . $ $ , ; = * = { * ) , ) , = , 9 0 a   b c d e f g h , , * , , # .   .     .     .     .   / / . . . . . . ",
"@ $ . . . . . .   . @ > ] ; * = { , = { = * = * = # i j k l m n o p q r = , = * = @ .   . > + @ + +   > $ > > $ > > > > > > > ",
"{ { , { , { , { {     + > ; - { , * { { ] , , , , ' s t u v w x y z q A = * = , , # .   . ' = & % + > @ ) { { , { { { , { { { ",
"% ; % % ; % - = ] /   + > , - , = , ) , , * = , ' , B C D E F G H I J K * = , = * + .   . = % ; =   > ) ; % & & & % & & & % & ",
"= { , = , = = ' ] .   @ > ] { = * = = * = ] , ' @ ] @ L M N O P Q R S T ] ] ' @ + @ .   . % ; = *   $ { % % - - = - - - = - - ",
"= , { , = * , ' ] .   > @ > { , ] ] ' ] @ @ ] # ] @ > U V W X Y Z `  .' . . . . . . .   ~ & = , ,   > { & = = { = , = , { * { ",
"= , , = * = = ' + .   > @ > ! @ + @ + > > > .       ..+.@.#.$.%.&.*.=..                 ~ & = = *   $ { % = , { * { , { ] * , ",
"= , = , = * , ] # .   > @ >   .   .                 -.;.>.,.'.).!.~.          .     .   , & = = ,   > , ; * = { = , = , { * { ",
", = ] ) , , = ' + .   . # + $ .                 # $ {.].^./.(._.:.<.= = , , , ) +   / ! - & = * )   $ * ; = * { , { * { ) ) , ",
", * * ) , = * ! > .   . * & & & % ; = = , ~ . $ ! ) d [.}.|./.}.1.2.% & & & ; { !   . ) & ; { = ]   > * - = { , = * = , ) ) , ",
", , = = * , , ~ $ .   . % ; = , { { = , { . # $ ) % 3.4.5.6.7.8.9.0.; - ; - ; ' +   . , & = { , '   $ ' ; * = , , { , * = , = ",
"{ = * , = * ] @ . .   . & { , { = = , { =   @ $ { & a.b.c.d.e.f.g.h.{ = { , * ! >   . , ^ = * = +   $ > , ] ~ + @ @ ! ! ' ) , ",
"! ~ ! ~ ! @ > . . .   . % = = = * = , = ~   $ > { ^ = i.j.k.l.m.n.o.* , = * = + >   . * ^ = = , +   @   . . > > > > $ > > @ + ",
"@ $ > . . .           . & * = , = = , ) ~   $ > { ^ * p.q.r.s.t.u.v., = , , , # $   . , ^ * = , #   + .                   . . ",
"              .   $ $ > & = { * = , = ) ~   . > { ^ , w.x.y.z.A.B.C., * , = , # $   . * ^ = = * +   + . . . . . . .   .       ",
"> ! ! ' , { , * , , >   & = ] { , = * * ! .   > , ^ = D.E.F.G.H.I.D.= ) , * = @ >   . , ^ , = = #   + > / > # @ # + @ @ + . . ",
"! , - & % & % % ; = ]   & = = * ) , = * ! .   > , & - J.K.L.M.N.O.) , ) , = * + .   . , % , , = #   $ = & % - , ~ + > > $ > > ",
"! = % ; ; - = = { = /   ^ , { = ) , = { ' >   $ ) % ; p.P.Q.R.S.T.) = , = * * # .   . , & = , , @   $ & * , - & & % & & & , . ",
"! & - = = * = , = * ]   ^ { = , = = * = ' $   . # ; & U.V.W.X.Y.Z.= ) ) , = ' + .   / , % , = , #   $ & , * = = * , = , * * . ",
"! % - { * = , = * = ]   ^ { * { = , = * ! @     + = ^ `. +.+++@+#+, ) ) = * ] > .   $ , % = = * +   > & = = * , = = * = , ~ . ",
"! & = , = , = = ) = #   & = = = , , , = ! #   . # , ^ - $+%+&+*+=+{ * = , = ~ >   . / , % { , = #   $ ; = , = = * , = , = ~ . ",
"! & = = , , { { = * +   & - ) { ) = = { ~ +     $ ' % - $+-+;+>+,+, { , , , ~ .     $ , % , = # +   $ ; = { = , = * , = { + . ",
"! % - , = = , = * = @   ; & * { = , , , ~ +     $ @ - & '+.+)+!+~+, = * , ! @ .   . > ) = ) # . . . / = = , = { , = , * = + . ",
"! & - = { , = , = , #   - & ) = * , , = ' +     . # , - '+{+]+]+^+@ > $ . . . .   . / + . . . . / >   ] # > @ + @ + @ @ + @ . ",
"! & = , = = * = ) = @   { % { ) = = * , ' +     . @ > , /+(+]+_+:+                . > # > > # @ + @ +                         ",
"! % - , * { = , = * +   ) & = { = * , = ! #       # > . <+[+}+|+1+  .   .     .   . > @ + > > $ > > > $ > > . . . . . . . . . ",
"! & - = = * { = , = @   + ^ , { , , = * ! @     . > > > 2+3+4+5+6+$ > $ / # $ > $ > > + @ ) ) ) ) ) ) ) ) ) ) ) ) ) ) ) ) ] . ",
"! & = , , = * = , ' +   > ^ = , * ) , = ' +       / ! ) 7+8+9+0+) ) ) ) ) ) ) ) , , , { = - = ; - ; - ; - - ; - ; - ; - ; ) . ",
"! ; - = = , = , = #     # ^ { , = , , * ! + .     . ) ; a+b+c+d+- ; ; - ; - ; - ; - % & & ^ ^ ^ ^ ^ ^ ^ ^ ^ ^ ^ % & % % , !   ",
"! % - , = , = = * +   . / ^ , = ) { * = ! # .       ) ; e+f+c+g+^ ^ & & ^ ^ & ^ ^ ^ ^ ^ & & % % - - - ; - = - ; - - ; - ) +   ",
"! - - = , = * , , #   . > & = = * = , , ~ + .       ) ; e+h+i+j+; - ; = - ; = - ; - - = = { { , , = , = * , , = * = , = ' + . ",
"$ ; * , = * ] ' ] @   . > % * , = * = , ' + .       ! - k+l+m+n+* , , , = * = = , , { = = = , ) { * = = { * = , = = { , ' @   ",
"> - = = { , + @ @     / > - = * , = , * ] @ .       > ; o+p+q+r+, = , { , { = * , { = = * { , { , , ) * { { , = * = , = ' + . ",
"> ) ) ) + @ + @ @   . . / { { = * , , ' ! @ .         - o+s+t+u+* , , , ) , * = , { * = { ) * , = * , = , ) ] , ) { , , ] @   ",
"> .       + @ @ +   . / $ ) ! ~ ! ! ~ ! @ @ .       . = v+s+w+x+= , = * , = , ) ) { { * = , = , , = * , ) , , * = , ] * ' +   ",
"@ + @ > .         . . / . . . . . . . . . . .         , v+y+z+A+, = * = ) , * { ) { , { ) = * , ) , , , * = , ) , , * ) ' +   ",
"> $ > > > $ > .     . $ . .                         . * B+C+D+E+F+] ] ' = , = = * , ) * , , ) , , = * = , , = * , , , { ' +   ",
"> ) = = = = , , ! $ $ @ . .     .     .     .   .   . @ > . .   .   .   + ] ' ) , ) ) ) ) ) ) ) ) ) ) ) ) ) ) ) ) ) ) ) ! #   ",
"> = ; % & % & & - = = , ' ~ + $ . . . . . . . . . . / + > > . . . . . .   $ @ @ + @ + @ + @ + @ @ @ + @ + @ @ + @ + @ @ @   . ",
"> = % = = , - % & & & - = = = = = = = { , , * ) ) ' ! ! # + > > > / > . .   .   .   .   .   .   .                           . ",
"> = & = = = - = , = - & & & % & % & % & & & & ; % ; - = = = = = * $ @ > . . . . . . . . .     .   .   .   .   .   .   . . . > ",
"> = & = * = ) ) = { , ) = * = , = , = = * = , = = = ; % & % % - * . > # $ > > . . .   . . . . . . . . . . . . . . . . . / > $ ",
"> = ; = = = , = , , , { = * , = ) ] , = ) , * , = * = , = = = ) !   . # $ = % & { ) $ $ > @ @ @ > > / > > > / > > / > > # + @ ",
"> = ; = * = ) ) { = * = = { * ) = ) , ) { * = , = , = * = = { ! @   . > > & = = & & & % - @ @ $ - & & % & & & % % ; = { ) $ > ",
"> = * ! ~ ! ~ ! ~ ! ! ~ ! ~ ! ! ~ ! ~ ! ~ ! ! ~ ! ~ ! ~ ! ~ ! + @ .   . > % - = - = - - - ~ + ) & { = = , = * = { = , = % {   ",
"> , ! . . . . . . . . . . . . . . . . . . . . . . . . . . . . . . .     $ - = - - { ~ { * ! > - = , = * = = = * = , = * = @   ",
"> .                                                                     # . > . # ! ~ ! ! ~ $ & { { { = = , { = { { = , , #   ",
"@ $ . . .   .     .     .     .   .     .     .     .     .     .   .   / # + . .           . @ + @ @ @ @ @ + # @ + @ + # +   ",
"@ + # @ > > > $ $ > $ $ . . . . . . . . . . . . . . . . . . . . . . . . . # + # @ . . . . . . # @                             "};
