/* XPM */
static char * torch1_wall_1_xpm[] = {
"63 63 232 2",
"  	c #7C7C7C",
". 	c #483818",
"+ 	c #543C1C",
"@ 	c #5C4020",
"# 	c #744C28",
"$ 	c #403018",
"% 	c #545454",
"& 	c #646464",
"* 	c #707070",
"= 	c #2C2C2C",
"- 	c #484848",
"; 	c #4C4C4C",
"> 	c #5C5C5C",
", 	c #6C4824",
"' 	c #382C14",
") 	c #8C8C8C",
"! 	c #A8A8A8",
"~ 	c #989898",
"{ 	c #404040",
"] 	c #593F1A",
"^ 	c #AF6A26",
"/ 	c #7A4E1D",
"( 	c #383838",
"_ 	c #4F3B19",
": 	c #CA782A",
"< 	c #C17429",
"[ 	c #7E501E",
"} 	c #E18730",
"| 	c #EB8F36",
"1 	c #83531E",
"2 	c #A36423",
"3 	c #F29338",
"4 	c #ED943F",
"5 	c #925A20",
"6 	c #9F6123",
"7 	c #EE933A",
"8 	c #F0953E",
"9 	c #D07C2A",
"0 	c #4A3918",
"a 	c #513C19",
"b 	c #CB7A29",
"c 	c #EA8B2E",
"d 	c #DB822C",
"e 	c #754C1C",
"f 	c #4E3A18",
"g 	c #C27427",
"h 	c #ED8D30",
"i 	c #F2963C",
"j 	c #B56E26",
"k 	c #4D3A18",
"l 	c #794E1D",
"m 	c #E88B30",
"n 	c #F49A43",
"o 	c #E68B34",
"p 	c #724A1C",
"q 	c #634018",
"r 	c #7C4D1E",
"s 	c #B56E27",
"t 	c #F39942",
"u 	c #F2973F",
"v 	c #B46C26",
"w 	c #83501D",
"x 	c #A66424",
"y 	c #343434",
"z 	c #61421A",
"A 	c #AB6823",
"B 	c #F19436",
"C 	c #F59E46",
"D 	c #C57A2C",
"E 	c #B97026",
"F 	c #A96623",
"G 	c #64441A",
"H 	c #CA7928",
"I 	c #985E21",
"J 	c #C57828",
"K 	c #F4993A",
"L 	c #F6A045",
"M 	c #F09435",
"N 	c #EE9232",
"O 	c #AD6923",
"P 	c #68461B",
"Q 	c #A16322",
"R 	c #F29531",
"S 	c #F7A141",
"T 	c #F7A344",
"U 	c #F6A143",
"V 	c #F69E41",
"W 	c #B5794D",
"X 	c #503B19",
"Y 	c #CD7F2B",
"Z 	c #F29D3B",
"` 	c #F6A442",
" .	c #F7A442",
"..	c #F3A241",
"+.	c #D98F39",
"@.	c #966D51",
"#.	c #453319",
"$.	c #996926",
"%.	c #B87F2E",
"&.	c #DB9439",
"*.	c #E0963A",
"=.	c #BD822F",
"-.	c #9B6F2E",
";.	c #575048",
">.	c #3B2E15",
",.	c #7F5B24",
"'.	c #976C28",
").	c #A17228",
"!.	c #A37428",
"~.	c #9D7027",
"{.	c #856333",
"].	c #4C4947",
"^.	c #414040",
"/.	c #5B4932",
"(.	c #76551E",
"_.	c #876022",
":.	c #8C6424",
"<.	c #805C20",
"[.	c #5F4B30",
"}.	c #41403F",
"|.	c #5C5B5B",
"1.	c #5E554A",
"2.	c #5C4116",
"3.	c #644717",
"4.	c #694B19",
"5.	c #6E4E1A",
"6.	c #5E472A",
"7.	c #42403F",
"8.	c #7B7B7B",
"9.	c #5B554E",
"0.	c #543E1B",
"a.	c #604318",
"b.	c #614518",
"c.	c #65481A",
"d.	c #594226",
"e.	c #303030",
"f.	c #4F4C48",
"g.	c #54422A",
"h.	c #644818",
"i.	c #614419",
"j.	c #65471A",
"k.	c #4E4235",
"l.	c #54504D",
"m.	c #563E1B",
"n.	c #634818",
"o.	c #5E4219",
"p.	c #64471E",
"q.	c #4B423A",
"r.	c #4A4642",
"s.	c #543D1C",
"t.	c #5B4018",
"u.	c #66471B",
"v.	c #5B452D",
"w.	c #494542",
"x.	c #503A1A",
"y.	c #573D18",
"z.	c #5F4319",
"A.	c #614521",
"B.	c #48413B",
"C.	c #484746",
"D.	c #4E4133",
"E.	c #523B17",
"F.	c #5A3F19",
"G.	c #5C411A",
"H.	c #474039",
"I.	c #544A41",
"J.	c #543C18",
"K.	c #5A401A",
"L.	c #54412C",
"M.	c #80502C",
"N.	c #554B41",
"O.	c #664A1A",
"P.	c #584124",
"Q.	c #45403C",
"R.	c #4F4841",
"S.	c #523B18",
"T.	c #573E1B",
"U.	c #5B411C",
"V.	c #484039",
"W.	c #4F4741",
"X.	c #4F3818",
"Y.	c #583F1B",
"Z.	c #463F39",
"`.	c #503919",
" +	c #533F27",
".+	c #423F3D",
"++	c #4E4741",
"@+	c #4A3517",
"#+	c #533B1A",
"$+	c #59411F",
"%+	c #47403A",
"&+	c #483416",
"*+	c #563D1A",
"=+	c #503E2A",
"-+	c #41403E",
";+	c #37312A",
">+	c #48351C",
",+	c #51402F",
"'+	c #31302F",
")+	c #463520",
"!+	c #593F1B",
"~+	c #554534",
"{+	c #535352",
"]+	c #43321F",
"^+	c #583E1B",
"/+	c #564534",
"(+	c #202020",
"_+	c #563D1B",
":+	c #4E3B28",
"<+	c #8A8989",
"[+	c #4B3B2D",
"}+	c #543C1B",
"|+	c #463728",
"1+	c #574C42",
"2+	c #533E26",
"3+	c #37322E",
"4+	c #463829",
"5+	c #594632",
"6+	c #545250",
"7+	c #453218",
"8+	c #523D24",
"9+	c #797776",
"0+	c #433017",
"a+	c #503A1B",
"b+	c #443219",
"c+	c #463517",
"d+	c #443017",
"e+	c #4C361A",
"f+	c #4A351A",
"g+	c #493818",
"h+	c #282828",
"i+	c #1C1C1C",
"      . + @ @ # @ @ @ @ @ @ @ @ @ @ @ @ @ @ + $ . @ @ @ @ + + . % &     * * * * = = = = = = = - & * % & % % ; ; ; ; % > > & * ",
"  * * % . + @ # @ @ @ @ @ @ @ + @ @ @ @ @ @ + $ . @ @ @ + . . % &     *   *     - = = = = = - & * % & % ; ; % % > & & & & & & ",
"* * * & % . + , @ @ @ @ @ @ @ @ + + @ @ @ @ + $ . @ + + . - % & & - @ @ @ @ - & & - = = = - & * % & % ; % > & & & & & & & & & ",
"% *   * & % . , @ @ @ @ @ @ @ @ + + @ @ @ @ . $ . + . . % &   - @ @ . . $ . $ . & & - - - & * % & & & & & & > % % ; ; ; ; ; ; ",
"; % * *   & . , @ @ @ @ @ @ @ @ @ @ @ @ @ + . $ . . % &     - @ . . . . $ . $ . -   & & & * % & > > > > > > > > > > > > > > > ",
"; ; % * * * . + @ @ @ @ @ + @ @ @ @ @ @ + $ $ . % &     & @ @ . . . . . $ . $ $ ' & ) ! * % & % ; ; ; ; ; ; ; ; ; ; ; ; ; ; ; ",
"; ; ; % *   % . + @ @ @ @ @ @ @ @ @ @ + $ $ - % &     - @ . . . . . . . $ $ . ' ' & !   % & % ; ; ; ; ; - ; ; ; ; ; ; ; ; ; ; ",
"; ; ; ; % *   % . + @ @ @ @ @ @ @ + + $ . % & &   & @ @ . . . . . . . . $ $ . ' ' & ~   & % ; ; ; ; ; ; ; ; ; ; ; ; ; ; ; ; ; ",
"; ; ; ; - %   & % . + @ @ @ @ + + $ $ % & &     - @ + . . . . . . $ . . $ ' . ' ' & ~ & % ; ; ; ; - ; ; ; ; ; ; ; ; ; - ; ; ; ",
"; ; ; ; - -     & % . + + + + $ $ % &       & @ @ + . . . . . . . $ . . $ ' $ ' ' & ) & % ; ; ; - ; ; ; ; ; ; ; ; ; ; ; ; ; ; ",
"; ; ; ; - -   *   & % $ $ $ $ - % &     & - @ + + . . . . . . . . . . . . ' $ ' { & ) & > ; - ; ; ; - ; ; ; ; ; ; ; ; ; ; ; ; ",
"; ; ; ; - - * *     & % % % % % &     & @ @ + . . . + ] ^ / . . . ' . . . ' ' ' ; *   & > ; ; ; - ; ; ; ; ; ; - - ; ; ; ; ; ; ",
"; ; ; ; - ( * * & % % % & * ~ ~ ) * & @ + + . + + . _ : < . . . . ' . . . ' ' ' % * ) & % ; ; ; ; ; ; ; ; ; ; - - ; - - - - ; ",
"; ; ; - ( &   & % % % % - & ~ ) ) & @ . + + . + + . [ } | 1 . . . ' . . . ' ' ' & *   & % ; ; ; ; ; ; ; ; ; ; ; ; ; - - - - ; ",
"; ; - ( &   * % % % % % - - * )   @ + . @ . . . . . 2 3 4 5 . . . ' . . . ' ' { &     & % ; ; ; ; ; ; ; ; ; ; ; ; ; - - - - ; ",
"; - ( &     & % % % % % - - - & % @ . @ + . . . . . 6 7 8 9 0 . $ ' . . . ' ' ; *     & % ; ; ; ; ; ; ; ; ; ; ; ; ; - - - - ; ",
"- ( &     * & % % % % % { ; % - & @ . @ . . + . . . a b c d e . $ ' . . $ ' ' %       % ; ; ; ; ; ; ; ; ; ; ; ; ; ; ; ; ; ; - ",
"( & & - - & * % % % % ; { % % & & @ . + . . . . . . f g h i j k ' ' . . $ ' ' & , @ & % ; ; ; ; ; ; ; ; - ; ; ; ; ; ; ; ; - ( ",
"& & - + + - & & % % % { { % % % * @ + + . . . . . . . l m n o p q r . $ ' $ > , @ @ % & { ; ; ; ; ; ; ; ; ; ; ; ; ; ; - { ( { ",
"& - + @ . + -   - % { { { % % % & & + + . . . . . . . f s t u v w x ' ' $ & , @ @ @ . & & { - ; ; ; ; ; ; ; ; ; - { ( y y ( { ",
"- + @ . . . $ & * - { % { % % % -   - + . . . . . k z f A B C D E F ' ; &   . . . . . * * & { { { - - - - - { { ( y ( { ( % & ",
"+ @ . . . . $ -   & - % { % % % - * & $ . . . . . G H I J K L M N O ; &       & & & & ) ) & & { ( y y y y y y y ( { { ( % &   ",
"@ . . . . . $ $ & * - % { % % % ( &   - . . . . . . P Q R S T U V W & % % % % % % %   ) ~ ~ * & % ( { { { { { { { { ( % &   - ",
". . . + . . $ . &   & - { % % ; ( &   & $ . . . . . X Y Z `  ...+.@.% - { ( { { { { %   ~ ~ )   & % ( { { { { { ( ( % &   - + ",
". . . . . . $ . -     & { % ; - ( &     - ' $ . . . #.$.%.&.*.=.-.;.- { { ( ( { { { { %   ) ) *   & % ( ( ( ( ( ( % &   & + @ ",
". . . . . . $ . $ &   * ( - - - ( * *   & ' ' ' ' ' >.,.'.).!.~.{.].{ { { ( { ( { { ( { *   * % %   & % ( ( ( ( % &   & - @ . ",
". + + . . . ' . $ % *   & ( ( ( *         - ' ' ' ' ^./.(._.:.<.[.}.- - { ( { ( { { ( - & * & - - %   & % % % % &   & - + . . ",
". + + . . . ' . $ -   ) * & & *   % , , % & - - ; > |.1.2.3.4.5.6.7.- - { ( { { ( { y % & * % - - - %       ) )   * - + . . . ",
". . . + . . ' . $ -   * ) * * & , , @ @ @ @ & & & * 8.9.0.a.b.c.d.7.{ { { y { { ( ( e.% & & - - - - - &   ) )   * & + . . . . ",
". . . . . $ ' . $ -   * * * * , @ @ @ @ @ @ +     * * f.g.h.i.j.k.- { { { y { { ( ( - & * % % - - - - % & * * & > % + . . + + ",
". . . . . $ $ . $ % * ) * * * & @ @ @ @ @ @ .   *   % l.m.n.o.p.q.{ { { { y { { ( y % *     & & & & & & &   * > % > + . . + + ",
". . . . . ' $ $ $ %     & % &     @ @ @ + . .     % % r.s.t.u.v.}.{ { { { y { { ( e.& % # # # # # # # # # . @ # > & + . . + + ",
". . . . $ ' . $ - &   & % > % &     + + . . &   % % - w.x.y.z.A.B.{ { { { e.{ { y % * , , , @ @ @ @ @ @ @ . @ @ @   + . . . . ",
". . . . $ ' $ - & & & % > % % % &     & % %   & % - { C.D.E.F.G.H.{ { { ( e.{ ( e.% & , @ , @ @ @ @ @ @ @ . @ @ + & + . . + . ",
". . . . ' $ - & &   % > % % % % % &   )   )   % - { { - I.J.K.L.}.{ { { ( e.{ ( e.& % M.@ , @ @ + @ @ @ @ . @ @ + & + . . . . ",
". . . $ ' - & & * & % > % % % % % % &   ) ) ) % { { { - N.O.K.P.Q.{ { { y e.{ e.& * - M.@ , @ @ @ @ @ @ @ . @ @ + & $ . . . . ",
". . . ' - & &     % > % % % % % % % % & ) ~ ~ % { { { - R.S.T.U.V.{ { { y e.( - * * , M.@ , @ @ @ @ @ @ @ . @ @ + & - $ . . . ",
". . $ - & & *   & % > % % % % % % % % % & ~ ~ & { { { - W.X.Y.Y.Z.{ { { e.e.y %   & , M.@ , @ @ @ @ @ @ @ + @ @ + & & - $ . . ",
". $ - & & *   & % > % % > % % % % % - % % & ) * ( { { - W.`.Y. +.+{ { { e.e.e.&   % , M.@ @ @ @ @ @ @ @ + + @ @ + &   & - $ . ",
"$ - & &     * & % % % % % % % % % % % - % % ) ) % ( ( - ++@+#+$+%+{ { { e.e.- * * , @ M.@ , @ @ @ @ @ @ + @ @ @ . &     & - $ ",
"- & & ) )   & % % % % % > % % % % % % { % % & * * e.( ( ++&+*+=+-+{ { { e.e.%   & , @ M., @ @ @ @ @ @ @ + @ @ @ . &       & - ",
"& & ~ ~ ) & % % % % % % > % % % % % % { - % % & & - e.y ;+>+] ,+{ { { { e.e.%   % , @ M.# @ @ @ @ @ @ + @ @ @ @ . & = = ( % & ",
"&   ~ ~ * % % % % > > % % % % > % % % - { % % % & % - e.'+)+!+~+{ { { ( e.- & * , @ @ # M.@ @ @ @ @ @ + @ @ @ @ . & = = = = ( ",
"= - ) ) & % % % > > > % % % % % % % % - { % % % % - % & {+]+^+/+{ { { ( e.% *   , @ @ , M.@ @ @ @ @ + @ @ @ @ @ . & = = = = (+",
"= (+-   % % % % > > > % % % % % % - % - { - % % % - & & {+]+_+:+( { { ( e.&     + @ @ @ # @ @ @ @ @ @ @ @ + @ @ . & = = = = (+",
"= (+- * % % % % > > % % % % % % % % % - { - % % - ( & ) <+[+}+|+y { { y - * * * & + @ @ , , @ @ @ @ @ @ @ @ @ @ . & = = = = (+",
"(+- & & % % % % % % % > % % % % % - % - { - % - ( -   ) <+1+2+3+y ( ( e.%   * *   & + @ @ , @ @ @ @ @ + + @ @ + . & = = = (+= ",
"- & & & - % % > > % % % % % % % % - % - y - - ( - %   - . 4+5+6+e.e.e.e.*   & ( ( & & + + @ , @ @ @ @ + + @ + . - & = = = (+= ",
"& * * * & - % > > % % % % % % % % - % - y { ( - % & - + . 7+8+9+& % % &   & ( = = ( & * & + @ @ @ @ @ @ @ + . - & & (+(+(+(+(+",
"    * *   & - - % % % % % % % % % - % { y ( - % & - + . . 0+a+b+-       & ( = = = = ( & * & + + @ @ @ @ + . - & *     - - - - ",
"  *   ) ) ) & - - % % % % % % % - - % { y - % & - + . . c+d+e+f+g+-     - ( = = = = = ( & * * % + + + . . - & % % % % % % &   ",
"  % , , % ) ) & - ( % % % % % % - - - y - % & - + . . . . $ . $ . $   & ( h+= = = h+h+= ( &   * % + . - - & & % % % % % % - & ",
", , @ @ , , %   & - ( - % % % - - - ( - % & - + . . . . . $ . $ . $   ( = = h+= = h+h+= = ( &   * % - - &   % % % ; % % % - & ",
"@ @ @ @ @ @ , , % & - ( - % - - ( ( - & - - + . . . . $ . $ . $ $ - & ( = = = (+h+= = = = = ( &   * & & ) & ; ; % % % % ; - & ",
"@ + @ @ @ @ @ @ , . & - ( - - ( - % & - + @ + . . . . . . $ $ $ - & ( = = = = = (+(+= h+= = = ( &   * ) ) % ; ; % % % % ; - & ",
"@ @ @ @ @ @ @ + @ . @ @ - ( ( - % & - + @ + . . . . . $ . $ $ $ % ( ( = = = = = h+(+(+h+= = = = ( &   ) & % % % % % % ; - - & ",
"@ @ + + @ @ @ + @ . @ @ + - - % & - + + @ + . . . . . $ . $ $ - & ( = = h+h+= = = h+(+(+h+= = = = ( &   % % % % % % % - - % , ",
"@ @ + + @ @ @ + @ . + . . % % & - + . + @ . . . . . . $ . $ - & - ( = = h+h+h+= = h+(+(+(+h+= = = = ( &   % % % % % - ; - & , ",
"@ @ @ @ @ @ + . + $ . . % & & - + . . + @ . + . . . . $ $ $ % & ( ( = = h+h+= h+= = (+(+(+(+h+= = = = ( & & % % % ; - - % , @ ",
"@ @ @ @ @ @ + . . $ . %       - . . . + @ . . . . . . $ $ - & ( = ( = = = = = = = = h+(+(+h+(+h+= = = = ( & ; ; ; - ; - % , @ ",
"@ @ @ @ @ @ + . $ $ %         % . . . + @ . . . . . . $ - & - ( = ( = = = = = = = = h+(+(+(+h+(+h+= = = = (+& ; - % % - , @ @ ",
"@ @ @ @ @ @ . $ $ %   % { %   & - . . + @ . . . . . . $ % & ( = = ( = = = = h+h+= = = h+(+i+h+h+(+h+= = = (+% & % % ; & , @ @ ",
"@ @ @ @ @ + . $ %   % { { { %   % . . + @ . . . . . $ - & ( = = = ( = = = = h+h+= = = h+(+i+(+= (+(+h+= = (+%   ; ; & , @ @ @ "};
