/* XPM */
static char * torch1_wall_xpm[] = {
"63 63 426 2",
"  	c #39332D",
". 	c #44362B",
"+ 	c #544C43",
"@ 	c #55453D",
"# 	c #4D433C",
"$ 	c #51423A",
"% 	c #5C4D45",
"& 	c #5B5751",
"* 	c #4C3C35",
"= 	c #4E4437",
"- 	c #53443B",
"; 	c #544533",
"> 	c #3B2E28",
", 	c #463832",
"' 	c #221B16",
") 	c #2D221C",
"! 	c #2C1F1B",
"~ 	c #332A25",
"{ 	c #392C25",
"] 	c #322E29",
"^ 	c #1F1C18",
"/ 	c #25211D",
"( 	c #221D19",
"_ 	c #2E2A25",
": 	c #2B2622",
"< 	c #2F2E29",
"[ 	c #34322D",
"} 	c #42413D",
"| 	c #444440",
"1 	c #474742",
"2 	c #44443F",
"3 	c #464440",
"4 	c #423F3A",
"5 	c #3E3D39",
"6 	c #41403B",
"7 	c #373732",
"8 	c #393732",
"9 	c #4B4944",
"0 	c #4C4A45",
"a 	c #54524D",
"b 	c #514F4A",
"c 	c #55524D",
"d 	c #575650",
"e 	c #5C544C",
"f 	c #5E5A54",
"g 	c #5F5C58",
"h 	c #625F59",
"i 	c #635B52",
"j 	c #5E594E",
"k 	c #605750",
"l 	c #64605A",
"m 	c #6C6355",
"n 	c #695F54",
"o 	c #6E6459",
"p 	c #645B4C",
"q 	c #71665B",
"r 	c #726655",
"s 	c #776B61",
"t 	c #786658",
"u 	c #B87A4B",
"v 	c #8E6C54",
"w 	c #746956",
"x 	c #6A604C",
"y 	c #75675B",
"z 	c #CF8245",
"A 	c #C88047",
"B 	c #6B5F4C",
"C 	c #7A6E5C",
"D 	c #746A5B",
"E 	c #96725B",
"F 	c #E48C3D",
"G 	c #EC9039",
"H 	c #987254",
"I 	c #AE764D",
"J 	c #F29338",
"K 	c #EE9541",
"L 	c #A17251",
"M 	c #4B3A2A",
"N 	c #55412B",
"O 	c #523E2B",
"P 	c #A26632",
"Q 	c #EE933A",
"R 	c #F0953E",
"S 	c #D27F36",
"T 	c #72665B",
"U 	c #63544B",
"V 	c #4C3A26",
"W 	c #604F47",
"X 	c #574735",
"Y 	c #614F35",
"Z 	c #67553A",
"` 	c #655233",
" .	c #624C34",
"..	c #CC7B30",
"+.	c #EA8B2E",
"@.	c #DD8534",
"#.	c #8D6D51",
"$.	c #61502E",
"%.	c #604F2F",
"&.	c #5B4A34",
"*.	c #5B5346",
"=.	c #756345",
"-.	c #86785D",
";.	c #938462",
">.	c #95866B",
",.	c #9C8B5B",
"'.	c #A08E5A",
").	c #A39E48",
"!.	c #978E4D",
"~.	c #9C8B54",
"{.	c #94845B",
"].	c #8A7B5B",
"^.	c #85765B",
"/.	c #C87E3B",
"(.	c #ED8D30",
"_.	c #F2963C",
":.	c #BE7D46",
"<.	c #766A5B",
"[.	c #645A46",
"}.	c #5B533E",
"|.	c #7F704A",
"1.	c #7C715D",
"2.	c #8E805B",
"3.	c #948352",
"4.	c #877954",
"5.	c #83765C",
"6.	c #76694D",
"7.	c #695748",
"8.	c #7D7265",
"9.	c #7B6A4B",
"0.	c #A4956C",
"a.	c #AB9B73",
"b.	c #B2A36A",
"c.	c #B8A86C",
"d.	c #BCAC64",
"e.	c #B9A763",
"f.	c #AB9C64",
"g.	c #9B8B63",
"h.	c #9B7850",
"i.	c #E98B32",
"j.	c #F49A43",
"k.	c #E78E3A",
"l.	c #8C6F57",
"m.	c #8D7259",
"n.	c #957255",
"o.	c #6E6145",
"p.	c #9F9468",
"q.	c #BCAC6B",
"r.	c #C0AF68",
"s.	c #B7A75F",
"t.	c #B3A363",
"u.	c #7B6D54",
"v.	c #695E45",
"w.	c #BBAC74",
"x.	c #C3B472",
"y.	c #C6B96E",
"z.	c #CEC174",
"A.	c #D0C475",
"B.	c #CBBD73",
"C.	c #AB9C6B",
"D.	c #857455",
"E.	c #BE7837",
"F.	c #F39942",
"G.	c #F2973F",
"H.	c #C2824E",
"I.	c #A07955",
"J.	c #B47B4D",
"K.	c #8E8064",
"L.	c #BFB06C",
"M.	c #C5B776",
"N.	c #CBBC6E",
"O.	c #C3B36B",
"P.	c #8C7C53",
"Q.	c #6D5B3D",
"R.	c #735E46",
"S.	c #C9BA79",
"T.	c #D1C57A",
"U.	c #D4C87D",
"V.	c #D5CB84",
"W.	c #D6CD8B",
"X.	c #D7CF93",
"Y.	c #CEC17D",
"Z.	c #B3A36A",
"`.	c #A99361",
" +	c #8E7C53",
".+	c #B47437",
"++	c #F19436",
"@+	c #F59E46",
"#+	c #CA823E",
"$+	c #C27D41",
"%+	c #B77B49",
"&+	c #A59B67",
"*+	c #D2C582",
"=+	c #745C3C",
"-+	c #857963",
";+	c #D6CF9C",
">+	c #D7D09C",
",+	c #D6CFA4",
"'+	c #C0AA68",
")+	c #D78E44",
"!+	c #B68649",
"~+	c #CC7F35",
"{+	c #F4993A",
"]+	c #F6A045",
"^+	c #F09435",
"/+	c #EE9232",
"(+	c #BC7F4C",
"_+	c #A4935C",
":+	c #D7D0A4",
"<+	c #D7D093",
"[+	c #7B6443",
"}+	c #D6CFAA",
"|+	c #AD9259",
"1+	c #BB8548",
"2+	c #F29531",
"3+	c #F7A141",
"4+	c #F7A344",
"5+	c #F6A143",
"6+	c #F69E41",
"7+	c #BE824D",
"8+	c #D8D0A4",
"9+	c #B19F61",
"0+	c #7C633D",
"a+	c #837455",
"b+	c #D7D0AC",
"c+	c #B29F60",
"d+	c #D78C3D",
"e+	c #F29D3B",
"f+	c #F6A442",
"g+	c #F7A442",
"h+	c #F3A241",
"i+	c #D98F39",
"j+	c #9F744C",
"k+	c #806A48",
"l+	c #D8CFAE",
"m+	c #D8D0AA",
"n+	c #CFC06F",
"o+	c #7D6A45",
"p+	c #D6D0B0",
"q+	c #B19E60",
"r+	c #A97C3A",
"s+	c #B87F2E",
"t+	c #DB9439",
"u+	c #E0963A",
"v+	c #BD822F",
"w+	c #9C702D",
"x+	c #7A6B4F",
"y+	c #6F603F",
"z+	c #A99E59",
"A+	c #D8CF99",
"B+	c #81683E",
"C+	c #816945",
"D+	c #8A7D63",
"E+	c #625444",
"F+	c #B8A662",
"G+	c #947537",
"H+	c #976C28",
"I+	c #A17228",
"J+	c #A37428",
"K+	c #9D7027",
"L+	c #8D6A39",
"M+	c #86775B",
"N+	c #D8D09B",
"O+	c #786439",
"P+	c #76551E",
"Q+	c #876022",
"R+	c #8C6424",
"S+	c #805C20",
"T+	c #756039",
"U+	c #84765B",
"V+	c #8A7A4D",
"W+	c #B6A65E",
"X+	c #6B5A35",
"Y+	c #5C4116",
"Z+	c #644717",
"`+	c #694B19",
" @	c #6E4E1A",
".@	c #715B38",
"+@	c #7B705B",
"@@	c #73623C",
"#@	c #553E1A",
"$@	c #604318",
"%@	c #614518",
"&@	c #65481A",
"*@	c #6A5333",
"=@	c #8C7E59",
"-@	c #B6A65F",
";@	c #7F6D46",
">@	c #5B4522",
",@	c #644818",
"'@	c #614419",
")@	c #65471B",
"!@	c #796951",
"~@	c #84734B",
"{@	c #89754B",
"]@	c #573F18",
"^@	c #634818",
"/@	c #5E4219",
"(@	c #674B23",
"_@	c #806F53",
":@	c #D8CF95",
"<@	c #88754B",
"[@	c #553D1A",
"}@	c #5B4018",
"|@	c #66471B",
"1@	c #745E45",
"2@	c #847862",
"3@	c #8B7D6A",
"4@	c #8F816B",
"5@	c #513A18",
"6@	c #573D18",
"7@	c #5F4319",
"8@	c #684E2A",
"9@	c #7F725A",
"0@	c #B3A372",
"a@	c #877868",
"b@	c #A39464",
"c@	c #887850",
"d@	c #5B4426",
"e@	c #523B17",
"f@	c #5A3F19",
"g@	c #5D431D",
"h@	c #7C6E57",
"i@	c #BBAB78",
"j@	c #675030",
"k@	c #543C18",
"l@	c #5A401A",
"m@	c #6D5A40",
"n@	c #847761",
"o@	c #84796A",
"p@	c #AFA075",
"q@	c #615236",
"r@	c #664A1A",
"s@	c #644D30",
"t@	c #80725C",
"u@	c #9A8654",
"v@	c #5B482E",
"w@	c #523B18",
"x@	c #573E1B",
"y@	c #5B411C",
"z@	c #796B59",
"A@	c #817665",
"B@	c #74644B",
"C@	c #81766A",
"D@	c #5F5036",
"E@	c #4F3818",
"F@	c #583F1B",
"G@	c #776B59",
"H@	c #7B6549",
"I@	c #695C4E",
"J@	c #503919",
"K@	c #634F37",
"L@	c #7C715F",
"M@	c #7A6E64",
"N@	c #7F7469",
"O@	c #706050",
"P@	c #4A3517",
"Q@	c #533B1A",
"R@	c #5E4627",
"S@	c #7A6D5F",
"T@	c #75664D",
"U@	c #483416",
"V@	c #563D1A",
"W@	c #66543D",
"X@	c #7F7367",
"Y@	c #73675B",
"Z@	c #4F3D26",
"`@	c #593F1A",
" #	c #6C5B49",
".#	c #5A523D",
"+#	c #4D3C23",
"@#	c #593F1B",
"##	c #5C4A2E",
"$#	c #695E4A",
"%#	c #513F26",
"&#	c #583E1B",
"*#	c #614D33",
"=#	c #9F992F",
"-#	c #BCBCB9",
";#	c #B6B5B2",
">#	c #9D9A93",
",#	c #8C8539",
"'#	c #9D9830",
")#	c #A19C34",
"!#	c #B9B9B6",
"~#	c #ACAAA6",
"{#	c #B3B2AE",
"]#	c #938D35",
"^#	c #B1AFAC",
"/#	c #A19F99",
"(#	c #9A952F",
"_#	c #5E5120",
":#	c #563D1B",
"<#	c #7F7325",
"[#	c #A6A49C",
"}#	c #ABA9A5",
"|#	c #B8B6B4",
"1#	c #A19C2D",
"2#	c #9B9531",
"3#	c #989230",
"4#	c #61541F",
"5#	c #543C1B",
"6#	c #8A847E",
"7#	c #9B9638",
"8#	c #9E992C",
"9#	c #655A1E",
"0#	c #5F4C1E",
"a#	c #B1B0AC",
"b#	c #B3B2A2",
"c#	c #665647",
"d#	c #B4B3B0",
"e#	c #716A62",
"f#	c #B6B6B2",
"g#	c #6E665F",
"h#	c #615141",
"i#	c #AEADA9",
"j#	c #9F9B98",
"k#	c #56493D",
"l#	c #4C361A",
"m#	c #615448",
"n#	c #96902A",
"o#	c #5C4D39",
"p#	c #1F1A16",
"q#	c #30221F",
"r#	c #3A3833",
"s#	c #45423D",
"  . . + @ + @ @ # $ + % & % + * * $ * $ * $ = = * $ $ * * # $ $ $ $ - $ - - - + @ @ ; - - - $ + $ * @ * = # $ $ $ = * - + > , ",
"' ) ! ~ > { { { { { { { > { > > { ~ ~ { ~ { { ~ { { { { { ~ { { { { { { { { { {   { { { { { { { { ] { { { ~ { { { { { ] { ' ! ",
"^ / ( _ _ _ _ _ { ~ _ _ _ _ ~ : _ _ _ _ ~ ] _ _ _ _ ] ~ _ ~ _ ] _ ~ ~ _ ] _ _ ~ ~ _ _ ] _ _ _ _ ] _ ~ ~ ~ _ _ _ _ ~ ] _ < ^ ^ ",
"< [ [ } | 1 } 1 2 3 } 1 3 3 1 4 5 } 1 2 1 2 3 2 1 | 3 3 3 3 3 3 2 2 2 4 5 | | 3 2 2 2 2 1 2 2 1 | | 3 1 1 } 1 2 2 4 3 1 1 < < ",
"< < < 4 4 4 } } } 5 | 4 4 4 4 4 5 4 4 } 4 4 4 4 } } 4 4 4 4 4 4 } } } } 5 4 4 5 6 6 6 6 6 2 6 | 5 4 } 6 } 6 6 6 4 4 4 4 4 < < ",
"^ / ( : : : ) : ) _ _ _ _ _ : : : ) ) : : : ~ _ ~ _ ~ ~ ~ ] ~ ~ _ : : ) : : _ _ ~ _ _ _ _ / ) / : : : : : : _ ~ _ : _ _ : ( ( ",
"/ ( : _ ~ _ _ ] [ [       7   { < ] ] ]     8   7   7 8 8 8 , 8 [ ~ ] ~ ~ [ [   [ [ 8 7 ] _ _ _ _ _ ] ] {   [ 8     [ 7 7 ( : ",
"7 7 7 1 9 } 5 0 a a a a a a b 9 5 4 2 1 0 0 b b b b b c b d d b c 0 9 9 9 9 9 a e c c a b 2 1 1 9 9 9 9 0 0 c & c b c b b [ 7 ",
"8 4 5 c c b b c f g h h i g g c b 9 0 c c j e b k h h h g h h h g j c c d & f g g g g f c a b b c c d & d f h h g g h h k 8 4 ",
", 4 4 e e c e j f i l m n n i & e c b e e j k & % k n h n o o n l j e & e j & n n n n i j a e a e e & & & i i n i i n h h 5 4 ",
"4 2 2 & e e e & h l m m m m l p j e p & i k & i q h h o o o o n l f & & j & n n q n n h j j e e & & & i i i n l n h n n n 4 # ",
"4 # # i i & j i m m m m m r m l & p i p n o n n s n o t u v n o m i & j j i n r q m m l i j j j j n i n n n n o n o n n n 4 # ",
"2 3 - i i i i i l o o r o w o m x m n m m m o o q q y z A q q o m n p j i n m o q m o o x n n p B h l x n o o q o o o n n # 9 ",
"# + + n n m n m w w C D D w w w m r m x B m w w q s E F G H q q m n i n B l o q C w w w m x x x x m m m o q q q q q q q n 9 + ",
"0 + + n o o o o o o o o o o o o m o o m o o o o o o I J K L q q o o o o o m m o m o o q q m m m o o r o o o n q o o o q o 3 + ",
"+ + % q q o ; M M M ; N N N N N N O O O O O O O M ; P Q R S T D w o U = . . M V O O O O N O O V V V V V V V M M M * W o D + + ",
"+ + + D D o = = X Y Y Y Z Z ` ` ` ` ` ` ` ` ` ` Z Y  ...+.@.#.D C D j = N = ; ; Y ` Z ` ` ` ` $.$.$.%.&.&.&.X X ; N Z m C - *.",
"+ *.*.D C q ; =.-.;.>.,.,.,.'.'.'.).!.~.~.~.{.{.{.].^./.(._.:.<.C w [.= }.|.1.2.3.{.,.~.'.'.!.!.!.3.3.3.{.2.4.5.6.Z 7.w 8.+ e ",
"+ *.*.C 1.D *.9.>.0.a.b.b.c.d.d.d.d.d.d.e.e.b.f.0.0.g.h.i.j.k.l.m.n.[.}.o.2.g.p.f.b.e.q.r.d.d.d.s.e.e.t.f.f.p.;.1.Z o.u.8.+ *.",
"*.e [.1.1.w v.u.p.b.w.x.y.z.A.A.A.A.A.A.z.B.y.q.c.C.g.D.E.F.G.H.I.J.x }.o.K.p.b.L.M.A.A.A.A.z.z.z.z.N.y.O.b.C.p.P.Q.R.C K.+ j ",
"*.[.[.1.8.D v.4.0.q.S.T.U.V.W.W.W.X.X.W.W.V.U.Y.x.Z.`. +.+++@+#+$+%+x }.6.,.&+L.Y.*+W.W.W.X.W.W.W.V.V.U.Y.L.b.p.].=+=.5.-+*.j ",
"*.p p 1.1.1.Q.4.C.x.Y.V.X.;+>+,+,+,+,+,+>+>+X.V.B.'+)+!+~+{+]+^+/+(+o.` 9._+t.y.V.X.>+:+,+,+,+;+>+>+<+W.*+z.d.&+{.=+[+1.-.*.*.",
"*.*.*.1.1.C o.4.f.x.*+W.>+}+}+,+}+}+}+}+}+,+;+W.B.O.|+1+2+3+4+5+6+7+6.Q.|._+c.z.W.;+,+}+}+}+8+8+:+:+,+;+W.A.L.9+~.0+[+a+K.*.x ",
"*.x x 8.].1.o.3.b.y.U.X.,+}+}+b+b+b+}+}+}+}+,+X.U.O.c+d+e+f+g+h+i+j+o.Q.k+_+L.Y.W.,+}+}+l+m+m+8+b+,+:+:+X.U.n+b.,.[+o+1.K.*.[.",
"*.o.[.1.-+C o.3.9+y.V.<+:+b+b+b+b+p+p+b+b+b+:+>+U.N.q+r+s+t+u+v+w+x+6.y+|.z+y.A.X.:+b+b+b+}+m+8+m+8+m+8+A+V.N.r.'.B+C+-.D+E+[.",
"*.x x 5.K.C =.3.t.n+V.>+:+:+b+b+p+p+p+p+b+b+:+<+V.n+F+G+H+I+J+K+L+M+6.y+3.z+n+U.A+8+:+b+m+m+m+m+m+m+m+8+N+W.B.r.'.B+C+].D+U v.",
"*.x x -.2.1.=.3.e.A.V.>+:+b+b+p+p+p+p+p+p+b+:+>+U.N.F+O+P+Q+R+S+T+U+6.y+V+9+N.U.N+8+m+b+b+b+b+m+8+m+m+8+8+W.A.O._+B+C+].].j B ",
"*.x x -.K.1.o+3.e.n+W.>+:+b+b+b+p+p+p+p+p+b+:+<+V.N.W+X+Y+Z+`+ @.@+@6.y+V+9+n+V.N+8+b+b+b+l+b+m+m+8+8+8+8+W.T.O.'.B+C+].K.j v.",
"x x x -+K.8.=.3.e.z.W.>+b+b+b+b+b+p+p+p+p+b+b+>+V.n+F+@@#@$@%@&@*@=@6.y+3.t.n+V.>+:+b+b+b+b+b+m+m+m+m+8+;+W.A.r.'.B+C+a+K.p x ",
"j x x D+;.C =.P.t.z.V.>+b+b+b+p+p+p+p+p+b+b+:+<+U.N.-@;@>@,@'@)@!@1.9.y+~@t.z.V.>+:+b+b+b+b+b+m+m+8+m+8+A+W.B.r.'.C+k+5.K.*.x ",
"[.x x D+D+8.=.3.t.y.V.>+:+p+b+b+b+p+}+p+b+b+>+W.U.N.9+{@]@^@/@(@_@-.6.o.].b.y.V.>+8+b+b+b+m+m+m+m+l+l+8+:@V.B.r.,.0+k+-.D+p x ",
"p x x D+K.C =.P.b.x.V.>+:+b+b+b+b+}+}+}+:+:+>+W.A.O.9+<@[@}@|@1@2@1.6.y+~@b.O.*+:@8+b+b+b+m+m+m+m+m+8+8+:@V.M.b.'.[+o+].D+p x ",
"7.x B 3@4@1.o.P.&+w.U.<+<+>+>+>+>+>+>+>+<+<+V.V.B.q.C.<@5@6@7@8@9@-.6.v.~@C.M.*+<+N+:+>+:+8+N+8+N+N+N+:@:@*+B.0@,.[+C+5.a@U n ",
"p x i 3@D+1.x 4.&+w.S.*+V.V.W.W.W.W.W.V.U.T.A.z.L.0@b@c@d@e@f@g@h@1.6.o.a+C.w.S.*+W.<+X.<+W.<+<+X.<+W.V.V.S.M.0@g.R.C+5.3@U B ",
"j n B 3@3@8.7.a+0.0@i@w.z.z.z.z.A.A.n+n+n+y.L.d.b.C.b@4.j@k@l@m@n@-+w [.C 0.0@w.M.S.T.T.A.T.U.U.U.T.A.B.S.M.w.a.;.R.C+5.3@i B ",
"U B m o@3@1.[.a+p.a.p@b.b.b.d.q.L.d.d.s.t.9+9+f.0.0.g.a+q@r@l@s@t@8.w o.u.0.a.0@0@q.w.L.O.O.O.O.O.O.r.w.0@0@0@a.-.R.R.5.3@U B ",
"j p n -+K.C p 6.4@;.;.{.!.'.'.!.!.'.!.~.u@u@2.2.].].a+u.v@w@x@y@z@A@r [.B@-.;.;.,.b@'.,._+_+_+_+_+_+b@'.g.g.;.D+u.R.R.1.a@U B ",
"e B B C@o@8.x B B@6.9.6.|.|.|.|.|.0+o+|.o+o+o+o.=.=.R.v.D@E@F@F@G@A@w [.B B@H@o+9.~@~@~@~@~@V+~@V+~@~@k+k+H@6.=.v.B R.C A@U B ",
"e i i C@o@-+8.8.-+8.8.-+8.8.8.8.8.-+8.-+8.-+A@8.8.A@A@A@I@J@F@K@L@A@8.A@A@A@C@C@8.8.8.-+8.A@8.-+C@-+A@A@C@A@A@A@A@A@M@8.8.j i ",
"*.p p N@8.o@o@N@-+-+o@-+-+-+2.-.-.1.5.-.-+1.5.5.A@-.s 8.O@P@Q@R@S@A@C@A@A@C@-+-+-+5.K.K.K.K.K.4@D+D+D+a@A@A@C M@M@A@8.A@8.*.j ",
"e U k C@8.A@C@C@o@o@K.o@-+-+8.-+-.8.1.-+-+-+-+8.8.-+N@8.T@U@V@W@X@C@C@C@C@-+-+-+a@-+4@3@4@4@4@4@4@3@3@3@A@8.8.M@M@A@8.N@C@e k ",
"*.j & N@N@C@C@C@8.a@o@8.1.A@8.1.1.8.8.1.8.8.1.8.8.8.N@N@Y@Z@`@ #C@C@C@a@C@A@8.A@8.A@A@3@o@o@4@4@3@3@3@a@A@8.8.8.8.M@8.C@o@*.j ",
"e j U M@}.}.}.}.}.}.}.}.}.}.}.}.}.}.}.}.}.}.}.}.}.}.}.}..#+#@###}.}.*.}.}.}.}.}.}.}.*.}.}.}.}.}.*.*.}.}.}.}.}.}.% }.}.}.C@e j ",
"% & e M@}.v.v.v.v.v.x j C [.o.[.o.o.x [.v.o.[.v.o.*.o.x $#%#&#*#v.v.v.v.v.v.v.v.o.o.[.o.o.o.o.o.o.v.v.v.v.v.v.v.v.v.v.}.C@% e ",
"*.j j M@}.=.=#z+-#;#>#>#!.,#'#)#!#~#>#{#'#]#]#'#^#/#{#-#(#_#:#<#;#[#}#|#1#]#,#&+}#>#;#-#'#,#'#1#-#~#{#-#1#]#]#'#-#-#v.}.N@*.j ",
"c c e M@}.v.2#^#-#!#;#&+!.'#)#-#!#~#;#)#'#2#'#;#^#;#-#)#3#4#5#6#{#{#!#1#1#2#).|#^#;#!#)#7#'#1#-#{#{#-#1#'#]#'#-#-#!#v.}.N@c j ",
"*.j e M@}.v.[#-#!#!#!#).)#=#).-#-#!#!#1#1#1#1#-#-#-#-#1#8#9#0#a#-#-#-#1#1#)#)#|#;#!#-#)#2#1#)#-#!#-#-#1#'#1#)#-#-#-#v.}.N@% e ",
"e e e s }.x -#|#!#b#).1#1#1#-#-#-#-#1#1#1#1#-#-#-#-#1#1#8#9#c#d#-#-#1#1#1#1#-#-#-#-#'#1#'#=#-#-#-#-#1#1#1#)#-#-#-#-#v.*.C@e e ",
"% e k M@}.o.{#{#;#).1#1#).-#-#-#!#1#1#1#1#-#-#-#-#1#1#1#8#e#c#d#-#1#1#1#1#-#-#-#-#1#1#1#)#-#-#-#-#1#1#1#=#-#-#-#-#1#o.}.N@e c ",
"d k k M@}.o.{#{#&+)#)#)#;#-#!#!#1#1#1#1#!#!#!#-#1#1#1#1#f#g#h#i#1#1#1#1#-#!#|#-#1#1#1#'#l+-#-#-#)#1#1#1#!#-#-#-#1#1#o.}.N@e j ",
"e k k N@*.x >#[#1#1#1#7#-#!#;#!#1#1#1#=#!#{#!#-#1#1#1#1#j#k#l#m#n#1#1#1#!#;#|#!#1#1#'#'#-#;#-#-#1#=#1#)#!#;#;#!#1#1#o.}.C@e p ",
"e U & N@*.*.a.2#1#1#).!#!#~#;#1#1#1#1#;#~#;#-#1#1#1#1#!#^#;#!#1#1#1#1#!#;#^#;#=#'#'#7#-#;#{#|#1#2#2#)#-#{#b#|#=#1#1#x }.C@e & ",
"e U U N@*.v.]#=#1#2#{#;#}#[#=#1#=#=#|#}#[#|#1#1#1#1#;#}#[#;#=#=#1#=#;#-#>#^#=#]#,#'#-#;#>#;#1#2#,#'#!#{#[#}#=#=#=#'#o.}.8.e U ",
"j i i N@}.v.v.v.[.[.o.x x [.[.o.v.v.o.v.v.v.v.v.o.o.[.o.o.x o.x o.o.x o.o.o.o.o.v.B o.B [.v.v.v.o.o.[.x o.o.o.x o.v.v.}.C@j i ",
"*.i & C@}.e }.*.}.}.*.}.}.}.}.}.% }.}.}.}.}.o#% }.}.}.}.}.}.}.}.}.}.}.}.*.}.}.*.}.}.*.}.% o#o#W }.*.}.}.}.}.}.}.}.}.}.}.N@e & ",
"e i i N@N@a@o@o@o@o@o@o@a@N@N@8.N@C@8.8.C@M@C@A@N@N@N@N@M@8.N@N@N@N@N@N@N@8.N@N@C@N@8.8.C@C@M@M@M@8.M@M@s s s M@M@8.N@C@C@e i ",
"% U W C@C@C@C@C@8.8.8.A@8.8.A@M@M@s s s M@M@M@M@M@M@M@M@s M@s C@N@8.8.8.s M@M@M@s C@M@C@M@M@A@s s s s q q o o s s s s C@C@% U ",
"* @ * W U U W U p j U U U U W *.U W W W W U U E+U W W W W U U 7.7.p U U U E+% U U U U U U W W W W W W W W W W W % *.W 7.U , - ",
"~ . . * * * * * * * * * * * * * * * * * * * * * * * * * * * * * # * * * * * * * * * * * * * * , , , , , , * , * * * * * * {   ",
"p#' ' q#q#q#q#: ) ) ) ) q#! ! ! ! ! ! : ! q#q#q#! ! ! ! q#q#: ) ) ! ) ) ) ! ! ) q#q#! ! : ! q#! ! ! ! ! ! q#q#q#: ) ) : q#' ' ",
"q#_ : 7 8 8 7 7 7 7 7 7   8 8 8 7 7 7 7 7 8 7 8 r#8 8 8 8 r#8 8 8 r#r#r#7 8 8 8 7 7 7 [ 7 7 7 7     7 7 7 7 7 7 7 7 7 7 8 : : ",
"] ] [ 4 1 } 3 3 3 3 3 # 2 s#3 1 | 3 1 3 3 3 3 3 # 3 3 3 1 3 3 3 s#s#4 s#3 2 2 3 3 3 3 # 3 3 3 3 3 3 3 3 3 3 3 3 3 3 3 1 # [ [ ",
": : : 7 5 7 8 8 7 7 7 7 7 7 7 7 8 8 8 8 8 8 8 8 8 8 8 8 ] 8 7   r#r#8 r#8 7 8 8 7 7   7 8 7 7 7 8 8 7 7 7 7 7 7 7 7 7 7 8 : : "};
