/* XPM */
static char *e7d9ba550d9b46e5d0edff882a93ce40U2vPJHo1pbCulmfu[] = {
/* columns rows colors chars-per-pixel */
"50 50 167 2 ",
"   c None",
".  c #932F1F",
"X  c #942F1F",
"o  c #91301D",
"O  c #94301F",
"+  c #932725",
"@  c #943020",
"#  c #933726",
"$  c #B32A3E",
"%  c #A9422E",
"&  c #A9422F",
"*  c #A9432F",
"=  c #AA422E",
"-  c #F71C56",
";  c #F61D56",
":  c #F71D57",
">  c #F61E56",
",  c #F71E57",
"<  c #F61F57",
"1  c #F81D56",
"2  c #F91D56",
"3  c #FA1C56",
"4  c #FB1C56",
"5  c #FA1D56",
"6  c #FB1D56",
"7  c #FA1D57",
"8  c #FB1D57",
"9  c #F91E56",
"0  c #F81E57",
"q  c #F91E57",
"w  c #FB1E56",
"e  c #FA1E57",
"r  c #FC1C56",
"t  c #FD1C56",
"y  c #FC1D56",
"u  c #FD1D56",
"i  c #FC1C57",
"p  c #FD1C57",
"a  c #FC1D57",
"s  c #FD1D57",
"d  c #FE1C56",
"f  c #FE1D56",
"g  c #FE1C57",
"h  c #FE1D57",
"j  c #FD1E57",
"k  c #F41D58",
"l  c #F41F59",
"z  c #F71E58",
"x  c #F61F58",
"c  c #F71F58",
"v  c #F61E59",
"b  c #F61F5A",
"n  c #F91D58",
"m  c #F81D59",
"M  c #F81E58",
"N  c #F91F58",
"B  c #F81E59",
"V  c #FB1E58",
"C  c #FB1E5A",
"Z  c #FD1D58",
"A  c #FD1D59",
"S  c #FE1D58",
"D  c #FC1E58",
"F  c #FD1E58",
"G  c #FC1E59",
"H  c #FD1E59",
"J  c #FD1F59",
"K  c #FE1E59",
"L  c #FD1E5A",
"P  c #FC1F5A",
"I  c #FD1F5A",
"U  c #FE1F5B",
"Y  c #E32956",
"T  c #E72E5F",
"R  c #F32154",
"E  c #F22256",
"W  c #F42155",
"Q  c #F42056",
"!  c #F52056",
"~  c #F42156",
"^  c #F52157",
"/  c #F62057",
"(  c #F72058",
")  c #F72059",
"_  c #F6215B",
"`  c #FD2058",
"'  c #FC2059",
"]  c #FC205A",
"[  c #FD205A",
"{  c #FC215B",
"}  c #FD215B",
"|  c #FE205A",
" . c #FE215B",
".. c #FD225B",
"X. c #FB225C",
"o. c #FD215C",
"O. c #FD225C",
"+. c #FD235C",
"@. c #FD235D",
"#. c #FD235E",
"$. c #FB245E",
"%. c #FB245F",
"&. c #FD245E",
"*. c #FD255F",
"=. c #F72660",
"-. c #FD2560",
";. c #FD2561",
":. c #FD2660",
">. c #FD2661",
",. c #FD2761",
"<. c #FE2660",
"1. c #FE2761",
"2. c #F62964",
"3. c #F72A64",
"4. c #F72B64",
"5. c #FB2963",
"6. c #FD2862",
"7. c #FD2962",
"8. c #FD2963",
"9. c #FB2B65",
"0. c #FD2964",
"q. c #FE2964",
"w. c #FD2B64",
"e. c #FD2B65",
"r. c #FE2A65",
"t. c #FE2B66",
"y. c #FB2D66",
"u. c #FA2C67",
"i. c #FC2C65",
"p. c #FD2D67",
"a. c #FE2C66",
"s. c #FE2C67",
"d. c #FE2D67",
"f. c #FF2D67",
"g. c #FC2E67",
"h. c #FD2E67",
"j. c #FE2E67",
"k. c #F72E68",
"l. c #F62E69",
"z. c #F62F69",
"x. c #F72F69",
"c. c #F72F6A",
"v. c #FB2D68",
"b. c #FA2D69",
"n. c #F92F68",
"m. c #F92E69",
"M. c #F82F69",
"N. c #FA2E68",
"B. c #FB2E68",
"V. c #FB2E69",
"C. c #FA2F69",
"Z. c #FC2D68",
"A. c #FD2D68",
"S. c #FE2D68",
"D. c #FF2D69",
"F. c #FC2E68",
"G. c #FD2E68",
"H. c #FE2E68",
"J. c #FF2E68",
"K. c #FE2E69",
"L. c #FF2E69",
"P. c #F5316A",
"I. c #F5316B",
"U. c #F5336A",
"Y. c #F7336C",
"T. c #F83068",
"R. c #FA316C",
/* pixels */
"                                                                                                    ",
"                                                                                                    ",
"      4.T.b.b.b.b.b.J.b.b.P.9.)                                                                     ",
"    ) :.J.J.J.J.J.J.J.J.J.6.' w Z M )                                   U.R.Y.                      ",
"    ) O.J.J.J.J.J.J.J.J.e.Z Z u u Z u u M                       k M Z %.9.J.j.b.T.P.                ",
"    ) O.J.J.J.J.J.J.J.e.Z Z u Z Z u Z u u u M M             w w Z u Z Z O.e.J.J.J.J.b.              ",
"    < Z e.J.J.J.J.J.j.O.Z Z Z u u Z u Z Z u Z u u M M Z Z u Z u u Z u Z u :.J.J.J.J.J.g.P.          ",
"    < Z e.J.J.J.J.J.6.Z Z u u Z Z u Z u u Z u Z Z u u Z u Z u Z Z u Z u Z O.j.J.J.J.j.9.9.2.        ",
"    ) u :.J.J.J.J.J.O.Z Z u Z u Z u Z u Z u Z u u Z u Z u Z u Z Z u Z u Z Z j.J.J.J.:.Z Z M M       ",
"    / u :.J.J.J.J.s.Z Z u Z u Z u Z u Z u Z u Z Z u Z u Z u Z u u Z u Z u O.j.j.J.j.[ u Z Z u M     ",
"    / u O.J.J.J.j.e.u Z Z u Z u Z u Z u Z u Z u u Z u Z u Z u Z Z u Z u Z &.R.j.J.e.Z Z u Z Z u <   ",
"    < t U J.J.J.J.e.Z u u Z u Z u Z u Z u Z u Z Z u Z u Z u Z u u Z u Z Z 6.j.j.J.J.O.u Z u u Z w w ",
"    / u Z J.J.J.J.e.Z Z Z u Z u Z u Z u Z u Z u Z u Z u u Z u Z u Z u u X.g.c.c.c.c.%.< w w M u Z w ",
"    / u Z e.J.J.J.j.O.Z u Z u Z u Z u Z u Z u Z u Z u Z Z u Z u Z i u k                       k k n ",
"    / u Z e.J.J.J.J.:.i Z u Z u Z u Z u Z u Z u Z u Z u Z u Z u u w                                 ",
"    R u O.J.J.J.J.J.e.U u Z u Z u Z u Z u Z u Z u Z u Z u Z u u <                                   ",
"    < i &.J.J.J.J.J.J.:.u Z Z u Z u Z u u Z u Z u Z Z u Z i M                                       ",
"    R n e.J.J.J.J.J.J.J.O.u u Z u Z u Z Z u Z u Z u u Z u M                                         ",
"    E ;.j.J.J.J.J.J.J.J.j.O.Z Z Z u Z u u Z u Z u Z u w k                                           ",
"    Y g.J.J.j.j.J.J.J.J.J.e.O.Z u Z u Z Z u Z t Z u w                                               ",
"    + $ T b.j.j.J.J.J.J.j.J.J.:.Z Z Z u Z u t M Z k                                                 ",
"    o #       c.c.b.g.b.b.J.J.b.j.&.Z w u w w <                                                     ",
"    @ &                                                                                             ",
"    O &                                                                                             ",
"    O *                                                                                             ",
"    O *                                                                                             ",
"    O *                                                                                             ",
"    O &                                                                                             ",
"    O *                                                                                             ",
"    O &                                                                                             ",
"    O *                                                                                             ",
"    O *                                                                                             ",
"    O *                                                                                             ",
"    O *                                                                                             ",
"    O &                                                                                             ",
"    O &                                                                                             ",
"    O &                                                                                             ",
"    O &                                                                                             ",
"    O &                                                                                             ",
"    O &                                                                                             ",
"    O &                                                                                             ",
"    O &                                                                                             ",
"    O &                                                                                             ",
"    O &                                                                                             ",
"    O &                                                                                             ",
"    O &                                                                                             ",
"    . &                                                                                             ",
"                                                                                                    ",
"                                                                                                    ",
"                                                                                                    "
};
