/* XPM */
static char *result[] = {
/* columns rows colors chars-per-pixel */
"32 32 138 2 ",
"   c #1D2F39",
".  c #1F313A",
"X  c #20333C",
"o  c #213640",
"O  c #233640",
"+  c #233740",
"@  c #263A43",
"#  c #223A47",
"$  c #253B45",
"%  c #263B46",
"&  c #263C47",
"*  c #283C45",
"=  c #273D49",
"-  c #253D4A",
";  c #273F4A",
":  c #263E4B",
">  c #283D48",
",  c #28404C",
"<  c #29404C",
"1  c #28404D",
"2  c #29414D",
"3  c #28414E",
"4  c #28424F",
"5  c #29424F",
"6  c #2B434F",
"7  c #2C434E",
"8  c #2B444F",
"9  c #2E454F",
"0  c #31464E",
"q  c #284351",
"w  c #2A4350",
"e  c #2B4551",
"r  c #2A4452",
"t  c #2B4552",
"y  c #2F4750",
"u  c #2F4651",
"i  c #2C4652",
"p  c #2C4653",
"a  c #2C4753",
"s  c #2E4753",
"d  c #2B4654",
"f  c #2C4754",
"g  c #2D4754",
"h  c #2D4854",
"j  c #2D4957",
"k  c #2F4A57",
"l  c #2C4A59",
"z  c #2F4B58",
"x  c #2E4A59",
"c  c #2E4B59",
"v  c #2F4B59",
"b  c #2D4B5B",
"n  c #2F4B5A",
"m  c #344951",
"M  c #314954",
"N  c #304A57",
"B  c #304B59",
"V  c #324E5B",
"C  c #364F59",
"Z  c #354F5A",
"A  c #324F5E",
"S  c #3A545E",
"D  c #355260",
"F  c #345362",
"G  c #355463",
"H  c #365665",
"J  c #365666",
"K  c #395868",
"L  c #3A5A6A",
"P  c #3B5D6D",
"I  c #415B63",
"U  c #485E65",
"Y  c #425F6E",
"T  c #46606A",
"R  c #46626C",
"E  c #49646B",
"W  c #4B646C",
"Q  c #426171",
"!  c #466473",
"~  c #436374",
"^  c #456475",
"/  c #4D6A75",
"(  c #4C6B7C",
")  c #556971",
"_  c #546A73",
"`  c #516C75",
"'  c #526E7C",
"]  c #5C7175",
"[  c #5C717D",
"{  c #5D737F",
"}  c #587482",
"|  c #5B7683",
" . c #5C7783",
".. c #5F7784",
"X. c #5E7D8E",
"o. c #657983",
"O. c #657A85",
"+. c #667B86",
"@. c #627F88",
"#. c #668085",
"$. c #658291",
"%. c #738D9A",
"&. c #74919E",
"*. c #7A939F",
"=. c #8EA8B2",
"-. c #8CAAB6",
";. c #98B1B9",
":. c #9AB0B8",
">. c #98B1BA",
",. c #9DB1BA",
"<. c #9BB5BF",
"1. c #9CB5BE",
"2. c #9BB6C0",
"3. c #ABC1C8",
"4. c #B8CAD0",
"5. c #BFD6DC",
"6. c #C5D6DA",
"7. c #C3DADF",
"8. c #C9DBDF",
"9. c #C6DDE2",
"0. c #CADCE0",
"q. c #D6E7EA",
"w. c #D5E8EB",
"e. c #DAEAED",
"r. c #D9ECEE",
"t. c #DAECEE",
"y. c #DEEFF0",
"u. c #E3F1F2",
"i. c #E5F5F6",
"p. c #E8F7F7",
"a. c #E9F7F7",
"s. c #EAF8F8",
"d. c #EBF8F8",
"f. c #EBF9F9",
"g. c #ECF8F9",
"h. c #ECF9F9",
"j. c #EDF9F9",
"k. c None",
/* pixels */
"k.` i : - 1 3 3 3 3 3 3 3 3 3 3 3 3 3 3 3 3 3 3 3 w 3 5 R ) k.k.",
"` z P ^ | { [ [ [ [ [ [ [ [ [ [ [ [ [ [ [ [ [ [ [ .. .Q F 7 @.N ",
"Z H ,.8.u.g.g.g.g.g.g.g.g.g.g.g.g.g.g.g.g.g.g.g.g.d.i.4.( e S v ",
"= ~ 6.h.f.f.f.f.f.f.f.f.f.f.f.f.f.f.f.f.f.f.f.f.f.f.s.t.$.t & c ",
"6 } e.f.p.p.p.p.p.p.p.p.p.p.p.p.p.p.p.p.p.p.p.p.p.p.p.9.&.a o j ",
"< +.j.f.p.p.p.p.p.p.p.p.p.p.p.p.p.p.p.p.p.p.p.p.p.p.p.5.>.g & x ",
", o.j.f.p.p.p.p.p.p.p.p.p.p.p.p.p.p.p.p.p.p.p.p.p.p.p.5.;.p > n ",
", o.j.f.p.p.p.p.p.p.p.p.p.p.p.p.p.p.p.p.p.p.p.p.p.p.p.5.;.p > n ",
", o.j.f.p.p.p.p.p.p.p.p.p.p.p.p.p.p.p.p.p.p.p.p.p.p.p.5.;.p > n ",
", o.j.f.p.p.p.p.p.p.p.p.p.p.p.p.p.p.p.p.p.p.p.p.p.p.p.5.;.p > n ",
", o.j.f.p.p.p.p.p.p.p.p.p.p.p.p.p.p.p.p.p.p.p.p.p.p.p.5.;.p > n ",
", o.j.f.p.p.p.p.p.p.p.p.p.p.p.p.p.p.p.p.p.p.p.p.p.p.p.5.;.p > n ",
", o.j.f.p.p.p.p.p.p.p.p.p.p.p.p.p.p.p.p.p.p.p.p.p.p.p.5.;.p > n ",
", o.j.f.p.p.p.p.p.p.p.p.p.p.p.p.p.p.p.p.p.p.p.p.p.p.p.5.;.p > n ",
", o.j.f.p.p.p.p.p.p.p.p.p.p.p.p.p.p.p.p.p.p.p.p.p.p.p.5.;.p > n ",
", o.j.f.p.p.p.p.p.p.p.p.p.p.p.p.p.p.p.p.p.p.p.p.p.p.p.5.;.p > n ",
", o.j.f.p.p.p.p.p.p.p.p.p.p.p.p.p.p.p.p.p.p.p.p.p.p.p.5.;.p > n ",
", o.j.f.p.p.p.p.p.p.p.p.p.p.p.p.p.p.p.p.p.p.p.p.p.p.p.5.;.p > n ",
", o.j.f.p.p.p.p.p.p.p.p.p.p.p.p.p.p.p.p.p.p.p.p.p.p.p.5.;.p > n ",
", o.j.f.p.p.p.p.p.p.p.p.p.p.p.p.p.p.p.p.p.p.p.p.p.p.p.5.;.p > n ",
", o.j.f.p.p.p.p.p.p.p.p.p.p.p.p.p.p.p.p.p.p.p.p.p.p.p.5.;.p > n ",
", o.j.f.p.p.p.p.p.p.p.p.p.p.p.p.p.p.p.p.p.p.p.p.p.p.p.5.;.p > n ",
", o.j.f.p.p.p.p.p.p.p.p.p.p.p.p.p.p.p.p.p.p.p.p.p.p.p.5.;.p > n ",
", o.j.f.p.p.p.p.p.p.p.p.p.p.p.p.p.p.p.p.p.p.p.p.p.p.p.5.;.p > n ",
", o.j.f.p.p.p.p.p.p.p.p.p.p.p.p.p.p.p.p.p.p.p.p.p.p.p.5.;.p > n ",
"2 O.j.f.p.p.p.p.p.p.p.p.p.p.p.p.p.p.p.p.p.p.p.p.p.p.p.5.=.w % c ",
"s ' q.d.p.p.p.p.p.p.p.p.p.p.p.p.p.p.p.p.p.p.p.p.p.p.p.5.X.h $ v ",
"; ! 0.a.y.r.r.r.r.r.r.r.r.r.r.r.r.r.r.r.r.r.r.r.r.r.w.7.%.i y d ",
"9 A *.3.1.2.2.2.2.2.2.2.2.2.2.2.2.2.2.2.2.2.2.2.2.<.-.:.Y C I : ",
"W 8 q l J K L L L L L L L L L L L L L L L L L L L G b D M E #.u ",
"k.m X   . @ * * * * * * * * * * * * * * * * * * * O + 0 U ] k.k.",
"k./ f k V t 4 4 4 4 4 4 4 4 4 4 4 4 4 4 4 4 4 4 4 r B # T _ k.k."
};
