/* XPM */
static char *e27c18275df7452ab5330c18d8e16df0Ym5StprnwH6d78PX[] = {
/* columns rows colors chars-per-pixel */
"64 64 216 2 ",
"   c #1A1512",
".  c #1F1A16",
"X  c #1F1C18",
"o  c #221B16",
"O  c #221D19",
"+  c #2C1F1B",
"@  c #25211D",
"#  c #2D221C",
"$  c #30221F",
"%  c #2B2622",
"&  c #2E2A25",
"*  c #2F2E29",
"=  c #332A25",
"-  c #392C25",
";  c #322E29",
":  c #3B2E28",
">  c #34322D",
",  c #39332D",
"<  c #373732",
"1  c #393732",
"2  c #3A3833",
"3  c #3E3D39",
"4  c #4C3A26",
"5  c #44362B",
"6  c #4B3A2A",
"7  c #523E2B",
"8  c #463832",
"9  c #4C3C35",
"0  c #423F3A",
"q  c #55412B",
"w  c #4E4437",
"e  c #41403B",
"r  c #42403B",
"t  c #42413D",
"y  c #45423D",
"u  c #44443F",
"i  c #4D433C",
"p  c #544533",
"a  c #574735",
"s  c #5B4A34",
"d  c #51423A",
"f  c #53443B",
"g  c #55453D",
"h  c #5C4D39",
"j  c #5B533E",
"k  c #604F2F",
"l  c #61502E",
"z  c #614F35",
"x  c #655233",
"c  c #67553A",
"v  c #6D5B3D",
"b  c #745C3C",
"n  c #785F3B",
"m  c #6F603F",
"M  c #7C633D",
"N  c #444440",
"B  c #464440",
"V  c #474742",
"C  c #4B4944",
"Z  c #4C4A45",
"A  c #544C43",
"S  c #5C4D45",
"D  c #514F4A",
"F  c #5B5346",
"G  c #54524D",
"H  c #55524D",
"J  c #5C544C",
"K  c #5E594E",
"L  c #575650",
"P  c #5B5751",
"I  c #5E5A54",
"U  c #5F5C58",
"Y  c #604F47",
"T  c #625444",
"R  c #645A46",
"E  c #695E45",
"W  c #63544B",
"Q  c #695748",
"!  c #645B4C",
"~  c #6B5F4C",
"^  c #735E46",
"/  c #605750",
"(  c #635B52",
")  c #695F54",
"_  c #625F59",
"`  c #6E6145",
"'  c #6A604C",
"]  c #756345",
"[  c #7B6443",
"{  c #7D6A45",
"}  c #74644B",
"|  c #7B6549",
" . c #76694D",
".. c #7B6A4B",
"X. c #7F704A",
"o. c #6C6355",
"O. c #64605A",
"+. c #6E6459",
"@. c #726655",
"#. c #746956",
"$. c #7B6D54",
"%. c #71665B",
"&. c #746A5B",
"*. c #7A6E5C",
"=. c #7C715D",
"-. c #776B61",
";. c #7A6E64",
":. c #7D7265",
">. c #7F7469",
",. c #81683E",
"<. c #816945",
"1. c #806A48",
"2. c #84734B",
"3. c #8A7A4D",
"4. c #837455",
"5. c #877954",
"6. c #8C7C53",
"7. c #83765C",
"8. c #86785D",
"9. c #8A7B5B",
"0. c #917E52",
"q. c #817665",
"w. c #857963",
"e. c #8A7D63",
"r. c #81766A",
"t. c #877868",
"y. c #84796A",
"u. c #8B7D6A",
"i. c #9F992F",
"p. c #8C8539",
"a. c #938D35",
"s. c #9B9531",
"d. c #9D9830",
"f. c #9B9638",
"g. c #A19C2D",
"h. c #A19C34",
"j. c #978E4D",
"k. c #8E805B",
"l. c #948352",
"z. c #9A8654",
"x. c #9C8B54",
"c. c #94845B",
"v. c #9C8B5B",
"b. c #A39E48",
"n. c #A08E5A",
"m. c #A4935C",
"M. c #A99E59",
"N. c #B7A75F",
"B. c #8E8064",
"V. c #8F816B",
"C. c #938462",
"Z. c #9B8B63",
"A. c #95866B",
"S. c #9F9468",
"D. c #A39464",
"F. c #A59B67",
"G. c #AB9C64",
"H. c #A4956C",
"J. c #AB9C6B",
"K. c #B19F61",
"L. c #AB9B73",
"P. c #B3A363",
"I. c #B9A763",
"U. c #BCAC64",
"Y. c #B2A36A",
"T. c #BCAC6B",
"R. c #B8A86C",
"E. c #BFB06C",
"W. c #AFA075",
"Q. c #B3A372",
"!. c #BBAC74",
"~. c #BBAB78",
"^. c #C0AF68",
"/. c #C3B36B",
"(. c #C6B96E",
"). c #CBBC6E",
"_. c #C3B472",
"`. c #C5B776",
"'. c #CBBD73",
"]. c #C9BA79",
"[. c #CFC06F",
"{. c #CEC174",
"}. c #CEC17D",
"|. c #D0C475",
" X c #D1C57A",
".X c #D4C87D",
"XX c #9D9A93",
"oX c #A19F99",
"OX c #A6A49C",
"+X c #ABA9A5",
"@X c #ACAAA6",
"#X c #B1AFAC",
"$X c #B3B2A2",
"%X c #B3B2AE",
"&X c #B6B5B2",
"*X c #B8B6B4",
"=X c #B9B9B6",
"-X c #BCBCB9",
";X c #D2C582",
":X c #D5CB84",
">X c #D6CD8B",
",X c #D7CF93",
"<X c #D8CF95",
"1X c #D6CF9C",
"2X c #D8CF99",
"3X c #D7D093",
"4X c #D7D09C",
"5X c #D8D09B",
"6X c #D6CFA4",
"7X c #D6CFAA",
"8X c #D8CFAE",
"9X c #D7D0A4",
"0X c #D8D0A4",
"qX c #D7D0AC",
"wX c #D8D0AA",
"eX c #D6D0B0",
/* pixels */
", 5 5 A g A g g i d A S P S A 9 9 d 9 d 9 d w w 9 d d 9 9 i d d d d f d f f f A g g p f f f d A d 9 g 9 w i d d d w 9 f A : 8 5 ",
"o # + = : - - - - - - - : - : : - = = - = - - = - - - - - = - - - - - - - - - - , - - - - - - - - ; - - - = - - - - - ; - o + + ",
"X @ O & & & & & - = & & & & = % & & & & = ; & & & & ; = & = & ; & = = & ; & & = = & & ; & & & & ; & = = = & & & & = ; & * X X O ",
"* > > t N V t V u B t V B B V 0 3 t V u V u B u V N B B B B B B u u u 0 3 N N B u u u u V u u V N N B V V t V u u 0 B V V * * < ",
"* * * 0 0 0 t t t 3 N 0 0 0 0 0 3 0 0 t 0 0 0 0 t t 0 0 0 0 0 0 t t t t 3 0 0 3 e e e e e u e N 3 0 t e t e e e 0 0 0 0 0 * * * ",
"X @ O % % % # % # & & & & & % % % # # % % % = & = & = = = ; = = & % % # % % & & = & & & & @ # @ % % % % % % & = & % & & % O O O ",
"@ O % & = & & ; > > , , , < , - * ; ; ; , , 1 , < , < 1 1 1 8 1 > = ; = = > > , > > 1 < ; & & & & & ; ; - , > 1 , , > < < O % O ",
"< < < V C t 3 Z G G G G G G D C 3 0 u V Z Z D D D D D H D L L D H Z C C C C C G J H H G D u V V C C C C Z Z H P H D H D D > < < ",
"1 0 3 H H D D H I U _ _ ( U U H D C Z H H K J D / _ _ _ U _ _ _ U K H H L P I U U U U I H G D D H H L P L I _ _ U U _ _ / 1 0 0 ",
"8 0 0 J J H J K I ( O.o.) ) ( P J H D J J K / P S / ) _ ) +.+.) O.K J P J K P ) ) ) ) ( K G J G J J P P P ( ( ) ( ( ) _ _ 3 0 0 ",
"0 u u P J J J P _ O.o.o.o.o.O.! K J ! P ( / P ( %._ _ +.+.+.+.) O.I P P K P ) ) %.) ) _ K K J J P P P ( ( ( ) O.) _ ) ) ) 0 i i ",
"0 i i ( ( P K ( o.o.o.o.o.@.o.O.P ! ( ! ) +.) ) -.) +.+.+.+.) +.o.( P K K ( ) @.%.o.o.O.( K K K K ) ( ) ) ) ) +.) +.) ) ) 0 i 0 ",
"u B f ( ( ( ( ( O.+.+.@.+.#.+.o.' o.) o.o.o.+.+.%.%.%.%.%.%.%.+.o.) ! K ( ) o.+.%.o.+.+.' ) ) ! ~ _ O.' ) +.+.%.+.+.+.) ) i C f ",
"i A A ) ) o.) o.#.#.*.&.&.#.#.#.o.@.o.' ~ o.#.#.%.-.-.-.%.&.%.%.o.) ( ) ~ O.+.%.*.#.#.#.o.' ' ' ' o.o.o.+.%.%.%.%.%.%.%.) C A Z ",
"Z A A ) +.+.+.+.+.+.+.+.+.+.+.+.o.+.+.o.+.+.+.+.+.+.+.+.&.%.%.%.+.+.+.+.+.o.o.+.o.+.+.%.%.o.o.o.+.+.@.+.+.+.) %.+.+.+.%.+.B A A ",
"A A S %.%.+.p 6 6 6 p q q q q q q 7 7 7 7 7 7 7 6 p p f 9 Y %.&.#.+.W w 5 5 6 4 7 7 7 7 q 7 7 4 4 4 4 4 4 4 6 6 6 9 Y +.&.A A S ",
"A A A &.&.+.w w a z z z c c x x x x x x x x x x c z s p s Q @.&.*.&.K w q w p p z x c x x x x l l l k s s s a a p q c o.*.f F F ",
"A F F &.*.%.p ] 8.C.A.v.v.v.n.n.n.b.j.x.x.x.c.c.c.9.7.} z Q #.&.*.#.R w j X.=.k.l.c.v.x.n.n.j.j.j.l.l.l.c.k.5.7. .c Q #.:.A J F ",
"A F F *.=.&.F ..A.H.L.Y.Y.R.U.U.U.U.U.U.I.I.Y.G.H.H.Z.4.c v #.&.*.&.R j ` k.Z.S.G.Y.I.T.^.U.U.U.N.I.I.P.G.G.S.C.=.c ` $.:.A F F ",
"F J R =.=.#.E $.S.Y.!._.(.{.|.|.|.|.|.|.{.'.(.T.R.J.Z.4.b ^ $.q.=.&.' j ` B.S.Y.E.`.|.|.|.|.{.{.{.{.).(./.Y.J.S.6.v ^ *.B.A K F ",
"F R R =.:.&.E 5.H.T.]. X.X:X>X>X>X,X,X>X>X:X.X}._.Y.D.6.v ^ $.q.=.#.' j  .v.F.E.}.;X>X>X>X,X>X>X>X:X:X.X}.E.Y.S.9.b ] 7.w.F K F ",
"F ! ! =.=.=.v 5.J._.}.:X,X1X4X6X6X6X6X6X4X4X,X:X'.T.D.l.b ^ 4.7.=.*.` x ..m.P.(.:X,X4X9X6X6X6X1X4X4X3X>X;X{.U.F.c.b [ =.8.F F ' ",
"F F F =.=.*.` 5.G._.;X>X4X7X7X6X7X7X7X7X7X6X1X>X'./.m.0.b ^ 4.7.7.=. .v X.m.R.{.>X1X6X7X7X7X0X0X9X9X6X1X>X|.E.K.x.M [ 4.B.F ' F ",
"F ' ' :.9.=.` l.Y.(..X,X6X7X7XqXqXqX7X7X7X7X6X,X.X/.K.0.b <.4.w.8.=.` v 1.m.E.}.>X6X7X7X8XwXwX0XqX6X9X9X,X.X[.Y.v.[ { =.B.F R ' ",
"F ` R =.w.*.` l.K.(.:X3X9XqXqXqXqXeXeXqXqXqX9X4X.X).K.l.n <.4.9.8.8. .m X.M.(.|.,X9XqXqXqX7XwX0XwX0XwX0X2X:X).^.n.,.<.8.e.T R Q ",
"F ' ' 7.B.*.] l.P.[.:X4X9X9XqXqXeXeXeXeXqXqX9X3X:X[.I.j.,.^ 8.w.w.8. .m l.M.[..X2X0X9XqXwXwXwXwXwXwXwX0X5X>X'.^.n.,.<.9.e.W E E ",
"F ' ' 8.k.=.] l.I.|.:X4X9XqXqXeXeXeXeXeXeXqX9X4X.X).I.n.,.<.9.w.k.8. .m 3.K.)..X5X0XwXqXqXqXqXwX0XwXwX0X0X>X|./.m.,.<.9.9.K ~ ' ",
"F ' ' 8.B.=.{ l.I.[.>X4X9XqXqXqXeXeXeXeXeXqX9X3X:X).N.z.,.<.9.w.8.=. .m 3.K.[.:X5X0XqXqXqX8XqXwXwX0X0X0X0X>X X/.n.,.<.9.B.K E ' ",
"' ' ' w.B.:.] l.I.{.>X4XqXqXqXqXqXeXeXeXeXqXqX4X:X[.I.z.,.,.5.t.8.k. .m l.P.[.:X4X9XqXqXqXqXqXwXwXwXwX0X1X>X|.^.n.,.<.4.B.! ' ' ",
"K ' ' e.C.*.] 6.P.{.:X4XqXqXqXeXeXeXeXeXqXqX9X3X.X).N.0.n ^ 4.w.w.=...m 2.P.{.:X4X9XqXqXqXqXqXwXwX0XwX0X2X>X'.^.n.<.1.7.B.F ' ' ",
"R ' ' e.e.:.] l.P.(.:X4X9XeXqXqXqXeX7XeXqXqX4X>X.X).K.0.n ^ 5.w.8.8. .` 9.Y.(.:X4X0XqXqXqXwXwXwXwX8X8X0X<X:X'.^.v.M 1.8.e.! ' ' ",
"! ' ' e.B.*.] 6.Y._.:X4X9XqXqXqXqX7X7X7X9X9X4X>X|./.K.0.n [ 5.t.w.=. .m 2.Y./.;X<X0XqXqXqXwXwXwXwXwX0X0X<X:X`.Y.n.[ { 9.e.! ' ' ",
"Q ' ~ u.V.=.` 6.F.!..X3X3X4X4X4X4X4X4X4X3X3X:X:X'.T.J.0.b ] =.w.w.8. .E 2.J.`.;X3X5X9X4X9X0X5X0X5X5X5X<X<X;X'.Q.v.[ <.7.t.W ) ~ ",
"! ' ( u.e.=.' 5.F.!.].;X:X:X>X>X>X>X>X:X.X X|.{.E.Q.D.6.b [ =.w.w.=. .` 4.J.!.].;X>X3X,X3X>X3X3X,X3X>X:X:X].`.Q.Z.^ <.7.u.W ~ ) ",
"K ) ~ u.u.:.Q 4.H.Q.~.!.{.{.{.{.|.|.[.[.[.(.E.U.Y.J.D.5.b ^ 8.w.w.w.#.R *.H.Q.!.`.]. X X|. X.X.X.X X|.'.].`.!.L.C.^ <.7.u.( ~ ) ",
"W ~ o.y.u.=.R 4.S.L.W.Y.Y.Y.U.T.E.U.U.N.P.K.K.G.H.H.Z.4.E ^ =.w.w.:.#.` $.H.L.Q.Q.T.!.E././././././.^.!.Q.Q.Q.L.8.^ ^ 7.u.W ~ ) ",
"K ! ) w.B.*.!  .V.C.C.c.j.n.n.j.j.n.j.x.z.z.k.k.9.9.4.$.c ' =.:.q.q.@.R } 8.C.C.v.D.n.v.m.m.m.m.m.m.D.n.Z.Z.C.e.$.^ ^ =.t.W ~ ) ",
"J ~ ~ r.y.:.' ~ }  ... .X.X.X.X.X.M { X.{ { { ` ] ] ^ E ` ' :.w.q.q.#.R ~ } | { ..2.2.2.2.2.3.2.3.2.2.1.1.|  .] E ~ ^ *.q.W ~ ! ",
"J ( ( r.y.w.:.:.w.:.:.w.:.:.:.:.:.w.:.w.:.w.q.:.:.q.q.q.:.q.q.q.q.q.:.q.q.q.r.r.:.:.:.w.:.q.:.w.r.w.q.q.r.q.q.q.q.q.;.:.:.K ( ( ",
"F ! ! >.:.y.y.>.w.w.y.w.w.w.k.8.8.=.7.8.w.=.7.7.q.8.-.:.t.r.r.r.r.q.r.q.q.r.w.w.w.7.B.B.B.B.B.V.e.e.e.t.q.q.*.;.;.q.:.q.:.F K ! ",
"J W / r.:.q.r.r.y.y.B.y.w.w.:.w.8.:.=.w.w.w.w.:.:.w.>.:.B.>.>.q.r.r.r.r.r.w.w.w.t.w.V.u.V.V.V.V.V.u.u.u.q.:.:.;.;.q.:.>.r.J / / ",
"F K P >.>.r.r.r.:.t.y.:.=.q.:.=.=.:.:.=.:.:.=.:.:.:.>.>.>.>.>.>.r.r.r.t.r.q.:.q.:.q.q.u.y.y.V.V.u.u.u.t.q.:.:.:.:.;.:.r.y.F K W ",
"J K W ;.j j j j j j j j j j j j j j j j j j j j j j j j j j j j j j F j j j j j j j F j j j j j F F j j j j j j S j j j r.J K W ",
"S P J ;.j E E E E E ' K *.R ` R ` ` ' R E ` R E ` F ` ' ' ` m R E E E E E E E E ` ` R ` ` ` ` ` ` E E E E E E E E E E j r.S J K ",
"F K K ;.j ] i.M.-X&XXXXXj.p.d.h.=X@XXX%Xd.a.a.d.#XoX%X-Xd.a.a.g.&XOX+X*Xg.a.p.F.+XXX&X-Xd.p.d.g.-X@X%X-Xg.a.a.d.-X-XE j >.F K J ",
"H H J ;.j E s.#X-X=X&XF.j.d.h.-X=X@X&Xh.d.s.d.&X#X&X-Xh.s.s.g.=X%X%X=Xg.g.s.b.*X#X&X=Xh.f.d.g.-X%X%X-Xg.d.a.d.-X-X=XE j >.H K J ",
"F K J ;.j E OX-X=X=X=Xb.h.i.b.-X-X=X=Xg.g.g.g.-X-X-X-Xg.g.g.g.-X-X-X-Xg.g.h.h.*X&X=X-Xh.s.g.h.-X=X-X-Xg.d.g.h.-X-X-XE j >.S J J ",
"J J J -.j ' -X*X=X$Xb.g.g.g.-X-X-X-Xg.g.g.g.-X-X-X-Xg.g.g.g.-X-X-X-Xg.g.g.g.-X-X-X-Xd.g.d.i.-X-X-X-Xg.g.g.h.-X-X-X-XE F r.J J J ",
"S J / ;.j ` %X%X&Xb.g.g.b.-X-X-X=Xg.g.g.g.-X-X-X-Xg.g.g.g.-X-X-X-Xg.g.g.g.-X-X-X-Xg.g.g.h.-X-X-X-Xg.g.g.i.-X-X-X-Xg.` j >.J H K ",
"L / / ;.j ` %X%XF.h.h.h.&X-X=X=Xg.g.g.g.=X=X=X-Xg.g.g.g.=X*X=X-Xg.g.g.g.-X=X*X-Xg.g.g.d.8X-X-X-Xh.g.g.g.=X-X-X-Xg.g.` j >.J K K ",
"J / / >.F ' XXOXg.g.g.f.-X=X&X=Xg.g.g.i.=X%X=X-Xg.g.g.g.*X&X*X*Xg.g.g.g.=X&X*X=Xg.g.d.d.-X&X-X-Xg.i.g.h.=X&X&X=Xg.g.` j r.J ! P ",
"J W P >.F F L.s.g.g.b.=X=X@X&Xg.g.g.g.&X@X&X-Xg.g.g.g.=X#X&X=Xg.g.g.g.=X&X#X&Xi.d.d.f.-X&X%X*Xg.s.s.h.-X%X$X*Xi.g.g.' j r.J P W ",
"J W W >.F E a.i.g.s.%X&X+XOXi.g.i.i.*X+XOX*Xg.g.g.g.&X+XOX&Xi.i.g.i.&X-XXX#Xi.a.p.d.-X&XXX&Xg.s.p.d.=X%XOX+Xi.i.i.d.` j :.J W ( ",
"K ( ( >.j E E E R R ` ' ' R R ` E E ` E E E E E ` ` R ` ` ' ` ' ` ` ' ` ` ` ` ` E ~ ` ~ R E E E ` ` R ' ` ` ` ' ` E E j r.K ( W ",
"F ( P r.j J j F j j F j j j j j S j j j j j h S j j j j j j j j j j j j F j j F j j F j S h h Y j F j j j j j j j j j j >.J P ( ",
"J ( ( >.>.t.y.y.y.y.y.y.t.>.>.:.>.r.:.:.r.;.r.q.>.>.>.>.;.:.>.>.>.>.>.>.>.:.>.>.r.>.:.:.r.r.;.;.;.:.;.;.-.-.-.;.;.:.>.r.r.J ( ( ",
"S W Y r.r.r.r.r.:.:.:.q.:.:.q.;.;.-.-.-.;.;.;.;.;.;.;.;.-.;.-.r.>.:.:.:.-.;.;.;.-.r.;.r.;.;.q.-.-.-.-.%.%.+.+.-.-.-.-.r.r.S W W ",
"9 g 9 Y W W Y W ! K W W W W Y F W Y Y Y Y W W T W Y Y Y Y W W Q Q ! W W W T S W W W W W W Y Y Y Y Y Y Y Y Y Y Y S F Y Q W 8 f 9 ",
"= 5 5 9 9 9 9 9 9 9 9 9 9 9 9 9 9 9 9 9 9 9 9 9 9 9 9 9 9 9 9 9 i 9 9 9 9 9 9 9 9 9 9 9 9 9 9 8 8 8 8 8 8 9 8 9 9 9 9 9 9 - , : ",
". o o $ $ $ $ % # # # # $ + + + + + + % + $ $ $ + + + + $ $ % # # + # # # + + # $ $ + + % + $ + + + + + + $ $ $ % # # % $ o o o ",
"$ & % < 1 1 < < < < < < , 1 1 1 < < < < < 1 < 1 2 1 1 1 1 2 1 1 1 2 2 2 < 1 1 1 < < < > < < < < , , < < < < < < < < < < 1 % % % ",
"; ; > 0 V t B B B B B i u y B V N B V B B B B B i B B B V B B B y y 0 y B u u B B B B i B B B B B B B B B B B B B B B V i > > > ",
"% % % < 3 < 1 1 < < < < < < < < 1 1 1 1 1 1 1 1 1 1 1 1 ; 1 < , 2 2 1 2 1 < 1 1 < < , < 1 < < < 1 1 < < < < < < < < < < 1 % % % ",
"      . O O O O O O O O o . o O O O O O o O . o O O O O X O O o O O O O O O O O O O . o . o . o o o O O O O O @ @ @ @ @ @       "
};
